<svg xmlns="http://www.w3.org/2000/svg" width="650" height="273" fill="none">
  <g id="stars-blog">
    <g id="stars-b">
      <path id="star-b-line" stroke="#fff" d="m26.24 26 28.17 220 91.83-80.63-106.4-33.22 85.63-51.76L26.24 26Z" />
      <g id="star-b-5">
        <mask id="path-2-inside-1_3_76" fill="#fff">
          <path
            d="M65.64 238.36C61.86 234.6 59.28 228 58 222c-1.28 6-3.86 12.6-7.64 16.37C46.6 242.14 40 244.72 34 246c6 1.28 12.59 3.87 16.36 7.64 3.78 3.77 6.36 10.37 7.64 16.36 1.28-6 3.87-12.59 7.64-16.36C69.4 249.87 76 247.28 82 246c-6-1.28-12.59-3.86-16.36-7.64Z" />
        </mask>
        <path fill="#ffac48" stroke="#0f172a" stroke-width="8"
          d="M65.64 238.36C61.86 234.6 59.28 228 58 222c-1.28 6-3.86 12.6-7.64 16.37C46.6 242.14 40 244.72 34 246c6 1.28 12.59 3.87 16.36 7.64 3.78 3.77 6.36 10.37 7.64 16.36 1.28-6 3.87-12.59 7.64-16.36C69.4 249.87 76 247.28 82 246c-6-1.28-12.59-3.86-16.36-7.64Z"
          mask="url(#path-2-inside-1_3_76)" />
      </g>
      <g id="star-b-4">
        <mask id="path-3-inside-2_3_76" fill="#fff">
          <path
            d="M152.36 159.63c-3.14-3.14-5.3-8.63-6.36-13.63-1.07 5-3.22 10.5-6.36 13.64-3.15 3.14-8.64 5.3-13.64 6.36 5 1.07 10.5 3.22 13.64 6.37 3.14 3.14 5.3 8.63 6.36 13.63 1.07-5 3.22-10.5 6.37-13.64 3.14-3.14 8.63-5.3 13.63-6.36-5-1.07-10.5-3.22-13.64-6.37Z" />
        </mask>
        <path fill="#ffac48" stroke="#0f172a" stroke-width="8"
          d="M152.36 159.63c-3.14-3.14-5.3-8.63-6.36-13.63-1.07 5-3.22 10.5-6.36 13.64-3.15 3.14-8.64 5.3-13.64 6.36 5 1.07 10.5 3.22 13.64 6.37 3.14 3.14 5.3 8.63 6.36 13.63 1.07-5 3.22-10.5 6.37-13.64 3.14-3.14 8.63-5.3 13.63-6.36-5-1.07-10.5-3.22-13.64-6.37Z"
          mask="url(#path-3-inside-2_3_76)" />
      </g>
      <g id="star-b-3">
        <mask id="path-4-inside-3_3_76" fill="#fff">
          <path
            d="M42 118c-.96 4.5-2.9 9.44-5.73 12.27-2.83 2.83-7.77 4.77-12.27 5.73 4.5.97 9.44 2.9 12.27 5.73 2.83 2.83 4.77 7.77 5.73 12.27.96-4.5 2.9-9.44 5.73-12.27 2.83-2.83 7.77-4.77 12.27-5.73-4.5-.96-9.44-2.9-12.27-5.73-2.83-2.83-4.77-7.77-5.73-12.27Z" />
        </mask>
        <path fill="#ffac48" stroke="#0f172a" stroke-width="8"
          d="M42 118c-.96 4.5-2.9 9.44-5.73 12.27-2.83 2.83-7.77 4.77-12.27 5.73 4.5.97 9.44 2.9 12.27 5.73 2.83 2.83 4.77 7.77 5.73 12.27.96-4.5 2.9-9.44 5.73-12.27 2.83-2.83 7.77-4.77 12.27-5.73-4.5-.96-9.44-2.9-12.27-5.73-2.83-2.83-4.77-7.77-5.73-12.27Z"
          mask="url(#path-4-inside-3_3_76)" />
      </g>
      <g id="star-b-2">
        <mask id="path-5-inside-4_3_76" fill="#fff">
          <path
            d="M131 73c-3.45-3.46-5.83-9.5-7-15-1.18 5.5-3.54 11.54-7 15-3.46 3.46-9.5 5.82-15 7 5.5 1.18 11.54 3.54 15 7 3.46 3.46 5.83 9.5 7 15 1.18-5.5 3.55-11.54 7-15 3.46-3.46 9.5-5.82 15-7-5.5-1.18-11.54-3.54-15-7Z" />
        </mask>
        <path fill="#ffac48" stroke="#0f172a" stroke-width="8"
          d="M131 73c-3.45-3.46-5.83-9.5-7-15-1.18 5.5-3.54 11.54-7 15-3.46 3.46-9.5 5.82-15 7 5.5 1.18 11.54 3.54 15 7 3.46 3.46 5.83 9.5 7 15 1.18-5.5 3.55-11.54 7-15 3.46-3.46 9.5-5.82 15-7-5.5-1.18-11.54-3.54-15-7Z"
          mask="url(#path-5-inside-4_3_76)" />
      </g>
      <g id="star-b-1">
        <mask id="path-6-inside-5_3_76" fill="#fff">
          <path
            d="M34.27 17.73C30.2 13.63 27.4 6.5 26 0c-1.4 6.5-4.19 13.64-8.27 17.73C13.63 21.82 6.5 24.6 0 26c6.5 1.4 13.64 4.19 17.73 8.28C21.8 38.37 24.6 45.5 26 52c1.4-6.5 4.19-13.64 8.27-17.73C38.37 30.2 45.5 27.4 52 26c-6.5-1.39-13.64-4.19-17.73-8.27Z" />
        </mask>
        <path fill="#ffac48" stroke="#0f172a" stroke-width="8"
          d="M34.27 17.73C30.2 13.63 27.4 6.5 26 0c-1.4 6.5-4.19 13.64-8.27 17.73C13.63 21.82 6.5 24.6 0 26c6.5 1.4 13.64 4.19 17.73 8.28C21.8 38.37 24.6 45.5 26 52c1.4-6.5 4.19-13.64 8.27-17.73C38.37 30.2 45.5 27.4 52 26c-6.5-1.39-13.64-4.19-17.73-8.27Z"
          mask="url(#path-6-inside-5_3_76)" />
      </g>
    </g>
    <g id="stars-l">
      <path id="star-l-line" stroke="#fff" d="m222.13 46-25.89 154.63 100 25.37" />
      <g id="star-l-3">
        <mask id="path-8-inside-6_3_76" fill="#fff">
          <path
            d="M312 223c-3.45-3.46-5.83-9.5-7-15-1.18 5.5-3.54 11.54-7 15-3.46 3.46-9.5 5.82-15 7 5.5 1.18 11.54 3.54 15 7 3.46 3.46 5.83 9.5 7 15 1.18-5.5 3.55-11.54 7-15 3.46-3.46 9.5-5.82 15-7-5.5-1.18-11.54-3.54-15-7Z" />
        </mask>
        <path fill="#ffac48" stroke="#0f172a" stroke-width="8"
          d="M312 223c-3.45-3.46-5.83-9.5-7-15-1.18 5.5-3.54 11.54-7 15-3.46 3.46-9.5 5.82-15 7 5.5 1.18 11.54 3.54 15 7 3.46 3.46 5.83 9.5 7 15 1.18-5.5 3.55-11.54 7-15 3.46-3.46 9.5-5.82 15-7-5.5-1.18-11.54-3.54-15-7Z"
          mask="url(#path-8-inside-6_3_76)" />
      </g>
      <g id="star-l-2">
        <mask id="path-9-inside-7_3_76" fill="#fff">
          <path
            d="M204.27 195.73c-4.08-4.1-6.88-11.23-8.27-17.73-1.4 6.5-4.19 13.64-8.28 17.73-4.08 4.09-11.22 6.88-17.72 8.27 6.5 1.4 13.64 4.19 17.73 8.28 4.08 4.09 6.88 11.23 8.27 17.72 1.4-6.5 4.19-13.64 8.28-17.72 4.08-4.1 11.22-6.89 17.72-8.28-6.5-1.39-13.64-4.19-17.73-8.27Z" />
        </mask>
        <path fill="#ffac48" stroke="#0f172a" stroke-width="8"
          d="M204.27 195.73c-4.08-4.1-6.88-11.23-8.27-17.73-1.4 6.5-4.19 13.64-8.28 17.73-4.08 4.09-11.22 6.88-17.72 8.27 6.5 1.4 13.64 4.19 17.73 8.28 4.08 4.09 6.88 11.23 8.27 17.72 1.4-6.5 4.19-13.64 8.28-17.72 4.08-4.1 11.22-6.89 17.72-8.28-6.5-1.39-13.64-4.19-17.73-8.27Z"
          mask="url(#path-9-inside-7_3_76)" />
      </g>
      <g id="star-l-1">
        <mask id="path-10-inside-8_3_76" fill="#fff">
          <path
            d="M232.64 38.36C228.87 34.6 226.28 28 225 22c-1.28 6-3.86 12.59-7.64 16.36C213.6 42.13 207 44.72 201 46c6 1.28 12.59 3.86 16.36 7.64C221.14 57.4 223.72 64 225 70c1.28-6 3.87-12.59 7.64-16.36C236.4 49.86 243 47.28 249 46c-6-1.28-12.59-3.87-16.36-7.64Z" />
        </mask>
        <path fill="#ffac48" stroke="#0f172a" stroke-width="8"
          d="M232.64 38.36C228.87 34.6 226.28 28 225 22c-1.28 6-3.86 12.59-7.64 16.36C213.6 42.13 207 44.72 201 46c6 1.28 12.59 3.86 16.36 7.64C221.14 57.4 223.72 64 225 70c1.28-6 3.87-12.59 7.64-16.36C236.4 49.86 243 47.28 249 46c-6-1.28-12.59-3.87-16.36-7.64Z"
          mask="url(#path-10-inside-8_3_76)" />
      </g>
    </g>
    <g id="stars-o">
      <path id="star-o-line" stroke="#fff" d="M472.24 121.44 394.84 62l-54.6 84.76L412.18 210l60.06-88.56Z" />
      <g id="star-o-4">
        <mask id="path-12-inside-9_3_76" fill="#fff">
          <path
            d="M352 142c-3.45-3.46-5.83-9.5-7-15-1.18 5.5-3.54 11.54-7 15-3.46 3.46-9.5 5.82-15 7 5.5 1.18 11.54 3.54 15 7 3.46 3.46 5.83 9.5 7 15 1.18-5.5 3.55-11.54 7-15 3.46-3.46 9.5-5.82 15-7-5.5-1.18-11.54-3.54-15-7Z" />
        </mask>
        <path fill="#ffac48" stroke="#0f172a" stroke-width="8"
          d="M352 142c-3.45-3.46-5.83-9.5-7-15-1.18 5.5-3.54 11.54-7 15-3.46 3.46-9.5 5.82-15 7 5.5 1.18 11.54 3.54 15 7 3.46 3.46 5.83 9.5 7 15 1.18-5.5 3.55-11.54 7-15 3.46-3.46 9.5-5.82 15-7-5.5-1.18-11.54-3.54-15-7Z"
          mask="url(#path-12-inside-9_3_76)" />
      </g>
      <g id="star-o-3">
        <mask id="path-13-inside-10_3_76" fill="#fff">
          <path
            d="M416.64 198.36C412.86 194.6 410.28 188 409 182c-1.28 6-3.86 12.6-7.64 16.37-3.77 3.77-10.36 6.35-16.36 7.63 6 1.28 12.59 3.87 16.36 7.64 3.78 3.77 6.36 10.37 7.64 16.36 1.28-6 3.87-12.59 7.64-16.36 3.77-3.77 10.36-6.36 16.36-7.64-6-1.28-12.59-3.86-16.36-7.64Z" />
        </mask>
        <path fill="#ffac48" stroke="#0f172a" stroke-width="8"
          d="M416.64 198.36C412.86 194.6 410.28 188 409 182c-1.28 6-3.86 12.6-7.64 16.37-3.77 3.77-10.36 6.35-16.36 7.63 6 1.28 12.59 3.87 16.36 7.64 3.78 3.77 6.36 10.37 7.64 16.36 1.28-6 3.87-12.59 7.64-16.36 3.77-3.77 10.36-6.36 16.36-7.64-6-1.28-12.59-3.86-16.36-7.64Z"
          mask="url(#path-13-inside-10_3_76)" />
      </g>
      <g id="star-o-2">
        <mask id="path-14-inside-11_3_76" fill="#fff">
          <path
            d="M478.36 114.64c-3.14-3.15-5.3-8.64-6.36-13.64-1.07 5-3.22 10.5-6.36 13.64-3.15 3.14-8.64 5.3-13.64 6.36 5 1.07 10.5 3.22 13.64 6.36 3.14 3.15 5.3 8.64 6.36 13.64 1.07-5 3.22-10.5 6.37-13.64 3.14-3.14 8.63-5.3 13.63-6.36-5-1.07-10.5-3.22-13.64-6.36Z" />
        </mask>
        <path fill="#ffac48" stroke="#0f172a" stroke-width="8"
          d="M478.36 114.64c-3.14-3.15-5.3-8.64-6.36-13.64-1.07 5-3.22 10.5-6.36 13.64-3.15 3.14-8.64 5.3-13.64 6.36 5 1.07 10.5 3.22 13.64 6.36 3.14 3.15 5.3 8.64 6.36 13.64 1.07-5 3.22-10.5 6.37-13.64 3.14-3.14 8.63-5.3 13.63-6.36-5-1.07-10.5-3.22-13.64-6.36Z"
          mask="url(#path-14-inside-11_3_76)" />
      </g>
      <g id="star-o-1">
        <mask id="path-15-inside-12_3_76" fill="#fff">
          <path
            d="M402.27 53.73C398.2 49.63 395.4 42.5 394 36c-1.4 6.5-4.19 13.64-8.27 17.73-4.1 4.09-11.24 6.88-17.73 8.27 6.5 1.4 13.64 4.19 17.73 8.28C389.8 74.36 392.6 81.5 394 88c1.4-6.5 4.19-13.64 8.27-17.73 4.1-4.08 11.24-6.88 17.73-8.27-6.5-1.39-13.64-4.19-17.73-8.27Z" />
        </mask>
        <path fill="#ffac48" stroke="#0f172a" stroke-width="8"
          d="M402.27 53.73C398.2 49.63 395.4 42.5 394 36c-1.4 6.5-4.19 13.64-8.27 17.73-4.1 4.09-11.24 6.88-17.73 8.27 6.5 1.4 13.64 4.19 17.73 8.28C389.8 74.36 392.6 81.5 394 88c1.4-6.5 4.19-13.64 8.27-17.73 4.1-4.08 11.24-6.88 17.73-8.27-6.5-1.39-13.64-4.19-17.73-8.27Z"
          mask="url(#path-15-inside-12_3_76)" />
      </g>
    </g>
    <g id="stars-g">
      <path id="star-g-line" stroke="#fff" d="M595.7 87.14 518.25 46l4.06 180 107.94-60.43-71.06-30.62" />
      <g id="star-g-5">
        <mask id="path-17-inside-13_3_76" fill="#fff">
          <path
            d="M562 120c-.96 4.5-2.9 9.44-5.73 12.27-2.83 2.83-7.77 4.77-12.27 5.73 4.5.97 9.44 2.9 12.27 5.73 2.83 2.83 4.77 7.77 5.73 12.27.96-4.5 2.9-9.44 5.73-12.27 2.83-2.83 7.77-4.77 12.27-5.73-4.5-.96-9.44-2.9-12.27-5.73-2.83-2.83-4.77-7.77-5.73-12.27Z" />
        </mask>
        <path fill="#ffac48" stroke="#0f172a" stroke-width="8"
          d="M562 120c-.96 4.5-2.9 9.44-5.73 12.27-2.83 2.83-7.77 4.77-12.27 5.73 4.5.97 9.44 2.9 12.27 5.73 2.83 2.83 4.77 7.77 5.73 12.27.96-4.5 2.9-9.44 5.73-12.27 2.83-2.83 7.77-4.77 12.27-5.73-4.5-.96-9.44-2.9-12.27-5.73-2.83-2.83-4.77-7.77-5.73-12.27Z"
          mask="url(#path-17-inside-13_3_76)" />
      </g>
      <g id="star-g-4">
        <mask id="path-18-inside-14_3_76" fill="#fff">
          <path
            d="M636.36 159.63c-3.14-3.14-5.3-8.63-6.36-13.63-1.07 5-3.22 10.5-6.36 13.64-3.15 3.14-8.64 5.3-13.64 6.36 5 1.07 10.5 3.22 13.64 6.37 3.14 3.14 5.3 8.63 6.36 13.63 1.07-5 3.22-10.5 6.37-13.64 3.14-3.14 8.63-5.3 13.63-6.36-5-1.07-10.5-3.22-13.64-6.37Z" />
        </mask>
        <path fill="#ffac48" stroke="#0f172a" stroke-width="8"
          d="M636.36 159.63c-3.14-3.14-5.3-8.63-6.36-13.63-1.07 5-3.22 10.5-6.36 13.64-3.15 3.14-8.64 5.3-13.64 6.36 5 1.07 10.5 3.22 13.64 6.37 3.14 3.14 5.3 8.63 6.36 13.63 1.07-5 3.22-10.5 6.37-13.64 3.14-3.14 8.63-5.3 13.63-6.36-5-1.07-10.5-3.22-13.64-6.37Z"
          mask="url(#path-18-inside-14_3_76)" />
      </g>
      <g id="star-g-3">
        <mask id="path-19-inside-15_3_76" fill="#fff">
          <path
            d="M527.63 214.36C523.87 210.6 521.28 204 520 198c-1.28 6-3.87 12.59-7.64 16.36-3.77 3.78-10.37 6.36-16.36 7.64 6 1.28 12.59 3.86 16.36 7.64 3.77 3.77 6.36 10.36 7.64 16.36 1.28-6 3.86-12.59 7.64-16.36 3.77-3.78 10.36-6.36 16.36-7.64-6-1.28-12.6-3.87-16.37-7.64Z" />
        </mask>
        <path fill="#ffac48" stroke="#0f172a" stroke-width="8"
          d="M527.63 214.36C523.87 210.6 521.28 204 520 198c-1.28 6-3.87 12.59-7.64 16.36-3.77 3.78-10.37 6.36-16.36 7.64 6 1.28 12.59 3.86 16.36 7.64 3.77 3.77 6.36 10.36 7.64 16.36 1.28-6 3.86-12.59 7.64-16.36 3.77-3.78 10.36-6.36 16.36-7.64-6-1.28-12.6-3.87-16.37-7.64Z"
          mask="url(#path-19-inside-15_3_76)" />
      </g>
      <g id="star-g-2">
        <mask id="path-20-inside-16_3_76" fill="#fff">
          <path
            d="M532.27 39.73C528.2 35.63 525.4 28.5 524 22c-1.4 6.5-4.19 13.64-8.27 17.73-4.1 4.09-11.24 6.88-17.73 8.27 6.5 1.4 13.64 4.19 17.73 8.28C519.8 60.37 522.6 67.5 524 74c1.4-6.5 4.19-13.64 8.27-17.73 4.1-4.08 11.24-6.88 17.73-8.27-6.5-1.39-13.64-4.19-17.73-8.27Z" />
        </mask>
        <path fill="#ffac48" stroke="#0f172a" stroke-width="8"
          d="M532.27 39.73C528.2 35.63 525.4 28.5 524 22c-1.4 6.5-4.19 13.64-8.27 17.73-4.1 4.09-11.24 6.88-17.73 8.27 6.5 1.4 13.64 4.19 17.73 8.28C519.8 60.37 522.6 67.5 524 74c1.4-6.5 4.19-13.64 8.27-17.73 4.1-4.08 11.24-6.88 17.73-8.27-6.5-1.39-13.64-4.19-17.73-8.27Z"
          mask="url(#path-20-inside-16_3_76)" />
      </g>
      <g id="star-g-1">
        <mask id="path-21-inside-17_3_76" fill="#fff">
          <path
            d="M609 85c-3.46-3.46-5.83-9.5-7-15-1.18 5.5-3.54 11.54-7 15-3.46 3.46-9.5 5.82-15 7 5.5 1.18 11.54 3.54 15 7 3.46 3.46 5.83 9.5 7 15 1.18-5.5 3.54-11.54 7-15 3.46-3.46 9.5-5.82 15-7-5.5-1.18-11.54-3.54-15-7Z" />
        </mask>
        <path fill="#ffac48" stroke="#0f172a" stroke-width="8"
          d="M609 85c-3.46-3.46-5.83-9.5-7-15-1.18 5.5-3.54 11.54-7 15-3.46 3.46-9.5 5.82-15 7 5.5 1.18 11.54 3.54 15 7 3.46 3.46 5.83 9.5 7 15 1.18-5.5 3.54-11.54 7-15 3.46-3.46 9.5-5.82 15-7-5.5-1.18-11.54-3.54-15-7Z"
          mask="url(#path-21-inside-17_3_76)" />
      </g>
    </g>
  </g>
</svg>