<svg xmlns="http://www.w3.org/2000/svg" xmlns:xlink="http://www.w3.org/1999/xlink" viewBox="75 50 707.3 433.9">
  <!-- viewBox="50 25 757.3 483.9"> -->
  <g style="isolation:isolate">
    <g id="BACKGROUND">
      <g fill="#fff" clip-path="url(#clip-path)">
        <ellipse cx="718.2" cy="43.4" rx=".6" ry=".7" transform="rotate(-45 766.2 -12)" />
        <path
          d="M638 64.2a.7.7 0 0 0 1 1 .6.6 0 0 0 .2-.4.7.7 0 1 0-1.2-.6ZM617 77a.7.7 0 0 0 1 1 .6.6 0 0 0 .2-.4.7.7 0 0 0-1-.9.6.6 0 0 0-.2.3ZM613.7 62.7a.7.7 0 0 0 .9 1 .6.6 0 0 0 .3-.4.7.7 0 0 0-1-.9.6.6 0 0 0-.2.3ZM587 31.8a.7.7 0 0 0 .9 1 .6.6 0 0 0 .3-.4.7.7 0 0 0-1-.9.6.6 0 0 0-.2.3ZM517.7 35a.7.7 0 0 0 1 .8.6.6 0 0 0 .2-.2.7.7 0 1 0-1.2-.7ZM505.7 94a.7.7 0 0 0 .9.8.6.6 0 0 0 .3-.2.7.7 0 0 0-1-1 .6.6 0 0 0-.2.3ZM566.6 122a.7.7 0 0 0 1 .8.6.6 0 0 0 .2-.2.7.7 0 0 0-1-1 .6.6 0 0 0-.2.3ZM698.7 139.9a.7.7 0 0 0 .9 1 .6.6 0 0 0 .3-.4.7.7 0 0 0-1-.9.6.6 0 0 0-.2.3ZM718.4 123.7a.7.7 0 0 0 1 1 .6.6 0 0 0 .2-.4.7.7 0 1 0-1.2-.6ZM755 84.8a.7.7 0 1 0 .4-.3.6.6 0 0 0-.3.3ZM767 70.5a.7.7 0 0 0 .8.9.6.6 0 0 0 .3-.3.7.7 0 0 0-1.2-.6ZM795.2 145.2a.7.7 0 0 0 .9.9.6.6 0 0 0 .3-.3.7.7 0 0 0-1-1 .6.6 0 0 0-.2.4ZM788.5 150a.7.7 0 0 0 1 1 .6.6 0 0 0 .2-.3.7.7 0 0 0-.9-.9.5.5 0 0 0-.3.3ZM806.2 139a.7.7 0 0 0 1 .8.6.6 0 0 0 .2-.2.7.7 0 0 0-1-1 .6.6 0 0 0-.2.3ZM738.5 277.4a.7.7 0 0 0 1 1 .6.6 0 0 0 .2-.4.7.7 0 0 0-.9-.9.6.6 0 0 0-.3.3Z" />
        <ellipse cx="681.9" cy="234" rx=".6" ry=".7" transform="rotate(-45 730 178.6)" />
        <path
          d="M706.4 259.5a.7.7 0 0 0 .9 1 .6.6 0 0 0 .3-.3.7.7 0 0 0-1-1 .6.6 0 0 0-.3.3ZM633.9 217.3a.7.7 0 0 0 .9 1 .6.6 0 0 0 .3-.4.7.7 0 0 0-1-.9.6.6 0 0 0-.2.3ZM664 185.6a.7.7 0 0 0 1 .9.6.6 0 0 0 .3-.3.7.7 0 0 0-1-.9.6.6 0 0 0-.2.3ZM659.7 183.3a.7.7 0 0 0 1 1 .6.6 0 0 0 .2-.4.7.7 0 0 0-.9-.9.6.6 0 0 0-.3.3ZM387.6 74.4a.7.7 0 0 0 .9.9.6.6 0 0 0 .3-.3.7.7 0 0 0-1-1 .6.6 0 0 0-.2.4ZM272 66a.7.7 0 0 0 .9 1 .6.6 0 0 0 .3-.4.7.7 0 0 0-1-.9.6.6 0 0 0-.3.3ZM201.8 86.7a.7.7 0 0 0 1 .9.5.5 0 0 0 .2-.3.7.7 0 0 0-.9-1 .6.6 0 0 0-.3.4ZM203.8 118a.7.7 0 0 0 .9.8.6.6 0 0 0 .3-.2.7.7 0 0 0-1-1 .6.6 0 0 0-.3.3ZM182.8 116.5a.7.7 0 0 0 1 1 .6.6 0 0 0 .2-.4.7.7 0 0 0-.9-.9.6.6 0 0 0-.3.3Z" />
        <ellipse cx="130.2" cy="90.6" rx=".6" ry=".7" transform="rotate(-45 178.2 35.2)" />
        <path
          d="M171.5 61a.7.7 0 1 0 .3-.3.6.6 0 0 0-.3.3ZM145.3 52a.7.7 0 1 0 .3-.4.6.6 0 0 0-.3.3ZM86.1 84.8a.7.7 0 0 0 1 1 .6.6 0 0 0 .2-.4.7.7 0 0 0-.9-.9.6.6 0 0 0-.3.3ZM72.5 137.1a.7.7 0 0 0 .9 1 .6.6 0 0 0 .3-.3.7.7 0 0 0-1.2-.7ZM86.4 181.7a.7.7 0 0 0 1 1 .6.6 0 0 0 .2-.4.7.7 0 0 0-.9-.9.6.6 0 0 0-.3.3ZM142.5 201.4a.7.7 0 0 0 .9.9.6.6 0 0 0 .3-.3.7.7 0 0 0-1-1 .6.6 0 0 0-.2.4ZM147.5 217.3a.7.7 0 0 0 1 .9.6.6 0 0 0 .2-.3.7.7 0 0 0-.9-1 .6.6 0 0 0-.3.4ZM80 260.4a.7.7 0 1 0 .2-.3.6.6 0 0 0-.3.3ZM70.3 264.6a.7.7 0 0 0 .9 1 .6.6 0 0 0 .3-.4.7.7 0 0 0-1-.9.6.6 0 0 0-.2.3ZM167 204.3a.7.7 0 0 0 .8 1 .6.6 0 0 0 .3-.4.7.7 0 0 0-.9-.9.6.6 0 0 0-.3.3ZM152.6 239.3a.7.7 0 1 0 .3-.3.6.6 0 0 0-.3.3ZM145.3 252.7a.7.7 0 1 0 .3-.3.6.6 0 0 0-.3.3ZM119.7 277a.7.7 0 0 0 1 1 .6.6 0 0 0 .2-.4.7.7 0 0 0-.9-.9.6.6 0 0 0-.3.3ZM112.2 278.6a.7.7 0 0 0 .9 1 .6.6 0 0 0 .3-.4.7.7 0 0 0-1-.9.6.6 0 0 0-.2.3ZM96.3 264.9a.7.7 0 0 0 1 1 .6.6 0 0 0 .2-.4.7.7 0 0 0-.9-.9.6.6 0 0 0-.3.3ZM66.3 230.8a.7.7 0 0 0 .9.9.6.6 0 0 0 .3-.3.7.7 0 0 0-1-.9.6.6 0 0 0-.2.3ZM56.3 211.3a.7.7 0 0 0 .9.9.6.6 0 0 0 .3-.3.7.7 0 0 0-1-1 .6.6 0 0 0-.2.4ZM93.2 284.8a.7.7 0 0 0 .9 1 .6.6 0 0 0 .3-.3.7.7 0 0 0-1-1 .6.6 0 0 0-.2.3ZM101.7 303.7a.7.7 0 0 0 .9 1 .6.6 0 0 0 .3-.3.7.7 0 0 0-1-1 .6.6 0 0 0-.2.3ZM121.7 324.3a.7.7 0 0 0 1 1 .6.6 0 0 0 .2-.3.7.7 0 0 0-.9-1 .6.6 0 0 0-.3.3ZM91.2 344.5a.7.7 0 0 0 1 .9.6.6 0 0 0 .2-.3.7.7 0 0 0-.9-1 .6.6 0 0 0-.3.4ZM68.5 321.2a.7.7 0 0 0 1 .9.6.6 0 0 0 .2-.3.7.7 0 0 0-.9-.9.6.6 0 0 0-.3.3ZM70.5 251.4a.7.7 0 0 0 1 1 .6.6 0 0 0 .2-.3.7.7 0 0 0-.9-1 .6.6 0 0 0-.3.3ZM61.4 199a.7.7 0 0 0 .9 1 .6.6 0 0 0 .3-.4.7.7 0 0 0-1-.9.6.6 0 0 0-.2.3ZM53 145.4a.7.7 0 0 0 1 .9.6.6 0 0 0 .3-.3.7.7 0 0 0-1-1 .6.6 0 0 0-.2.4ZM46.6 98.7a.7.7 0 0 0 1 1 .6.6 0 0 0 .2-.4.7.7 0 0 0-.9-.9.6.6 0 0 0-.3.3ZM80.6 54.6a.7.7 0 1 0 .2-.3.6.6 0 0 0-.2.3ZM221.5 59.7a.7.7 0 0 0 1 1 .6.6 0 0 0 .2-.4.7.7 0 0 0-.9-.9.6.6 0 0 0-.3.3ZM269.4 81a.7.7 0 0 0 1 1 .6.6 0 0 0 .2-.3.7.7 0 0 0-.9-1 .6.6 0 0 0-.3.4ZM351.4 61.8a.7.7 0 1 0 .3-.2.6.6 0 0 0-.3.2ZM408.2 49.5a.7.7 0 1 0 .3-.2.6.6 0 0 0-.3.3ZM436.7 48.7a.7.7 0 0 0 .9.9.6.6 0 0 0 .3-.3.7.7 0 0 0-1-1 .6.6 0 0 0-.2.4ZM482.2 72a.7.7 0 0 0 1 1 .6.6 0 0 0 .2-.3.7.7 0 0 0-1.2-.6ZM449.3 113.3a.7.7 0 0 0 .9 1 .6.6 0 0 0 .3-.4.7.7 0 0 0-1-.9.6.6 0 0 0-.2.3ZM454.2 118.3a.7.7 0 0 0 1 .9.6.6 0 0 0 .2-.3.7.7 0 0 0-.9-.9.6.6 0 0 0-.3.3ZM548.3 114.7a.7.7 0 0 0 .9.9.6.6 0 0 0 .3-.3.7.7 0 0 0-1-1 .6.6 0 0 0-.2.4ZM570.7 125.4a.7.7 0 0 0 .9.9.5.5 0 0 0 .2-.3.7.7 0 0 0-.9-1 .5.5 0 0 0-.2.4ZM734.5 204.6a.7.7 0 0 0 1 .9.6.6 0 0 0 .2-.3.7.7 0 0 0-.9-1 .6.6 0 0 0-.3.4ZM765.2 199.2a.7.7 0 0 0 .9 1 .6.6 0 0 0 .3-.4.7.7 0 0 0-1-.9.6.6 0 0 0-.2.3ZM799.1 180.9a.7.7 0 0 0 1 1 .6.6 0 0 0 .2-.4.7.7 0 0 0-.9-.9.6.6 0 0 0-.3.3ZM802.5 126.8a.7.7 0 0 0 1 1 .5.5 0 0 0 .2-.4.7.7 0 0 0-.9-.9.6.6 0 0 0-.3.3ZM802.7 79.2a.7.7 0 0 0 1 1 .6.6 0 0 0 .2-.4.7.7 0 0 0-.9-.9.6.6 0 0 0-.3.3ZM807 71.4a.7.7 0 0 0 1 .9.6.6 0 0 0 .2-.3.7.7 0 0 0-1-1 .6.6 0 0 0-.2.4ZM683 180.7a.7.7 0 0 0 1 1 .6.6 0 0 0 .3-.3.7.7 0 0 0-1-1 .6.6 0 0 0-.2.3ZM523.6 211.4a.7.7 0 0 0 .9 1 .6.6 0 0 0 .3-.3.7.7 0 0 0-1-1 .6.6 0 0 0-.2.3ZM457.4 215.4a.7.7 0 0 0 1 1 .6.6 0 0 0 .2-.4.7.7 0 0 0-1-.9.6.6 0 0 0-.2.3ZM384.8 219.3a.7.7 0 0 0 .9.9.6.6 0 0 0 .3-.3.7.7 0 0 0-1-1 .5.5 0 0 0-.2.4ZM312.4 212.3a.7.7 0 0 0 1 1 .6.6 0 0 0 .2-.4.7.7 0 0 0-.9-.9.6.6 0 0 0-.3.3Z" />
        <ellipse cx="234.9" cy="218.3" rx=".6" ry=".7" transform="rotate(-45 282.9 162.8)" />
        <path
          d="M266 283.2a.7.7 0 0 0 .8 1 .6.6 0 0 0 .3-.3.7.7 0 0 0-.9-1 .5.5 0 0 0-.3.3ZM269.4 298a.7.7 0 1 0 .3-.2.6.6 0 0 0-.3.3ZM474.3 306.4a.7.7 0 0 0 .9.9.6.6 0 0 0 .3-.3.7.7 0 0 0-1-.9.6.6 0 0 0-.2.3ZM537.2 308.4a.7.7 0 0 0 .9.9.6.6 0 0 0 .3-.3.7.7 0 0 0-1-1 .6.6 0 0 0-.2.4ZM567 310a.7.7 0 0 0 1 1 .6.6 0 0 0 .3-.4.7.7 0 0 0-1-.9.6.6 0 0 0-.2.3ZM670.7 217.4a.7.7 0 1 0 .3-.3.6.6 0 0 0-.3.3ZM656.4 254.5a.7.7 0 0 0 .9 1 .6.6 0 0 0 .3-.4.7.7 0 0 0-1-.9.6.6 0 0 0-.2.3ZM611.9 279.4a.7.7 0 0 0 .9 1 .6.6 0 0 0 .3-.3.7.7 0 0 0-1-1 .6.6 0 0 0-.2.3ZM565.4 290.4a.7.7 0 0 0 .9.9.6.6 0 0 0 .3-.3.7.7 0 0 0-1-1 .6.6 0 0 0-.2.4ZM529.9 303.2a.7.7 0 0 0 .9 1 .6.6 0 0 0 .3-.4.7.7 0 0 0-1-.9.6.6 0 0 0-.2.3ZM520.8 345a.7.7 0 0 0 .9.8.6.6 0 0 0 .2-.2.7.7 0 0 0-.9-1 .6.6 0 0 0-.3.3ZM495 368.1a.7.7 0 0 0 1 1 .6.6 0 0 0 .2-.3.7.7 0 0 0-.9-1 .6.6 0 0 0-.3.3ZM438.9 383.6a.7.7 0 0 0 1 1 .6.6 0 0 0 .2-.3.7.7 0 0 0-1-1 .6.6 0 0 0-.2.3ZM417.6 394.2a.7.7 0 0 0 1 1 .5.5 0 0 0 .2-.4.7.7 0 0 0-1.2-.6ZM376.3 359a.7.7 0 0 0 1 .8.6.6 0 0 0 .2-.3.7.7 0 0 0-1.2-.6ZM385.3 333.5a.7.7 0 0 0 1 1 .6.6 0 0 0 .2-.3.7.7 0 0 0-.9-1 .6.6 0 0 0-.3.3ZM381.4 313.7a.7.7 0 0 0 1 1 .6.6 0 0 0 .3-.3.7.7 0 0 0-1-1 .6.6 0 0 0-.3.3ZM374.3 281.7a.7.7 0 0 0 .9 1 .6.6 0 0 0 .3-.3.7.7 0 0 0-1-1 .6.6 0 0 0-.2.3ZM489.5 277.3a.7.7 0 0 0 1 .9.6.6 0 0 0 .2-.3.7.7 0 0 0-.9-1 .6.6 0 0 0-.3.4ZM454.6 362.7a.7.7 0 0 0 1 .9.5.5 0 0 0 .2-.3.7.7 0 0 0-.9-1 .6.6 0 0 0-.3.4ZM577.6 390.2a.7.7 0 0 0 1 .9.6.6 0 0 0 .2-.3.7.7 0 0 0-1-1 .6.6 0 0 0-.2.4ZM694 379.1a.7.7 0 0 0 1 1 .6.6 0 0 0 .3-.4.7.7 0 0 0-1-.9.6.6 0 0 0-.3.3ZM640 268.8a.7.7 0 0 0 1 1 .6.6 0 0 0 .2-.4.7.7 0 0 0-.9-.9.5.5 0 0 0-.3.3ZM706.2 303.7a.7.7 0 1 0 .3-.3.6.6 0 0 0-.3.3ZM706 384.3a.7.7 0 1 0 .3-.3.6.6 0 0 0-.2.3ZM736.8 373.5a.7.7 0 0 0 1 .9.6.6 0 0 0 .2-.3.7.7 0 0 0-.9-1 .6.6 0 0 0-.3.4ZM734.4 382.3a.7.7 0 0 0 1 1 .6.6 0 0 0 .2-.4.7.7 0 0 0-1-.9.6.6 0 0 0-.2.3ZM704.3 320.1a.7.7 0 0 0 1 1 .6.6 0 0 0 .2-.4.7.7 0 0 0-.9-.9.6.6 0 0 0-.3.3ZM749.2 403.4a.7.7 0 1 0 .3-.3.6.6 0 0 0-.3.3ZM739 412.6a.7.7 0 0 0 .8.9.6.6 0 0 0 .3-.3.7.7 0 0 0-.9-.9.6.6 0 0 0-.3.3Z" />
        <ellipse cx="722.9" cy="235.8" rx=".6" ry=".7" transform="rotate(-45 771 180.3)" />
        <ellipse cx="711.9" cy="204" rx=".6" ry=".7" transform="rotate(-45 760 148.6)" />
        <path
          d="M772.9 327a.7.7 0 0 0 .9 1 .6.6 0 0 0 .3-.3.7.7 0 0 0-1-.9.6.6 0 0 0-.2.3ZM766.3 426a.7.7 0 0 0 .9 1 .6.6 0 0 0 .3-.4.7.7 0 0 0-1-.9.6.6 0 0 0-.2.3ZM735.3 461.9a.7.7 0 1 0 .3-.3.6.6 0 0 0-.3.3ZM623.5 369.3a.7.7 0 0 0 1 .9.6.6 0 0 0 .2-.3.7.7 0 0 0-1-1 .6.6 0 0 0-.2.4ZM615.6 349.9a.7.7 0 0 0 1 .9.6.6 0 0 0 .2-.3.7.7 0 0 0-.9-1 .6.6 0 0 0-.3.4ZM658.4 443a.7.7 0 0 0 .9 1 .5.5 0 0 0 .3-.3.7.7 0 0 0-1-1 .6.6 0 0 0-.2.4ZM713.5 467.3a.7.7 0 0 0 1 1 .6.6 0 0 0 .2-.4.7.7 0 1 0-1.2-.6ZM750.8 484.2a.7.7 0 0 0 .9.9.6.6 0 0 0 .3-.3.7.7 0 0 0-1-1 .6.6 0 0 0-.2.4Z" />
        <ellipse cx="634.6" cy="459" rx=".6" ry=".7" transform="rotate(-45 682.6 403.5)" />
        <path
          d="M583.7 446.3a.7.7 0 0 0 .9.9.6.6 0 0 0 .3-.3.7.7 0 0 0-1-1 .6.6 0 0 0-.2.4ZM592.6 469.4a.7.7 0 0 0 .9 1 .6.6 0 0 0 .3-.3.7.7 0 0 0-1-1 .6.6 0 0 0-.2.3ZM665.1 279.2a.7.7 0 0 0 1 1 .6.6 0 0 0 .2-.4.7.7 0 0 0-.9-.9.6.6 0 0 0-.3.3ZM606.5 304.7a.7.7 0 0 0 1 1 .6.6 0 0 0 .2-.3.7.7 0 0 0-.9-1 .6.6 0 0 0-.3.3ZM674.4 290.3a.7.7 0 0 0 1 1 .6.6 0 0 0 .2-.4.7.7 0 0 0-1-.9.6.6 0 0 0-.2.3ZM782.9 267.5a.7.7 0 0 0 .9 1 .6.6 0 0 0 .3-.4.7.7 0 0 0-1-.9.6.6 0 0 0-.2.3ZM825.2 364.3a.7.7 0 1 0 .3-.3.6.6 0 0 0-.3.3ZM801.9 420.7a.7.7 0 0 0 .9.9.6.6 0 0 0 .3-.3.7.7 0 0 0-1-1 .6.6 0 0 0-.3.4ZM741 430.2a.7.7 0 0 0 .8 1 .6.6 0 0 0 .3-.4.7.7 0 0 0-.9-.9.6.6 0 0 0-.3.3Z" />
        <ellipse cx="677.3" cy="362.5" rx=".6" ry=".7" transform="rotate(-45 725.3 307)" />
        <path
          d="M757 533a.7.7 0 0 0 .8.8.6.6 0 0 0 .3-.2.7.7 0 0 0-.9-1 .6.6 0 0 0-.3.3ZM478.9 477.8a.7.7 0 1 0 .2-.3.6.6 0 0 0-.2.3ZM434 435.6a.7.7 0 0 0 .8 1 .5.5 0 0 0 .3-.4.7.7 0 0 0-.9-.9.5.5 0 0 0-.3.3ZM513.8 478a.7.7 0 0 0 .9.8.6.6 0 0 0 .3-.3.7.7 0 0 0-1-.9.6.6 0 0 0-.2.3ZM484.3 405a.7.7 0 0 0 .9 1 .6.6 0 0 0 .3-.3.7.7 0 0 0-1.2-.6ZM418.3 458.9a.7.7 0 0 0 .9.9.6.6 0 0 0 .3-.3.7.7 0 0 0-1-.9.6.6 0 0 0-.2.3ZM498.6 417.8a.7.7 0 0 0 .9.9.6.6 0 0 0 .2-.3.7.7 0 0 0-.9-1 .6.6 0 0 0-.2.4ZM270.6 452.9a.7.7 0 0 0 1 .9.6.6 0 0 0 .2-.3.7.7 0 0 0-.9-1 .6.6 0 0 0-.3.4ZM270.7 521.4a.7.7 0 0 0 .9 1 .6.6 0 0 0 .3-.4.7.7 0 0 0-1-.9.6.6 0 0 0-.2.3ZM350.3 453.3a.7.7 0 0 0 .9 1 .6.6 0 0 0 .3-.4.7.7 0 0 0-1-.9.6.6 0 0 0-.2.3ZM195.4 481.5a.7.7 0 0 0 1 1 .6.6 0 0 0 .2-.4.7.7 0 0 0-.9-.9.6.6 0 0 0-.3.3ZM236 397.6a.7.7 0 1 0 .4-.3.6.6 0 0 0-.3.3ZM218 301a.7.7 0 0 0 1 1 .6.6 0 0 0 .3-.3.7.7 0 0 0-1-.9.6.6 0 0 0-.3.3ZM103.8 393.5a.7.7 0 1 0 .3-.3.6.6 0 0 0-.3.3Z" />
        <ellipse cx="32.4" cy="454.4" rx=".6" ry=".7" transform="rotate(-45 80.4 399)" />
        <path
          d="M64.1 494.2a.7.7 0 0 0 1 .9.6.6 0 0 0 .2-.4.7.7 0 0 0-1-.9.6.6 0 0 0-.2.4ZM49 392a.7.7 0 0 0 1 1 .6.6 0 0 0 .3-.4.7.7 0 0 0-1-.9.6.6 0 0 0-.2.3ZM77 373a.7.7 0 0 0 1 .9.6.6 0 0 0 .2-.3.7.7 0 0 0-1-.9.6.6 0 0 0-.2.3ZM125.4 476a.7.7 0 1 0 .3-.3.6.6 0 0 0-.3.3ZM221.6 402a.7.7 0 0 0 .9.9.6.6 0 0 0 .3-.3.7.7 0 0 0-1-1 .6.6 0 0 0-.2.4ZM172.5 346.5a.7.7 0 0 0 1 1 .6.6 0 0 0 .2-.4.7.7 0 0 0-1-.9.6.6 0 0 0-.2.3ZM169.3 186.1a.7.7 0 1 0 .3-.3.6.6 0 0 0-.3.3ZM268.3 137.7a.7.7 0 0 0 .9 1 .6.6 0 0 0 .3-.4.7.7 0 0 0-1-.9.6.6 0 0 0-.2.3ZM320.7 153.7a.7.7 0 0 0 1 1 .6.6 0 0 0 .2-.4.7.7 0 0 0-.9-.9.6.6 0 0 0-.3.3ZM288.4 191.8a.7.7 0 0 0 .9.9.6.6 0 0 0 .3-.3.7.7 0 0 0-1-.9.6.6 0 0 0-.2.3ZM489.7 115.9a.7.7 0 0 0 1 .9.6.6 0 0 0 .2-.3.7.7 0 0 0-1-1 .6.6 0 0 0-.2.4ZM573.7 190.7a.7.7 0 0 0 1 1 .6.6 0 0 0 .2-.4.7.7 0 0 0-.9-.9.6.6 0 0 0-.3.3ZM552.6 234.5a.7.7 0 1 0 .3-.3.6.6 0 0 0-.3.3ZM419.5 112.2a.7.7 0 0 0 1 1 .6.6 0 0 0 .2-.4.7.7 0 0 0-1-.9.6.6 0 0 0-.2.3ZM446.4 188a.7.7 0 0 0 1 .8.5.5 0 0 0 .2-.3.7.7 0 0 0-.9-.9.6.6 0 0 0-.3.3ZM560 147a.7.7 0 0 0 .8.9.6.6 0 0 0 .3-.3.7.7 0 0 0-.9-1 .6.6 0 0 0-.3.4ZM598.3 164.4a.7.7 0 1 0 .3-.3.6.6 0 0 0-.3.3ZM643.3 75.8a.7.7 0 0 0 .9.9.6.6 0 0 0 .3-.3.7.7 0 0 0-1-1 .6.6 0 0 0-.2.4ZM611.4 91.9a.7.7 0 0 0 1 .9.6.6 0 0 0 .2-.3.7.7 0 0 0-.9-1 .6.6 0 0 0-.3.4ZM653.5 134a.7.7 0 0 0 1 1 .6.6 0 0 0 .2-.3.7.7 0 0 0-.9-1 .6.6 0 0 0-.3.4ZM662.5 133a.7.7 0 0 0 .9 1 .6.6 0 0 0 .3-.3.7.7 0 0 0-1-1 .6.6 0 0 0-.2.3ZM684.6 82.7a.7.7 0 0 0 .9 1 .6.6 0 0 0 .3-.4.7.7 0 0 0-1.2-.6ZM633.7 135.3a.7.7 0 0 0 1 1 .6.6 0 0 0 .2-.4.7.7 0 0 0-.9-.9.6.6 0 0 0-.3.3ZM653.8 127.5a.7.7 0 0 0 1 1 .6.6 0 0 0 .2-.4.7.7 0 0 0-.9-.9.6.6 0 0 0-.3.3ZM635.7 126.3a.7.7 0 0 0 .9 1 .6.6 0 0 0 .3-.3.7.7 0 0 0-1-1 .6.6 0 0 0-.2.3ZM698 67.9a.7.7 0 0 0 1 1 .6.6 0 0 0 .2-.4.7.7 0 0 0-.9-.9.5.5 0 0 0-.3.3ZM694.7 84.9a.7.7 0 0 0 .9.9.6.6 0 0 0 .3-.3.7.7 0 0 0-1-1 .6.6 0 0 0-.2.4ZM769 131.4a.7.7 0 0 0 1 1 .6.6 0 0 0 .2-.4.7.7 0 1 0-1.2-.6Z" />
        <ellipse cx="668.6" cy="150.7" rx=".6" ry=".7" transform="rotate(-45 716.7 95.3)" />
        <path
          d="M710.9 129.9a.7.7 0 0 0 1 .9.6.6 0 0 0 .2-.3.7.7 0 1 0-1.2-.6ZM721.4 118.6a.7.7 0 0 0 1 .9.6.6 0 0 0 .2-.3.7.7 0 0 0-.9-1 .6.6 0 0 0-.3.4ZM723.2 156.8a.7.7 0 0 0 .9.9.6.6 0 0 0 .3-.3.7.7 0 0 0-1.2-.6ZM772.5 143.3a.7.7 0 0 0 1 .9.5.5 0 0 0 .2-.3.7.7 0 0 0-.9-.9.5.5 0 0 0-.3.3ZM762 85.5a.7.7 0 0 0 1 1 .6.6 0 0 0 .2-.4.7.7 0 1 0-1.2-.6Z" />
        <ellipse cx="695.4" cy="101.2" rx=".6" ry=".7" transform="rotate(-45 743.4 45.7)" />
        <path
          d="M801.6 88.1a.7.7 0 0 0 .9 1 .6.6 0 0 0 .3-.4.7.7 0 0 0-1-.9.6.6 0 0 0-.2.3ZM789.3 58.2a.7.7 0 0 0 .9.9.6.6 0 0 0 .3-.3.7.7 0 0 0-1-1 .6.6 0 0 0-.2.4ZM794.4 91.8a.7.7 0 0 0 1 1 .6.6 0 0 0 .2-.4.7.7 0 0 0-1-.9.6.6 0 0 0-.2.3Z" />
        <ellipse cx="760.5" cy="142" rx=".6" ry=".7" transform="rotate(-45 808.5 86.6)" />
        <path
          d="M728.3 134a.7.7 0 0 0 .9.8.6.6 0 0 0 .3-.2.7.7 0 0 0-1-1 .6.6 0 0 0-.2.3ZM732.9 20.8a.7.7 0 0 0 .9 1 .6.6 0 0 0 .3-.4.7.7 0 0 0-1-.9.6.6 0 0 0-.2.3ZM683.1 35.5a.7.7 0 0 0 1 1 .6.6 0 0 0 .2-.3.7.7 0 0 0-.9-1 .6.6 0 0 0-.3.3ZM685.2 47.1a.7.7 0 0 0 .9 1 .6.6 0 0 0 .3-.4.7.7 0 0 0-1-.9.6.6 0 0 0-.2.3ZM715 31.3a.7.7 0 0 0 1 .9.6.6 0 0 0 .3-.3.7.7 0 0 0-1-1 .6.6 0 0 0-.2.4ZM720.8 87.8a.7.7 0 0 0 1 1 .6.6 0 0 0 .2-.3.7.7 0 0 0-.9-1 .6.6 0 0 0-.3.3ZM803.5 106.1a.7.7 0 1 0 .3-.3.6.6 0 0 0-.3.3ZM797.8 46a.7.7 0 0 0 .9.9.6.6 0 0 0 .3-.3.7.7 0 0 0-1-1 .6.6 0 0 0-.2.4ZM836 50.6a.7.7 0 0 0 .9.9.6.6 0 0 0 .3-.3.7.7 0 0 0-1-1 .5.5 0 0 0-.2.4ZM802.8 41.3a.7.7 0 0 0 .9 1 .5.5 0 0 0 .3-.4.7.7 0 0 0-1-.9.6.6 0 0 0-.2.3ZM821.8 84.5a.7.7 0 0 0 1 .9.6.6 0 0 0 .2-.3.7.7 0 0 0-.9-.9.6.6 0 0 0-.3.3ZM842.1 213a.7.7 0 0 0 1 .9.6.6 0 0 0 .2-.3.7.7 0 0 0-.9-.9.6.6 0 0 0-.3.3ZM835 231a.7.7 0 0 0 .9 1 .6.6 0 0 0 .3-.3.7.7 0 0 0-1-1 .6.6 0 0 0-.2.3ZM856 295.3a.7.7 0 0 0 .9 1 .6.6 0 0 0 .3-.4.7.7 0 0 0-1-.9.6.6 0 0 0-.2.3ZM847.4 316.9a.7.7 0 0 0 .9.9.6.6 0 0 0 .3-.3.7.7 0 0 0-1-1 .6.6 0 0 0-.2.4ZM772.2 193.3a.7.7 0 0 0 .9 1 .5.5 0 0 0 .2-.4.7.7 0 0 0-.9-.9.6.6 0 0 0-.2.3ZM766.6 232.7a.7.7 0 0 0 1 1 .6.6 0 0 0 .2-.4.7.7 0 0 0-1-.9.6.6 0 0 0-.2.3ZM738.2 133.8a.7.7 0 0 0 .9 1 .6.6 0 0 0 .3-.4.7.7 0 0 0-1-.9.6.6 0 0 0-.2.3ZM660.9 71.7a.7.7 0 0 0 .9 1 .6.6 0 0 0 .3-.4.7.7 0 0 0-1.2-.6ZM552.3 48a.7.7 0 0 0 .9.9.6.6 0 0 0 .3-.3.7.7 0 0 0-1-1 .6.6 0 0 0-.2.4ZM559.7 64.4a.7.7 0 0 0 .9.9.6.6 0 0 0 .3-.3.7.7 0 0 0-1-1 .6.6 0 0 0-.2.4ZM539.1 114.1a.7.7 0 0 0 1 1 .6.6 0 0 0 .2-.4.7.7 0 0 0-.9-.9.6.6 0 0 0-.3.3ZM559.8 94.3a.7.7 0 0 0 .9.9.6.6 0 0 0 .3-.3.7.7 0 0 0-1-1 .6.6 0 0 0-.2.4ZM538 74.8a.7.7 0 0 0 1 1 .6.6 0 0 0 .3-.3.7.7 0 0 0-1-1 .6.6 0 0 0-.2.3ZM432.7 51.2a.7.7 0 0 0 1 .9.6.6 0 0 0 .2-.3.7.7 0 0 0-1.2-.6ZM486.2 80.6a.7.7 0 0 0 .9.9.6.6 0 0 0 .3-.3.7.7 0 1 0-1.2-.6ZM383.3 98.4a.7.7 0 0 0 1 1 .6.6 0 0 0 .2-.4.7.7 0 0 0-.9-.9.6.6 0 0 0-.3.3ZM388.5 137a.7.7 0 0 0 .9 1 .6.6 0 0 0 .3-.3.7.7 0 0 0-1-1 .6.6 0 0 0-.2.3ZM297.7 123.4a.7.7 0 0 0 1 1 .6.6 0 0 0 .2-.4.7.7 0 0 0-.9-.9.6.6 0 0 0-.3.3ZM354 49.8a.7.7 0 0 0 .8 1 .6.6 0 0 0 .3-.4.7.7 0 0 0-.9-.9.6.6 0 0 0-.3.3Z" />
        <ellipse cx="257.4" cy="80.5" rx=".6" ry=".7" transform="rotate(-45 305.4 25)" />
        <path
          d="M320.8 110.8a.7.7 0 0 0 1 1 .6.6 0 0 0 .2-.4.7.7 0 0 0-.9-.9.6.6 0 0 0-.3.3ZM336.6 127a.7.7 0 1 0 .2-.4.6.6 0 0 0-.2.3ZM350.3 86a.7.7 0 0 0 .9 1 .6.6 0 0 0 .3-.3.7.7 0 0 0-1-1 .6.6 0 0 0-.2.4ZM312.1 33.1a.7.7 0 0 0 1 1 .6.6 0 0 0 .2-.4.7.7 0 0 0-1.2-.6ZM228.8 56.1a.7.7 0 0 0 1 1 .6.6 0 0 0 .2-.3.7.7 0 0 0-1-1 .6.6 0 0 0-.2.3ZM232 60.7a.7.7 0 0 0 .8.9.6.6 0 0 0 .3-.3.7.7 0 0 0-.9-1 .6.6 0 0 0-.3.4ZM192 41.8a.7.7 0 0 0 .8 1 .6.6 0 0 0 .3-.4.7.7 0 1 0-1.2-.6ZM128.4 102a.7.7 0 0 0 .9 1 .6.6 0 0 0 .3-.4.7.7 0 0 0-1-.9.5.5 0 0 0-.2.3ZM185.2 125.1a.7.7 0 0 0 .9 1 .6.6 0 0 0 .3-.4.7.7 0 0 0-1-.9.6.6 0 0 0-.3.3ZM105.3 152.2a.7.7 0 0 0 .9 1 .6.6 0 0 0 .3-.4.7.7 0 0 0-1-.9.6.6 0 0 0-.2.3ZM100.5 178.8a.7.7 0 1 0 .3-.3.6.6 0 0 0-.3.3ZM149.8 38.3a.7.7 0 0 0 1 1 .6.6 0 0 0 .2-.4.7.7 0 0 0-.9-.9.6.6 0 0 0-.3.3ZM122.7 115a.7.7 0 0 0 1 1 .6.6 0 0 0 .2-.3.7.7 0 0 0-.9-1 .6.6 0 0 0-.3.3ZM128.1 134.5a.7.7 0 0 0 1 1 .6.6 0 0 0 .2-.3.7.7 0 0 0-.9-1 .6.6 0 0 0-.3.3ZM103.6 214.2a.7.7 0 0 0 .9.9.5.5 0 0 0 .3-.3.7.7 0 0 0-1-.9.6.6 0 0 0-.2.3ZM71.1 178.6a.7.7 0 0 0 1 .9.6.6 0 0 0 .2-.3.7.7 0 0 0-.9-1 .6.6 0 0 0-.3.4ZM59.7.4a.7.7 0 0 0 .9.9.6.6 0 0 0 .3-.3.7.7 0 0 0-1-1 .6.6 0 0 0-.2.4ZM38.1 43.6a.7.7 0 0 0 1 .9.6.6 0 0 0 .2-.3.7.7 0 0 0-.9-1 .6.6 0 0 0-.3.4ZM33.6 77.5a.7.7 0 0 0 1 .9.6.6 0 0 0 .2-.3.7.7 0 0 0-.9-1 .6.6 0 0 0-.3.4ZM26.8 56.4a.7.7 0 0 0 1 1 .6.6 0 0 0 .2-.4.7.7 0 0 0-.9-.9.6.6 0 0 0-.3.3ZM25.2 174.6a.7.7 0 0 0 1 .9.6.6 0 0 0 .2-.3.7.7 0 0 0-1-1 .6.6 0 0 0-.2.4ZM27.4 166a.7.7 0 0 0 .9.9.6.6 0 0 0 .3-.3.7.7 0 0 0-1-1 .6.6 0 0 0-.2.4ZM49.7 313.6a.7.7 0 0 0 1 1 .6.6 0 0 0 .2-.4.7.7 0 0 0-.9-.9.6.6 0 0 0-.3.3ZM61.7 275a.7.7 0 0 0 1 1 .6.6 0 0 0 .2-.3.7.7 0 0 0-.9-1 .6.6 0 0 0-.3.4ZM47.7 292.3a.7.7 0 0 0 1 .9.6.6 0 0 0 .2-.3.7.7 0 0 0-.9-1 .6.6 0 0 0-.3.4ZM0 352.7a.7.7 0 0 0 1 1 .6.6 0 0 0 .3-.3.7.7 0 0 0-1-1 .6.6 0 0 0-.2.3ZM.6 258.7a.7.7 0 0 0 .9.9.6.6 0 0 0 .3-.3.7.7 0 0 0-1-1 .7.7 0 0 0-.2.4ZM5.3 419.5a.7.7 0 0 0 .9.9.6.6 0 0 0 .3-.3.7.7 0 0 0-1-1 .6.6 0 0 0-.2.4ZM5 347.7a.7.7 0 0 0 1 1 .6.6 0 0 0 .2-.3.7.7 0 0 0-.9-1 .6.6 0 0 0-.3.3ZM35.2 463.8a.7.7 0 0 0 .9 1 .6.6 0 0 0 .3-.4.7.7 0 0 0-1-.9.6.6 0 0 0-.2.3ZM77.2 443a.7.7 0 0 0 1 .8.6.6 0 0 0 .2-.3.7.7 0 0 0-1.2-.6ZM128.8 339.3a.7.7 0 0 0 1 1 .6.6 0 0 0 .2-.4.7.7 0 0 0-.9-.9.6.6 0 0 0-.3.3ZM115 326.4a.7.7 0 0 0 .9.9.6.6 0 0 0 .2-.3.7.7 0 0 0-.9-1 .6.6 0 0 0-.3.4ZM80 353a.7.7 0 0 0 .9.8.6.6 0 0 0 .3-.2.7.7 0 1 0-1.2-.7ZM118.2 422a.7.7 0 0 0 1 1 .6.6 0 0 0 .2-.3.7.7 0 0 0-1-1 .6.6 0 0 0-.2.4ZM103.6 409.7a.7.7 0 0 0 1 1 .6.6 0 0 0 .2-.3.7.7 0 0 0-1-1 .6.6 0 0 0-.2.3ZM97.1 355.4a.7.7 0 1 0 .3-.3.6.6 0 0 0-.3.3ZM231.8 199.5a.7.7 0 0 0 .9 1 .6.6 0 0 0 .3-.4.7.7 0 0 0-1-.9.6.6 0 0 0-.3.3ZM222.6 210.8a.7.7 0 0 0 1 1 .6.6 0 0 0 .2-.3.7.7 0 0 0-.9-1 .6.6 0 0 0-.3.3ZM252.5 176.6a.7.7 0 0 0 .9.9.6.6 0 0 0 .3-.3.7.7 0 0 0-1-.9.6.6 0 0 0-.2.3ZM293.4 196.7a.7.7 0 0 0 .9 1 .6.6 0 0 0 .3-.3.7.7 0 0 0-1-1 .6.6 0 0 0-.3.3ZM250.9 272.7a.7.7 0 0 0 .9 1 .6.6 0 0 0 .3-.3.7.7 0 0 0-1-1 .6.6 0 0 0-.2.3ZM298.4 227a.7.7 0 0 0 1 .8.6.6 0 0 0 .2-.2.7.7 0 0 0-.9-1 .5.5 0 0 0-.3.3Z" />
        <ellipse cx="215.9" cy="207.1" rx=".6" ry=".7" transform="rotate(-45 264 151.7)" />
        <path
          d="M481.3 155.9a.7.7 0 0 0 .9.9.6.6 0 0 0 .3-.3.7.7 0 0 0-1-1 .6.6 0 0 0-.2.4ZM417.4 185.6a.7.7 0 1 0 .3-.3.6.6 0 0 0-.3.3ZM526.9 178a.7.7 0 0 0 1 .9.6.6 0 0 0 .2-.3.7.7 0 0 0-1-.9.6.6 0 0 0-.2.3ZM449.4 182.3a.7.7 0 1 0 .3-.3.6.6 0 0 0-.3.3ZM661.6 231.7a.7.7 0 0 0 .9 1 .6.6 0 0 0 .3-.4.7.7 0 0 0-1-.9.6.6 0 0 0-.2.3ZM629.4 242.2a.7.7 0 1 0 .3-.3.6.6 0 0 0-.3.3ZM697.8 254.4a.7.7 0 0 0 1 1 .6.6 0 0 0 .2-.3.7.7 0 0 0-.9-1 .6.6 0 0 0-.3.3ZM708.4 250.1a.7.7 0 0 0 1 1 .6.6 0 0 0 .2-.4.7.7 0 0 0-.9-.9.6.6 0 0 0-.3.3ZM747.3 300.4a.7.7 0 0 0 .9.9.6.6 0 0 0 .3-.3.7.7 0 0 0-1-1 .6.6 0 0 0-.2.4ZM752 387a.7.7 0 0 0 1 1 .6.6 0 0 0 .2-.4.7.7 0 0 0-.9-.9.6.6 0 0 0-.3.3ZM759.1 361.3a.7.7 0 0 0 1 .9.6.6 0 0 0 .2-.3.7.7 0 0 0-.9-1 .6.6 0 0 0-.3.4ZM808.3 449.4a.7.7 0 0 0 .9.9.6.6 0 0 0 .3-.3.7.7 0 0 0-1.2-.6ZM799.1 415a.7.7 0 0 0 1 1 .6.6 0 0 0 .2-.3.7.7 0 0 0-1.2-.7ZM800.5 463a.7.7 0 0 0 .9 1 .6.6 0 0 0 .3-.3.7.7 0 0 0-1-1 .6.6 0 0 0-.2.3ZM796.6 462.2a.7.7 0 0 0 .9 1 .6.6 0 0 0 .3-.3.7.7 0 0 0-1-1 .6.6 0 0 0-.2.3ZM646.3 436.5a.7.7 0 0 0 .9.9.6.6 0 0 0 .3-.3.7.7 0 0 0-1-1 .6.6 0 0 0-.2.4ZM645.4 430.1a.7.7 0 0 0 1 1 .6.6 0 0 0 .2-.3.7.7 0 0 0-.9-1 .6.6 0 0 0-.3.3ZM556.4 428.2a.7.7 0 0 0 .9.9.6.6 0 0 0 .3-.3.7.7 0 0 0-1-.9.6.6 0 0 0-.2.3ZM531.5 468.4a.7.7 0 0 0 .9 1 .5.5 0 0 0 .3-.4.7.7 0 0 0-1-.9.5.5 0 0 0-.2.3ZM625.5 473.9a.7.7 0 0 0 1 .9.6.6 0 0 0 .2-.3.7.7 0 0 0-.9-1 .6.6 0 0 0-.3.4ZM664.2 458.6a.7.7 0 0 0 1 .9.6.6 0 0 0 .2-.3.7.7 0 0 0-.9-1 .6.6 0 0 0-.3.4ZM618.7 416.7a.7.7 0 0 0 .9 1 .6.6 0 0 0 .3-.3.7.7 0 0 0-1-1 .6.6 0 0 0-.2.3ZM628 378.5a.7.7 0 0 0 .9.9.6.6 0 0 0 .3-.3.7.7 0 0 0-1-1 .6.6 0 0 0-.2.4ZM580.5 385a.7.7 0 0 0 1 1 .6.6 0 0 0 .2-.3.7.7 0 0 0-1-1 .6.6 0 0 0-.2.4ZM637.3 430a.7.7 0 0 0 .9 1 .6.6 0 0 0 .3-.3.7.7 0 0 0-1-1 .6.6 0 0 0-.2.3ZM691.5 399.8a.7.7 0 0 0 1 1 .6.6 0 0 0 .2-.3.7.7 0 1 0-1.2-.7ZM631.5 410a.7.7 0 0 0 1 1 .6.6 0 0 0 .2-.3.7.7 0 0 0-.9-1 .6.6 0 0 0-.3.3ZM689.6 374.3a.7.7 0 0 0 .9 1 .5.5 0 0 0 .2-.4.7.7 0 0 0-.9-.9.6.6 0 0 0-.2.3ZM641.2 311.5a.7.7 0 0 0 .9.9.5.5 0 0 0 .3-.3.7.7 0 0 0-1-1 .6.6 0 0 0-.2.4ZM621 346a.7.7 0 0 0 1 .9.6.6 0 0 0 .3-.3.7.7 0 0 0-1.2-.6ZM640 297.5a.7.7 0 0 0 1 1 .6.6 0 0 0 .2-.3.7.7 0 0 0-.9-1 .5.5 0 0 0-.3.3ZM682.2 370.7a.7.7 0 0 0 1 1 .6.6 0 0 0 .2-.3.7.7 0 0 0-.9-1 .6.6 0 0 0-.3.3ZM680.7 382.7a.7.7 0 0 0 1 .9.6.6 0 0 0 .2-.3.7.7 0 0 0-.9-1 .6.6 0 0 0-.3.4ZM674 352a.7.7 0 0 0 1 1 .6.6 0 0 0 .3-.3.7.7 0 0 0-1-1 .6.6 0 0 0-.2.3ZM670 351.9a.7.7 0 0 0 1 .9.6.6 0 0 0 .3-.3.7.7 0 0 0-1.2-.6ZM674.9 336.2a.7.7 0 0 0 1 .9.6.6 0 0 0 .2-.3.7.7 0 0 0-1-1 .6.6 0 0 0-.2.4ZM643.2 349.4a.7.7 0 0 0 1 1 .6.6 0 0 0 .2-.3.7.7 0 0 0-.9-1 .6.6 0 0 0-.3.3ZM654 335a.7.7 0 0 0 1 1 .6.6 0 0 0 .3-.4.7.7 0 0 0-1-.9.6.6 0 0 0-.2.3ZM680 342.3a.7.7 0 1 0 .4-.3.6.6 0 0 0-.3.3ZM723 363.7a.7.7 0 0 0 1 1 .6.6 0 0 0 .2-.3.7.7 0 0 0-.9-1 .6.6 0 0 0-.3.3ZM743.6 352a.7.7 0 0 0 1 1 .6.6 0 0 0 .2-.4.7.7 0 0 0-.9-.9.6.6 0 0 0-.3.3ZM745 332a.7.7 0 0 0 1 .9.6.6 0 0 0 .2-.3.7.7 0 0 0-.9-1 .6.6 0 0 0-.3.4ZM737.3 333.5a.7.7 0 0 0 .9 1 .6.6 0 0 0 .3-.4.7.7 0 0 0-1-.9.6.6 0 0 0-.2.3ZM756.6 332.4a.7.7 0 0 0 .9 1 .6.6 0 0 0 .3-.3.7.7 0 0 0-1-1 .6.6 0 0 0-.2.3ZM793.7 301a.7.7 0 0 0 1 1 .6.6 0 0 0 .2-.3.7.7 0 0 0-.9-1 .6.6 0 0 0-.3.3ZM797.4 295.6a.7.7 0 1 0 .3-.3.6.6 0 0 0-.3.3ZM814.7 325.6a.7.7 0 0 0 .9 1 .6.6 0 0 0 .3-.4.7.7 0 0 0-1-.9.5.5 0 0 0-.2.3ZM809.3 364a.7.7 0 0 0 .9 1 .6.6 0 0 0 .3-.3.7.7 0 0 0-1.2-.6ZM818 387.3a.7.7 0 0 0 .8.9.5.5 0 0 0 .3-.3.7.7 0 0 0-.9-.9.6.6 0 0 0-.3.3ZM727.3 443.1a.7.7 0 0 0 1 1 .6.6 0 0 0 .2-.3.7.7 0 1 0-1.2-.7ZM537 386.5a.7.7 0 0 0 1 .9.5.5 0 0 0 .2-.3.7.7 0 0 0-.9-1 .6.6 0 0 0-.3.4ZM480.4 339.6a.7.7 0 0 0 1 .9.6.6 0 0 0 .3-.3.7.7 0 0 0-1.2-.6ZM441.8 320a.7.7 0 0 0 .9.8.6.6 0 0 0 .3-.3.7.7 0 0 0-1-.9.6.6 0 0 0-.3.3ZM426.5 281.9a.7.7 0 0 0 1 .9.6.6 0 0 0 .2-.3.7.7 0 0 0-.9-1 .6.6 0 0 0-.3.4ZM425.2 252.3a.7.7 0 1 0 .3-.3.6.6 0 0 0-.3.3ZM406.1 273.1a.7.7 0 0 0 1 1 .6.6 0 0 0 .2-.4.7.7 0 0 0-1-.9.6.6 0 0 0-.2.3ZM480.6 260.9a.7.7 0 0 0 .9.9.6.6 0 0 0 .3-.3.7.7 0 0 0-1-1 .6.6 0 0 0-.2.4ZM555.4 251.8a.7.7 0 0 0 .9 1 .6.6 0 0 0 .3-.4.7.7 0 0 0-1-.9.6.6 0 0 0-.2.3ZM572.6 240.8a.7.7 0 0 0 1 1 .6.6 0 0 0 .2-.3.7.7 0 0 0-.9-1 .5.5 0 0 0-.3.3ZM590.6 198.9a.7.7 0 0 0 1 .9.6.6 0 0 0 .2-.3.7.7 0 0 0-.9-.9.6.6 0 0 0-.3.3ZM563.3 243.6a.7.7 0 0 0 .9 1 .6.6 0 0 0 .3-.4.7.7 0 0 0-1-.9.6.6 0 0 0-.2.3ZM538 291.6a.7.7 0 0 0 .9.9.6.6 0 0 0 .2-.3.7.7 0 1 0-1.2-.6ZM462.3 266.4a.7.7 0 0 0 1 1 .6.6 0 0 0 .2-.3.7.7 0 0 0-.9-1 .6.6 0 0 0-.3.3ZM393.5 233.3a.7.7 0 0 0 .9.9.6.6 0 0 0 .3-.3.7.7 0 0 0-1-.9.6.6 0 0 0-.2.3ZM342.7 254.8a.7.7 0 0 0 1 1 .6.6 0 0 0 .2-.3.7.7 0 0 0-.9-1 .6.6 0 0 0-.3.3ZM341.1 248a.7.7 0 0 0 1 .9.5.5 0 0 0 .2-.3.7.7 0 0 0-1-1 .6.6 0 0 0-.2.4ZM376.9 173.7a.7.7 0 0 0 .9 1 .6.6 0 0 0 .3-.4.7.7 0 0 0-1-.9.6.6 0 0 0-.2.3ZM360.1 153.9a.7.7 0 0 0 1 .9.6.6 0 0 0 .2-.3.7.7 0 0 0-1-1 .6.6 0 0 0-.2.4ZM260.9 228.5a.7.7 0 0 0 .9 1 .6.6 0 0 0 .3-.4.7.7 0 0 0-1-.9.6.6 0 0 0-.2.3ZM302.5 301.9a.7.7 0 0 0 1 1 .6.6 0 0 0 .2-.4.7.7 0 0 0-.9-.9.6.6 0 0 0-.3.3ZM371.7 341a.7.7 0 0 0 .9 1 .6.6 0 0 0 .3-.4.7.7 0 1 0-1.2-.6ZM358.7 301a.7.7 0 0 0 .9.8.6.6 0 0 0 .3-.3.7.7 0 0 0-1-.9.6.6 0 0 0-.2.3ZM315.5 322.7a.7.7 0 0 0 1 1 .6.6 0 0 0 .2-.3.7.7 0 0 0-.9-1 .6.6 0 0 0-.3.3ZM314.3 361.9a.7.7 0 1 0 .3-.3.6.6 0 0 0-.3.3ZM335 379.4a.7.7 0 0 0 .9 1 .6.6 0 0 0 .3-.3.7.7 0 0 0-1-1 .6.6 0 0 0-.2.3ZM344.6 405.4a.7.7 0 0 0 1 1 .6.6 0 0 0 .2-.4.7.7 0 0 0-.9-.9.6.6 0 0 0-.3.3ZM306.4 423.1a.7.7 0 0 0 .9 1 .6.6 0 0 0 .3-.3.7.7 0 0 0-1-1 .6.6 0 0 0-.3.3ZM269.7 343.2a.7.7 0 0 0 .9.9.6.6 0 0 0 .3-.3.7.7 0 0 0-1-.9.6.6 0 0 0-.2.3ZM254.7 347a.7.7 0 0 0 .9 1 .6.6 0 0 0 .3-.4.7.7 0 0 0-1-.9.6.6 0 0 0-.2.3Z" />
        <ellipse cx="149.9" cy="352.5" rx=".6" ry=".7" transform="rotate(-45 198 297)" />
        <path
          d="M178.5 383.4a.7.7 0 1 0 .3-.3.6.6 0 0 0-.3.3ZM216.2 395a.7.7 0 0 0 1 .8.6.6 0 0 0 .2-.3.7.7 0 0 0-.9-.9.6.6 0 0 0-.3.3ZM332.3 413.2a.7.7 0 0 0 1 .9.6.6 0 0 0 .2-.3.7.7 0 0 0-.9-1 .6.6 0 0 0-.3.4ZM317 420.6a.7.7 0 0 0 .8.9.6.6 0 0 0 .3-.3.7.7 0 0 0-.9-1 .6.6 0 0 0-.3.4ZM250.3 372.5a.7.7 0 1 0 .3-.3.6.6 0 0 0-.3.3ZM211.3 336.3a.7.7 0 1 0 .3-.2.6.6 0 0 0-.3.2ZM200.3 321.4a.7.7 0 0 0 1 .9.6.6 0 0 0 .2-.3.7.7 0 0 0-.9-.9.6.6 0 0 0-.3.3ZM234.3 259.4a.7.7 0 0 0 1 .9.6.6 0 0 0 .2-.3.7.7 0 0 0-.9-1 .6.6 0 0 0-.3.4ZM247.8 316.6a.7.7 0 0 0 .9 1 .6.6 0 0 0 .3-.4.7.7 0 1 0-1.2-.6ZM192.5 243a.7.7 0 0 0 1 .9.6.6 0 0 0 .2-.3.7.7 0 0 0-.9-1 .6.6 0 0 0-.3.4ZM187.9 249.3a.7.7 0 0 0 .9 1 .6.6 0 0 0 .3-.4.7.7 0 0 0-1-.9.6.6 0 0 0-.2.3ZM151.1 324.9a.7.7 0 0 0 1 1 .6.6 0 0 0 .2-.4.7.7 0 0 0-.9-.9.6.6 0 0 0-.3.3Z" />
        <ellipse cx="115.5" cy="312.5" rx=".6" ry=".7" transform="rotate(-45 163.5 257)" />
        <path
          d="M182.4 304.5a.7.7 0 0 0 .9.9.6.6 0 0 0 .3-.3.7.7 0 0 0-1-1 .6.6 0 0 0-.2.4ZM181.3 289.2a.7.7 0 0 0 .9 1 .6.6 0 0 0 .3-.3.7.7 0 0 0-1-1 .6.6 0 0 0-.2.3ZM156 283.6a.7.7 0 0 0 .8 1 .6.6 0 0 0 .3-.4.7.7 0 0 0-.9-.9.6.6 0 0 0-.3.3ZM131.1 364.4a.7.7 0 0 0 1 .9.6.6 0 0 0 .2-.3.7.7 0 0 0-1-1 .6.6 0 0 0-.2.4ZM148.8 414.2a.7.7 0 0 0 .9 1 .6.6 0 0 0 .3-.3.7.7 0 0 0-1-1 .6.6 0 0 0-.2.3ZM162.4 423a.7.7 0 0 0 1 1 .6.6 0 0 0 .2-.3.7.7 0 0 0-.9-1 .6.6 0 0 0-.3.4ZM188.4 444.7a.7.7 0 0 0 1 1 .6.6 0 0 0 .2-.3.7.7 0 0 0-.9-1 .6.6 0 0 0-.3.3ZM212 448a.7.7 0 0 0 .9 1 .6.6 0 0 0 .3-.3.7.7 0 0 0-1-1 .6.6 0 0 0-.2.4ZM219 453.9a.7.7 0 0 0 1 .9.6.6 0 0 0 .3-.3.7.7 0 0 0-1-1 .6.6 0 0 0-.2.4ZM226.9 474.5a.7.7 0 0 0 .9.9.6.6 0 0 0 .3-.3.7.7 0 0 0-1-1 .6.6 0 0 0-.2.4ZM256.3 489.5a.7.7 0 0 0 .9.9.6.6 0 0 0 .3-.3.7.7 0 0 0-1-.9.6.6 0 0 0-.2.3ZM269.9 501.5a.7.7 0 0 0 .9 1 .6.6 0 0 0 .3-.3.7.7 0 0 0-1-1 .6.6 0 0 0-.2.3ZM339.3 498.2a.7.7 0 0 0 1 1 .6.6 0 0 0 .2-.4.7.7 0 0 0-.9-.9.6.6 0 0 0-.3.3ZM407.9 499.6a.7.7 0 0 0 .9 1 .6.6 0 0 0 .3-.4.7.7 0 0 0-1-.9.6.6 0 0 0-.2.3ZM457.6 509.1a.7.7 0 0 0 .9 1 .6.6 0 0 0 .3-.4.7.7 0 0 0-1-.9.6.6 0 0 0-.2.3ZM495.8 514a.7.7 0 0 0 .9 1 .6.6 0 0 0 .3-.4.7.7 0 0 0-1-.9.6.6 0 0 0-.2.3ZM543.4 516.4a.7.7 0 0 0 .9 1 .6.6 0 0 0 .3-.4.7.7 0 0 0-1-.9.6.6 0 0 0-.2.3ZM602.8 516.4a.7.7 0 0 0 1 .9.6.6 0 0 0 .2-.3.7.7 0 0 0-.9-.9.6.6 0 0 0-.3.3ZM648.3 518.6a.7.7 0 0 0 .9 1 .6.6 0 0 0 .3-.4.7.7 0 0 0-1-.9.5.5 0 0 0-.2.3ZM737.3 515.6a.7.7 0 0 0 1 .9.6.6 0 0 0 .2-.3.7.7 0 0 0-.9-1 .6.6 0 0 0-.3.4ZM776.1 516.1a.7.7 0 0 0 1 1 .6.6 0 0 0 .2-.3.7.7 0 0 0-.9-1 .6.6 0 0 0-.3.4ZM803.7 515.9a.7.7 0 0 0 1 .9.6.6 0 0 0 .2-.3.7.7 0 0 0-.9-1 .6.6 0 0 0-.3.4Z" />
        <ellipse cx="773" cy="483.6" rx=".6" ry=".7" transform="rotate(-45 821 428.2)" />
        <path
          d="M849.2 438.7a.7.7 0 0 0 1 1 .6.6 0 0 0 .2-.3.7.7 0 0 0-.9-1 .6.6 0 0 0-.3.3ZM849.6 414.3a.7.7 0 0 0 .9.9.6.6 0 0 0 .3-.3.7.7 0 0 0-1-1 .6.6 0 0 0-.2.4ZM738.2 378.6a.7.7 0 0 0 1 1 .6.6 0 0 0 .2-.4.7.7 0 0 0-1.2-.6ZM549.6 435.2a.7.7 0 0 0 .9 1 .6.6 0 0 0 .3-.4.7.7 0 0 0-1-.9.6.6 0 0 0-.2.3ZM488.6 452.7a.7.7 0 1 0 .2-.3.6.6 0 0 0-.2.3ZM454.5 421.6a.7.7 0 0 0 1 1 .6.6 0 0 0 .2-.3.7.7 0 0 0-.9-1 .5.5 0 0 0-.3.3ZM562.3 480.8a.7.7 0 0 0 .9.9.6.6 0 0 0 .3-.3.7.7 0 0 0-1-1 .6.6 0 0 0-.2.4ZM587.1 420.3a.7.7 0 0 0 1 .9.6.6 0 0 0 .2-.3.7.7 0 0 0-1-.9.6.6 0 0 0-.2.3ZM476.7 352.6a.7.7 0 0 0 1 1 .6.6 0 0 0 .2-.3.7.7 0 0 0-.9-1 .6.6 0 0 0-.3.3ZM437.5 408a.7.7 0 0 0 1 1 .6.6 0 0 0 .2-.3.7.7 0 1 0-1.2-.6ZM540 330.9a.7.7 0 0 0 .9.9.6.6 0 0 0 .3-.3.7.7 0 0 0-1-1 .6.6 0 0 0-.2.4ZM553.9 362a.7.7 0 1 0 .3-.3.6.6 0 0 0-.3.3ZM587 345.8a.7.7 0 0 0 1 1 .6.6 0 0 0 .2-.4.7.7 0 0 0-.9-.9.6.6 0 0 0-.3.3ZM523.5 303.7a.7.7 0 0 0 1 1 .6.6 0 0 0 .2-.3.7.7 0 0 0-.9-1 .6.6 0 0 0-.3.3ZM470 259.2a.7.7 0 0 0 1 1 .6.6 0 0 0 .2-.4.7.7 0 0 0-.9-.9.6.6 0 0 0-.3.3ZM453.5 202.6a.7.7 0 0 0 1 .9.6.6 0 0 0 .2-.3.7.7 0 0 0-.9-1 .6.6 0 0 0-.3.4ZM470 213.7a.7.7 0 0 0 .9 1 .6.6 0 0 0 .3-.4.7.7 0 0 0-1-.9.6.6 0 0 0-.2.3ZM506.3 230.4a.7.7 0 0 0 .9.9.6.6 0 0 0 .3-.3.7.7 0 0 0-1-.9.6.6 0 0 0-.2.3ZM510.1 246.3a.7.7 0 0 0 1 1 .6.6 0 0 0 .2-.3.7.7 0 0 0-.9-1 .6.6 0 0 0-.3.3ZM516.4 260.1a.7.7 0 0 0 .9 1 .6.6 0 0 0 .3-.4.7.7 0 0 0-1-.9.6.6 0 0 0-.2.3ZM516 217.1a.7.7 0 1 0 .3-.3.6.6 0 0 0-.3.3ZM508 196a.7.7 0 0 0 .9.9.6.6 0 0 0 .3-.3.7.7 0 0 0-1-1 .6.6 0 0 0-.3.4ZM492.3 184a.7.7 0 0 0 1 .9.6.6 0 0 0 .2-.3.7.7 0 0 0-.9-1 .6.6 0 0 0-.3.4ZM480.4 165a.7.7 0 0 0 .9 1 .6.6 0 0 0 .3-.3.7.7 0 0 0-1-1 .6.6 0 0 0-.2.4ZM537.3 145.6a.7.7 0 1 0 .3-.3.6.6 0 0 0-.3.3ZM458 143a.7.7 0 0 0 .8.8.6.6 0 0 0 .3-.3.7.7 0 0 0-.9-.9.6.6 0 0 0-.3.3ZM446 139.2a.7.7 0 0 0 1 1 .6.6 0 0 0 .3-.4.7.7 0 0 0-1-.9.6.6 0 0 0-.2.3ZM386.6 156.4a.7.7 0 0 0 1 .9.6.6 0 0 0 .2-.3.7.7 0 0 0-.9-1 .6.6 0 0 0-.3.4ZM356 205.4a.7.7 0 0 0 .8 1 .5.5 0 0 0 .3-.3.7.7 0 0 0-.9-1 .6.6 0 0 0-.3.3ZM346.9 197.4a.7.7 0 0 0 .9 1 .6.6 0 0 0 .3-.4.7.7 0 0 0-1-.9.6.6 0 0 0-.2.3ZM297.3 158.9a.7.7 0 0 0 1 .9.6.6 0 0 0 .2-.3.7.7 0 0 0-.9-.9.6.6 0 0 0-.3.3ZM237.3 127.9a.7.7 0 0 0 .9 1 .6.6 0 0 0 .3-.4.7.7 0 0 0-1-.9.6.6 0 0 0-.2.3Z" />
        <ellipse cx="186" cy="78.9" rx=".6" ry=".7" transform="rotate(-45 234 23.5)" />
        <path
          d="M177 165a.7.7 0 0 0 .8.9.6.6 0 0 0 .3-.3.7.7 0 0 0-.9-1 .6.6 0 0 0-.3.4ZM164 174.6a.7.7 0 0 0 .8.9.6.6 0 0 0 .3-.3.7.7 0 0 0-.9-1 .6.6 0 0 0-.3.4ZM140.3 148.7a.7.7 0 0 0 1 .9.6.6 0 0 0 .2-.3.7.7 0 0 0-.9-1 .6.6 0 0 0-.3.4ZM168.3 125.7a.7.7 0 0 0 1 1 .6.6 0 0 0 .2-.4.7.7 0 0 0-.9-.9.6.6 0 0 0-.3.3ZM146.3 80.6a.7.7 0 0 0 .9 1 .6.6 0 0 0 .3-.4.7.7 0 1 0-1.2-.6ZM72 100.3a.7.7 0 0 0 1 .9.6.6 0 0 0 .2-.3.7.7 0 0 0-.9-1 .6.6 0 0 0-.3.4Z" />
        <ellipse cx="20.5" cy="98.9" rx=".6" ry=".7" transform="rotate(-45 68.5 43.5)" />
        <ellipse cx="-44" cy="203.4" rx=".6" ry=".7" transform="rotate(-45 4 148)" />
        <path
          d="M27.4 260.8a.7.7 0 0 0 .9 1 .6.6 0 0 0 .3-.4.7.7 0 0 0-1-.9.6.6 0 0 0-.2.3ZM44.1 240a.7.7 0 0 0 1 .8.6.6 0 0 0 .2-.3.7.7 0 0 0-.9-.9.6.6 0 0 0-.3.3ZM23.9 317.2a.7.7 0 0 0 .9 1 .6.6 0 0 0 .3-.4.7.7 0 0 0-1-.9.6.6 0 0 0-.2.3ZM13.8 369.6a.7.7 0 0 0 1 .9.6.6 0 0 0 .2-.3.7.7 0 0 0-.9-1 .6.6 0 0 0-.3.4ZM30.6 391.4a.7.7 0 0 0 .9 1 .6.6 0 0 0 .3-.3.7.7 0 0 0-1-1 .6.6 0 0 0-.2.3ZM49.7 359.1a.7.7 0 0 0 .9 1 .6.6 0 0 0 .3-.4.7.7 0 0 0-1-.9.5.5 0 0 0-.2.3ZM49.5 354.5a.7.7 0 0 0 .9 1 .6.6 0 0 0 .3-.3.7.7 0 0 0-1-1 .5.5 0 0 0-.2.3ZM91.7 442.1a.7.7 0 0 0 1 1 .6.6 0 0 0 .2-.4.7.7 0 0 0-.9-.9.6.6 0 0 0-.3.3ZM56.7 458.8a.7.7 0 1 0 .3-.3.6.6 0 0 0-.3.3ZM50.3 435.4a.7.7 0 0 0 .9 1 .6.6 0 0 0 .3-.3.7.7 0 0 0-1-1 .6.6 0 0 0-.2.3ZM181 469.6a.7.7 0 0 0 1 1 .6.6 0 0 0 .2-.4.7.7 0 0 0-1-.9.6.6 0 0 0-.2.3ZM166.7 451.2a.7.7 0 0 0 .9.9.6.6 0 0 0 .3-.3.7.7 0 0 0-1-1 .6.6 0 0 0-.2.4ZM125.2 450.4a.7.7 0 0 0 .9.9.6.6 0 0 0 .3-.3.7.7 0 0 0-1-1 .6.6 0 0 0-.2.4ZM130 452.9a.7.7 0 1 0 .3-.3.6.6 0 0 0-.3.3ZM262.2 423.5a.7.7 0 0 0 1 1 .6.6 0 0 0 .2-.3.7.7 0 0 0-1-1 .5.5 0 0 0-.2.3ZM298 393.5a.7.7 0 0 0 .8 1 .6.6 0 0 0 .3-.3.7.7 0 0 0-.9-1 .6.6 0 0 0-.3.3ZM312.3 386.4a.7.7 0 0 0 .9.9.6.6 0 0 0 .3-.3.7.7 0 0 0-1-1 .6.6 0 0 0-.2.4Z" />
        <ellipse cx="255" cy="361.4" rx=".6" ry=".7" transform="rotate(-45 303 306)" />
        <path
          d="M377.2 394.5a.7.7 0 0 0 .9.9.6.6 0 0 0 .3-.3.7.7 0 0 0-1-1 .6.6 0 0 0-.2.4ZM382.8 428.4a.7.7 0 0 0 1 1 .6.6 0 0 0 .2-.4.7.7 0 0 0-1.1-.6ZM384 450.9a.7.7 0 0 0 .9.9.6.6 0 0 0 .3-.3.7.7 0 1 0-1.2-.6ZM406.7 439.5a.7.7 0 0 0 1 1 .6.6 0 0 0 .2-.4.7.7 0 0 0-.9-.9.6.6 0 0 0-.3.3ZM439.2 351.1a.7.7 0 0 0 .9 1 .6.6 0 0 0 .2-.4.7.7 0 0 0-.9-.9.6.6 0 0 0-.2.3ZM443 335a.7.7 0 0 0 1 .9.6.6 0 0 0 .3-.3.7.7 0 0 0-1-1 .6.6 0 0 0-.2.4Z" />
        <g opacity=".3" style="mix-blend-mode:color-dodge">
          <path
            d="M86.4 60.8a.7.7 0 0 1-.9.9.5.5 0 0 1-.3-.3.7.7 0 0 1 1-.9.6.6 0 0 1 .2.3ZM219.3 64.2a.7.7 0 0 1-1 1 .6.6 0 0 1-.2-.4.7.7 0 0 1 1.2-.6ZM240.3 77a.7.7 0 0 1-1 1 .6.6 0 0 1-.2-.4.7.7 0 0 1 .9-.9.6.6 0 0 1 .3.3ZM243.6 62.7a.7.7 0 0 1-.9 1 .6.6 0 0 1-.3-.4.7.7 0 0 1 1-.9.6.6 0 0 1 .2.3ZM270.3 31.8a.7.7 0 0 1-1 1 .6.6 0 0 1-.2-.4.7.7 0 0 1 .9-.9.6.6 0 0 1 .3.3ZM339.5 35a.7.7 0 0 1-.9.8.6.6 0 0 1-.3-.2.7.7 0 1 1 1.2-.7ZM351.6 94a.7.7 0 0 1-1 .8.6.6 0 0 1-.2-.2.7.7 0 0 1 .9-1 .6.6 0 0 1 .3.3ZM290.7 122a.7.7 0 0 1-1 .8.6.6 0 0 1-.2-.2.7.7 0 0 1 .9-1 .6.6 0 0 1 .3.3ZM158.6 139.9a.7.7 0 0 1-.9 1 .6.6 0 0 1-.3-.4.7.7 0 0 1 1-.9.6.6 0 0 1 .2.3ZM138.9 123.7a.7.7 0 0 1-1 1 .6.6 0 0 1-.2-.4.7.7 0 1 1 1.2-.6ZM102.2 84.8a.7.7 0 1 1-.3-.3.6.6 0 0 1 .3.3ZM90.4 70.5a.7.7 0 0 1-1 .9.6.6 0 0 1-.2-.3.7.7 0 1 1 1.2-.6ZM62.1 145.2a.7.7 0 0 1-1 .9.6.6 0 0 1-.2-.3.7.7 0 0 1 1-1 .6.6 0 0 1 .2.4ZM68.8 150a.7.7 0 0 1-1 1 .6.6 0 0 1-.2-.3.7.7 0 0 1 .9-.9.5.5 0 0 1 .3.3ZM51 139a.7.7 0 0 1-.8.8.6.6 0 0 1-.3-.2.7.7 0 0 1 .9-1 .6.6 0 0 1 .3.3ZM118.8 277.4a.7.7 0 0 1-1 1 .6.6 0 0 1-.2-.4.7.7 0 0 1 .9-.9.6.6 0 0 1 .3.3ZM122.7 251.4a.7.7 0 0 1-1 1 .6.6 0 0 1-.2-.3.7.7 0 0 1 .9-1 .6.6 0 0 1 .3.3ZM151 259.5a.7.7 0 0 1-1 1 .6.6 0 0 1-.3-.3.7.7 0 0 1 1-1 .6.6 0 0 1 .2.3ZM223.4 217.3a.7.7 0 0 1-.9 1 .6.6 0 0 1-.3-.4.7.7 0 0 1 1-.9.6.6 0 0 1 .2.3ZM193.3 185.6a.7.7 0 0 1-1 .9.6.6 0 0 1-.2-.3.7.7 0 0 1 .9-.9.6.6 0 0 1 .3.3Z" />
          <ellipse cx="143.7" cy="165.9" rx=".7" ry=".6" transform="rotate(-45 191.7 110.5)" />
          <path
            d="M469.7 74.4a.7.7 0 0 1-1 .9.6.6 0 0 1-.2-.3.7.7 0 0 1 .9-1 .6.6 0 0 1 .3.4ZM585.3 66a.7.7 0 0 1-.9 1 .6.6 0 0 1-.3-.4.7.7 0 0 1 1-.9.6.6 0 0 1 .2.3ZM655.5 86.7a.7.7 0 0 1-1 .9.5.5 0 0 1-.2-.3.7.7 0 0 1 .9-1 .6.6 0 0 1 .3.4ZM653.5 118a.7.7 0 0 1-.9.8.6.6 0 0 1-.3-.2.7.7 0 0 1 1-1 .6.6 0 0 1 .2.3ZM674.4 116.5a.7.7 0 0 1-.9 1 .6.6 0 0 1-.3-.4.7.7 0 0 1 1-.9.6.6 0 0 1 .2.3Z" />
          <ellipse cx="620.6" cy="90.6" rx=".7" ry=".6" transform="rotate(-45 668.6 35.2)" />
          <ellipse cx="631.9" cy="43.5" rx=".7" ry=".6" transform="rotate(-45 680 -12)" />
          <path
            d="M712 52a.7.7 0 1 1-.3-.4.6.6 0 0 1 .3.3ZM771.1 84.8a.7.7 0 0 1-.8 1 .5.5 0 0 1-.3-.4.7.7 0 0 1 .9-.9.6.6 0 0 1 .2.3ZM784.8 137.1a.7.7 0 0 1-1 1 .6.6 0 0 1-.2-.3.7.7 0 0 1 1.2-.7ZM770.9 181.7a.7.7 0 0 1-1 1 .6.6 0 0 1-.2-.4.7.7 0 0 1 .9-.9.6.6 0 0 1 .3.3ZM714.8 201.4a.7.7 0 0 1-1 .9.6.6 0 0 1-.2-.3.7.7 0 0 1 .9-1 .6.6 0 0 1 .3.4ZM709.8 217.3a.7.7 0 0 1-1 .9.6.6 0 0 1-.2-.3.7.7 0 0 1 .9-1 .6.6 0 0 1 .3.4ZM777.4 260.4a.7.7 0 1 1-.3-.3.6.6 0 0 1 .3.3ZM787 264.6a.7.7 0 0 1-.9 1 .6.6 0 0 1-.2-.4.7.7 0 0 1 .9-.9.6.6 0 0 1 .3.3ZM690.4 204.3a.7.7 0 0 1-1 1 .6.6 0 0 1-.2-.4.7.7 0 0 1 .9-.9.6.6 0 0 1 .3.3ZM704.7 239.3a.7.7 0 1 1-.3-.3.6.6 0 0 1 .3.3ZM712 252.7a.7.7 0 1 1-.3-.3.6.6 0 0 1 .3.3ZM737.6 277a.7.7 0 0 1-1 1 .6.6 0 0 1-.2-.4.7.7 0 0 1 .9-.9.6.6 0 0 1 .3.3ZM745.1 278.6a.7.7 0 0 1-.9 1 .6.6 0 0 1-.3-.4.7.7 0 0 1 1-.9.6.6 0 0 1 .2.3ZM761 264.9a.7.7 0 0 1-1 1 .6.6 0 0 1-.3-.4.7.7 0 0 1 1-.9.6.6 0 0 1 .2.3ZM791 230.8a.7.7 0 0 1-.9.9.6.6 0 0 1-.3-.3.7.7 0 0 1 1-.9.6.6 0 0 1 .2.3ZM801 211.3a.7.7 0 0 1-.9.9.6.6 0 0 1-.3-.3.7.7 0 0 1 1-1 .6.6 0 0 1 .2.4ZM764.1 284.8a.7.7 0 0 1-1 1 .6.6 0 0 1-.2-.3.7.7 0 0 1 1-1 .6.6 0 0 1 .2.3Z" />
          <ellipse cx="701.7" cy="286.3" rx=".7" ry=".6" transform="rotate(-45 749.8 230.9)" />
          <path
            d="M735.5 324.3a.7.7 0 0 1-.9 1 .6.6 0 0 1-.3-.3.7.7 0 0 1 1-1 .6.6 0 0 1 .3.3ZM766 344.5a.7.7 0 0 1-.8.9.6.6 0 0 1-.3-.3.7.7 0 0 1 .9-1 .6.6 0 0 1 .3.4ZM788.8 321.2a.7.7 0 0 1-1 .9.6.6 0 0 1-.2-.3.7.7 0 0 1 .9-.9.6.6 0 0 1 .3.3ZM786.8 251.4a.7.7 0 0 1-1 1 .6.6 0 0 1-.2-.3.7.7 0 0 1 .9-1 .6.6 0 0 1 .3.3ZM796 199a.7.7 0 0 1-1 1 .6.6 0 0 1-.3-.4.7.7 0 0 1 1-.9.6.6 0 0 1 .2.3ZM804.2 145.4a.7.7 0 0 1-1 .9.6.6 0 0 1-.2-.3.7.7 0 0 1 .9-1 .6.6 0 0 1 .3.4ZM810.7 98.7a.7.7 0 0 1-1 1 .6.6 0 0 1-.2-.4.7.7 0 0 1 .9-.9.6.6 0 0 1 .3.3ZM776.7 54.6a.7.7 0 1 1-.3-.3.6.6 0 0 1 .3.3ZM635.8 59.7a.7.7 0 0 1-1 1 .6.6 0 0 1-.2-.4.7.7 0 0 1 .9-.9.6.6 0 0 1 .3.3ZM587.9 81a.7.7 0 0 1-1 1 .6.6 0 0 1-.2-.3.7.7 0 0 1 .9-1 .6.6 0 0 1 .3.4ZM506 61.8a.7.7 0 1 1-.4-.2.6.6 0 0 1 .3.2ZM449.1 49.5a.7.7 0 1 1-.3-.2.6.6 0 0 1 .3.3ZM420.6 48.7a.7.7 0 0 1-.9.9.6.6 0 0 1-.3-.3.7.7 0 0 1 1-1 .6.6 0 0 1 .2.4ZM375 72a.7.7 0 0 1-.8 1 .6.6 0 0 1-.3-.3.7.7 0 1 1 1.2-.6ZM408 113.3a.7.7 0 0 1-.8 1 .6.6 0 0 1-.3-.4.7.7 0 0 1 .9-.9.6.6 0 0 1 .3.3ZM403 118.3a.7.7 0 0 1-.8.9.6.6 0 0 1-.3-.3.7.7 0 0 1 .9-.9.6.6 0 0 1 .3.3ZM309 114.7a.7.7 0 0 1-.9.9.6.6 0 0 1-.3-.3.7.7 0 0 1 1-1 .6.6 0 0 1 .3.4ZM286.6 125.4a.7.7 0 0 1-.9.9.5.5 0 0 1-.3-.3.7.7 0 0 1 1-1 .5.5 0 0 1 .2.4ZM122.7 204.6a.7.7 0 0 1-.9.9.6.6 0 0 1-.3-.3.7.7 0 0 1 1-1 .6.6 0 0 1 .2.4ZM92.1 199.2a.7.7 0 0 1-.9 1 .6.6 0 0 1-.3-.4.7.7 0 0 1 1-.9.6.6 0 0 1 .2.3ZM58.2 180.9a.7.7 0 0 1-1 1 .6.6 0 0 1-.2-.4.7.7 0 0 1 .9-.9.6.6 0 0 1 .3.3ZM54.8 126.8a.7.7 0 0 1-1 1 .5.5 0 0 1-.2-.4.7.7 0 0 1 .9-.9.6.6 0 0 1 .3.3ZM54.5 79.2a.7.7 0 0 1-.9 1 .6.6 0 0 1-.3-.4.7.7 0 0 1 1-.9.6.6 0 0 1 .2.3ZM50.3 71.4a.7.7 0 0 1-1 .9.6.6 0 0 1-.2-.3.7.7 0 0 1 .9-1 .6.6 0 0 1 .3.4ZM174.3 180.7a.7.7 0 0 1-1 1 .6.6 0 0 1-.2-.3.7.7 0 0 1 .9-1 .6.6 0 0 1 .3.3ZM333.7 211.4a.7.7 0 0 1-1 1 .6.6 0 0 1-.2-.3.7.7 0 0 1 .9-1 .6.6 0 0 1 .3.3ZM399.9 215.4a.7.7 0 0 1-1 1 .6.6 0 0 1-.2-.4.7.7 0 0 1 .9-.9.6.6 0 0 1 .3.3ZM472.5 219.3a.7.7 0 0 1-.9.9.6.6 0 0 1-.3-.3.7.7 0 0 1 1-1 .5.5 0 0 1 .2.4ZM544.8 212.3a.7.7 0 0 1-.9 1 .6.6 0 0 1-.3-.4.7.7 0 0 1 1-.9.6.6 0 0 1 .2.3ZM569.7 235.7a.7.7 0 0 1-.9.9.6.6 0 0 1-.3-.3.7.7 0 0 1 1-1 .6.6 0 0 1 .2.4ZM591.4 283.2a.7.7 0 1 1-.3-.2.5.5 0 0 1 .3.2ZM587.9 298a.7.7 0 1 1-.3-.2.6.6 0 0 1 .3.3ZM383 306.4a.7.7 0 0 1-.9.9.6.6 0 0 1-.3-.3.7.7 0 0 1 1-.9.6.6 0 0 1 .2.3ZM320.1 308.4a.7.7 0 0 1-.9.9.6.6 0 0 1-.3-.3.7.7 0 0 1 1-1 .6.6 0 0 1 .2.4ZM290.2 310a.7.7 0 0 1-1 1 .6.6 0 0 1-.2-.4.7.7 0 0 1 1-.9.6.6 0 0 1 .2.3ZM186.6 217.4a.7.7 0 1 1-.3-.3.6.6 0 0 1 .3.3ZM200.9 254.5a.7.7 0 0 1-1 1 .6.6 0 0 1-.2-.4.7.7 0 0 1 1-.9.6.6 0 0 1 .2.3ZM245.4 279.4a.7.7 0 0 1-1 1 .6.6 0 0 1-.2-.3.7.7 0 0 1 .9-1 .6.6 0 0 1 .3.3ZM291.9 290.4a.7.7 0 0 1-1 .9.6.6 0 0 1-.2-.3.7.7 0 0 1 .9-1 .6.6 0 0 1 .3.4ZM327.4 303.2a.7.7 0 0 1-.9 1 .6.6 0 0 1-.3-.4.7.7 0 0 1 1-.9.6.6 0 0 1 .2.3ZM336.5 345a.7.7 0 0 1-.9.8.6.6 0 0 1-.3-.2.7.7 0 0 1 1-1 .6.6 0 0 1 .2.3ZM362.3 368.1a.7.7 0 0 1-1 1 .6.6 0 0 1-.2-.3.7.7 0 0 1 .9-1 .6.6 0 0 1 .3.3ZM418.4 383.6a.7.7 0 0 1-1 1 .6.6 0 0 1-.2-.3.7.7 0 0 1 .9-1 .6.6 0 0 1 .3.3ZM439.7 394.2a.7.7 0 0 1-1 1 .5.5 0 0 1-.2-.4.7.7 0 0 1 .9-.9.6.6 0 0 1 .3.3ZM481 359a.7.7 0 0 1-1 .8.6.6 0 0 1-.2-.3.7.7 0 0 1 1.2-.6ZM472 333.5a.7.7 0 0 1-1 1 .6.6 0 0 1-.3-.3.7.7 0 0 1 1-1 .6.6 0 0 1 .3.3ZM475.8 313.7a.7.7 0 0 1-.9 1 .6.6 0 0 1-.3-.3.7.7 0 0 1 1-1 .6.6 0 0 1 .2.3ZM483 281.7a.7.7 0 0 1-1 1 .6.6 0 0 1-.2-.3.7.7 0 0 1 .9-1 .6.6 0 0 1 .3.3ZM367.7 277.3a.7.7 0 0 1-.9.9.6.6 0 0 1-.3-.3.7.7 0 0 1 1-1 .6.6 0 0 1 .2.4ZM402.6 362.7a.7.7 0 0 1-.9.9.5.5 0 0 1-.3-.3.7.7 0 0 1 1-1 .6.6 0 0 1 .2.4ZM279.7 390.2a.7.7 0 0 1-1 .9.6.6 0 0 1-.2-.3.7.7 0 0 1 .9-1 .6.6 0 0 1 .3.4ZM163.3 379.1a.7.7 0 0 1-1 1 .6.6 0 0 1-.2-.4.7.7 0 0 1 .9-.9.6.6 0 0 1 .3.3ZM217.3 268.8a.7.7 0 0 1-1 1 .6.6 0 0 1-.2-.4.7.7 0 0 1 .9-.9.5.5 0 0 1 .3.3ZM151.1 303.7a.7.7 0 1 1-.3-.3.6.6 0 0 1 .3.3ZM151.3 384.3a.7.7 0 1 1-.3-.3.6.6 0 0 1 .3.3ZM120.5 373.5a.7.7 0 0 1-1 .9.6.6 0 0 1-.2-.3.7.7 0 0 1 .9-1 .6.6 0 0 1 .3.4ZM122.9 382.3a.7.7 0 0 1-1 1 .6.6 0 0 1-.2-.4.7.7 0 0 1 .9-.9.6.6 0 0 1 .3.3ZM153 320.1a.7.7 0 0 1-1 1 .6.6 0 0 1-.2-.4.7.7 0 0 1 .9-.9.6.6 0 0 1 .3.3ZM108 403.4a.7.7 0 1 1-.2-.3.6.6 0 0 1 .3.3ZM118.3 412.6a.7.7 0 0 1-.9.9.6.6 0 0 1-.3-.3.7.7 0 0 1 1-.9.6.6 0 0 1 .2.3ZM81.7 253.2a.7.7 0 0 1-.9 1 .6.6 0 0 1-.3-.4.7.7 0 0 1 1-.9.6.6 0 0 1 .2.3ZM92.7 221.4a.7.7 0 0 1-.9 1 .6.6 0 0 1-.3-.3.7.7 0 0 1 1-1 .6.6 0 0 1 .2.3ZM84.4 327a.7.7 0 0 1-.9 1 .6.6 0 0 1-.3-.3.7.7 0 0 1 1-.9.6.6 0 0 1 .2.3ZM91 426a.7.7 0 0 1-.8 1 .6.6 0 0 1-.3-.4.7.7 0 0 1 .9-.9.6.6 0 0 1 .3.3ZM122 461.9a.7.7 0 1 1-.3-.3.6.6 0 0 1 .3.3ZM233.8 369.3a.7.7 0 0 1-1 .9.6.6 0 0 1-.2-.3.7.7 0 0 1 .9-1 .6.6 0 0 1 .3.4ZM241.6 349.9a.7.7 0 0 1-.9.9.6.6 0 0 1-.3-.3.7.7 0 0 1 1-1 .6.6 0 0 1 .2.4ZM199 443a.7.7 0 0 1-1 1 .5.5 0 0 1-.3-.3.7.7 0 0 1 1-1 .6.6 0 0 1 .2.4ZM143.8 467.3a.7.7 0 0 1-1 1 .6.6 0 0 1-.2-.4.7.7 0 0 1 1.2-.6ZM106.5 484.2a.7.7 0 0 1-.9.9.6.6 0 0 1-.3-.3.7.7 0 0 1 1-1 .6.6 0 0 1 .2.4ZM170 476.4a.7.7 0 0 1-.9.9.6.6 0 0 1-.3-.3.7.7 0 1 1 1.2-.6ZM273.6 446.3a.7.7 0 0 1-.9.9.6.6 0 0 1-.3-.3.7.7 0 0 1 1-1 .6.6 0 0 1 .2.4ZM264.7 469.4a.7.7 0 0 1-.9 1 .5.5 0 0 1-.3-.3.7.7 0 0 1 1-1 .6.6 0 0 1 .2.3ZM192.2 279.2a.7.7 0 0 1-1 1 .6.6 0 0 1-.2-.4.7.7 0 0 1 .9-.9.6.6 0 0 1 .3.3ZM250.8 304.7a.7.7 0 0 1-1 1 .6.6 0 0 1-.2-.3.7.7 0 0 1 .9-1 .6.6 0 0 1 .3.3ZM182.9 290.3a.7.7 0 0 1-1 1 .6.6 0 0 1-.2-.4.7.7 0 0 1 .9-.9.6.6 0 0 1 .3.3ZM74.4 267.5a.7.7 0 0 1-1 1 .6.6 0 0 1-.2-.4.7.7 0 0 1 .9-.9.6.6 0 0 1 .3.3ZM32 364.3a.7.7 0 0 1-.8 1 .7.7 0 0 1-.3-.4.7.7 0 0 1 .9-.9.6.6 0 0 1 .3.3ZM55.4 420.7a.7.7 0 0 1-.9.9.6.6 0 0 1-.3-.3.7.7 0 0 1 1-1 .6.6 0 0 1 .2.4ZM116.3 430.2a.7.7 0 0 1-.9 1 .6.6 0 0 1-.3-.4.7.7 0 0 1 1-.9.6.6 0 0 1 .2.3Z" />
          <ellipse cx="73.5" cy="362.5" rx=".7" ry=".6" transform="rotate(-45 121.5 307)" />
          <path
            d="M100.3 533a.7.7 0 0 1-.9.8.6.6 0 0 1-.3-.2.7.7 0 0 1 1-1 .6.6 0 0 1 .2.3ZM378.4 477.8a.7.7 0 0 1-.9 1 .6.6 0 0 1-.3-.4.7.7 0 0 1 1-.9.6.6 0 0 1 .2.3ZM423.3 435.6a.7.7 0 0 1-.9 1 .6.6 0 0 1-.3-.4.7.7 0 0 1 1-.9.5.5 0 0 1 .2.3ZM343.5 478a.7.7 0 0 1-1 .8.6.6 0 0 1-.2-.3.7.7 0 0 1 1-.9.6.6 0 0 1 .2.3ZM373 405a.7.7 0 0 1-1 1 .6.6 0 0 1-.2-.3.7.7 0 0 1 1.2-.6ZM439 458.9a.7.7 0 0 1-1 .9.6.6 0 0 1-.2-.3.7.7 0 0 1 .9-.9.6.6 0 0 1 .3.3ZM358.7 417.8a.7.7 0 0 1-.9.9.6.6 0 0 1-.3-.3.7.7 0 0 1 1-1 .6.6 0 0 1 .2.4ZM586.7 452.9a.7.7 0 0 1-1 .9.6.6 0 0 1-.2-.3.7.7 0 0 1 .9-1 .6.6 0 0 1 .3.4ZM586.6 521.4a.7.7 0 0 1-1 1 .6.6 0 0 1-.2-.4.7.7 0 0 1 1-.9.6.6 0 0 1 .2.3ZM507 453.3a.7.7 0 0 1-.8 1 .6.6 0 0 1-.3-.4.7.7 0 0 1 .9-.9.6.6 0 0 1 .3.3ZM661.8 481.5a.7.7 0 0 1-.9 1 .6.6 0 0 1-.3-.4.7.7 0 0 1 1-.9.6.6 0 0 1 .2.3ZM621.2 397.6a.7.7 0 1 1-.3-.3.6.6 0 0 1 .3.3ZM639.3 301a.7.7 0 0 1-1 1 .6.6 0 0 1-.2-.3.7.7 0 0 1 .9-1 .6.6 0 0 1 .3.4ZM753.5 393.5a.7.7 0 1 1-.3-.3.6.6 0 0 1 .3.3Z" />
          <ellipse cx="718.4" cy="454.4" rx=".7" ry=".6" transform="rotate(-45 766.4 399)" />
          <path d="M793.2 494.2a.7.7 0 0 1-1 .9.6.6 0 0 1-.2-.3.7.7 0 0 1 .9-1 .6.6 0 0 1 .3.4Z" />
          <ellipse cx="754.3" cy="374.6" rx=".7" ry=".6" transform="rotate(-45 802.4 319.1)" />
          <path
            d="M780.3 373a.7.7 0 0 1-1 .9.6.6 0 0 1-.2-.3.7.7 0 0 1 .9-.9.6.6 0 0 1 .3.3ZM731.9 476a.7.7 0 1 1-.3-.3.6.6 0 0 1 .3.3ZM635.7 402a.7.7 0 0 1-.9.9.6.6 0 0 1-.3-.3.7.7 0 0 1 1-1 .6.6 0 0 1 .2.4ZM684.8 346.5a.7.7 0 0 1-1 1 .6.6 0 0 1-.2-.4.7.7 0 0 1 .9-.9.6.6 0 0 1 .3.3ZM688 186.1a.7.7 0 1 1-.3-.3.6.6 0 0 1 .3.3ZM589 137.7a.7.7 0 0 1-.9 1 .6.6 0 0 1-.3-.4.7.7 0 0 1 1-.9.6.6 0 0 1 .2.3ZM536.5 153.7a.7.7 0 0 1-.9 1 .6.6 0 0 1-.2-.4.7.7 0 0 1 .9-.9.6.6 0 0 1 .3.3ZM568.9 191.8a.7.7 0 0 1-1 .9.6.6 0 0 1-.2-.3.7.7 0 0 1 1-.9.6.6 0 0 1 .2.3ZM367.6 115.9a.7.7 0 0 1-1 .9.6.6 0 0 1-.2-.3.7.7 0 0 1 .9-1 .6.6 0 0 1 .3.4Z" />
          <ellipse cx="229.7" cy="173.3" rx=".7" ry=".6" transform="rotate(-45 277.7 117.8)" />
          <path
            d="M304.7 234.5a.7.7 0 1 1-.3-.3.6.6 0 0 1 .3.3ZM437.8 112.2a.7.7 0 0 1-1 1 .6.6 0 0 1-.2-.4.7.7 0 0 1 .9-.9.6.6 0 0 1 .3.3ZM410.8 188a.7.7 0 0 1-.9.8.5.5 0 0 1-.2-.3.7.7 0 0 1 .9-.9.6.6 0 0 1 .2.3ZM297.4 147a.7.7 0 0 1-1 .9.6.6 0 0 1-.2-.3.7.7 0 0 1 .9-1 .6.6 0 0 1 .3.4ZM259 164.4a.7.7 0 1 1-.4-.3.6.6 0 0 1 .3.3ZM214 75.8a.7.7 0 0 1-.9.9.6.6 0 0 1-.3-.3.7.7 0 0 1 1-1 .6.6 0 0 1 .2.4ZM245.9 91.9a.7.7 0 0 1-1 .9.6.6 0 0 1-.2-.3.7.7 0 0 1 .9-1 .6.6 0 0 1 .3.4ZM203.8 134a.7.7 0 0 1-1 1 .6.6 0 0 1-.2-.3.7.7 0 0 1 .9-1 .6.6 0 0 1 .3.4Z" />
          <ellipse cx="140.9" cy="115.6" rx=".7" ry=".6" transform="rotate(-45 189 60.2)" />
          <path
            d="M172.7 82.7a.7.7 0 0 1-1 1 .6.6 0 0 1-.2-.4.7.7 0 0 1 1.2-.6ZM223.6 135.3a.7.7 0 0 1-1 1 .6.6 0 0 1-.2-.4.7.7 0 0 1 .9-.9.6.6 0 0 1 .3.3ZM203.5 127.5a.7.7 0 0 1-1 1 .6.6 0 0 1-.2-.4.7.7 0 0 1 .9-.9.6.6 0 0 1 .3.3ZM221.6 126.3a.7.7 0 0 1-1 1 .6.6 0 0 1-.2-.3.7.7 0 0 1 1-1 .6.6 0 0 1 .2.3ZM159.3 67.9a.7.7 0 0 1-1 1 .6.6 0 0 1-.2-.4.7.7 0 0 1 .9-.9.5.5 0 0 1 .3.3ZM162.6 84.9a.7.7 0 0 1-.9.9.6.6 0 0 1-.3-.3.7.7 0 0 1 1-1 .6.6 0 0 1 .2.4ZM88.3 131.4a.7.7 0 0 1-1 1 .6.6 0 0 1-.2-.4.7.7 0 1 1 1.2-.6Z" />
          <ellipse cx="82.1" cy="150.7" rx=".7" ry=".6" transform="rotate(-45 130.1 95.3)" />
          <path
            d="M146.4 129.9a.7.7 0 0 1-1 .9.6.6 0 0 1-.2-.3.7.7 0 1 1 1.2-.6ZM135.9 118.6a.7.7 0 0 1-1 .9.6.6 0 0 1-.2-.3.7.7 0 0 1 .9-1 .6.6 0 0 1 .3.4ZM134.1 156.8a.7.7 0 0 1-.9.9.6.6 0 0 1-.3-.3.7.7 0 0 1 1.2-.6ZM84.8 143.3a.7.7 0 0 1-1 .9.5.5 0 0 1-.2-.3.7.7 0 0 1 .9-.9.5.5 0 0 1 .3.3ZM95.3 85.5a.7.7 0 0 1-1 1 .6.6 0 0 1-.2-.4.7.7 0 1 1 1.2-.6ZM109.2 118.6a.7.7 0 0 1-.9.9.6.6 0 0 1-.3-.3.7.7 0 0 1 1-.9.6.6 0 0 1 .2.3ZM55.7 88.1a.7.7 0 0 1-1 1 .6.6 0 0 1-.2-.4.7.7 0 0 1 .9-.9.6.6 0 0 1 .3.3ZM68 58.2a.7.7 0 0 1-1 .9.6.6 0 0 1-.2-.3.7.7 0 0 1 .9-1 .6.6 0 0 1 .3.4ZM62.9 91.8a.7.7 0 0 1-1 1 .6.6 0 0 1-.2-.4.7.7 0 0 1 .9-.9.6.6 0 0 1 .3.3ZM44.2 159.4a.7.7 0 0 1-1 1 .6.6 0 0 1-.2-.4.7.7 0 0 1 .9-.9.6.6 0 0 1 .3.3ZM129 134a.7.7 0 0 1-.9.8.6.6 0 0 1-.2-.2.7.7 0 0 1 .9-1 .6.6 0 0 1 .3.3ZM124.4 20.8a.7.7 0 0 1-.9 1 .6.6 0 0 1-.2-.4.7.7 0 0 1 .9-.9.6.6 0 0 1 .2.3ZM174.2 35.5a.7.7 0 0 1-1 1 .6.6 0 0 1-.2-.3.7.7 0 0 1 .9-1 .6.6 0 0 1 .3.3ZM172.1 47.1a.7.7 0 0 1-.9 1 .6.6 0 0 1-.3-.4.7.7 0 0 1 1-.9.6.6 0 0 1 .2.3ZM142.2 31.3a.7.7 0 0 1-1 .9.6.6 0 0 1-.2-.3.7.7 0 0 1 1-1 .6.6 0 0 1 .2.4ZM136.4 87.8a.7.7 0 0 1-.9 1 .6.6 0 0 1-.3-.3.7.7 0 0 1 1-1 .6.6 0 0 1 .2.3ZM53.8 106.1a.7.7 0 0 1-.9 1 .7.7 0 0 1-.3-.4.7.7 0 0 1 1-.9.6.6 0 0 1 .2.3ZM59.5 46a.7.7 0 0 1-.9.9.6.6 0 0 1-.3-.3.7.7 0 0 1 1-.9.6.6 0 0 1 .2.3ZM21.3 50.6a.7.7 0 0 1-1 .9.6.6 0 0 1-.2-.3.7.7 0 0 1 .9-1 .5.5 0 0 1 .3.4ZM54.5 41.3a.7.7 0 0 1-.9 1 .5.5 0 0 1-.3-.4.7.7 0 0 1 1-.9.5.5 0 0 1 .2.3ZM35.5 84.5a.7.7 0 0 1-1 .9.6.6 0 0 1-.2-.3.7.7 0 0 1 .9-.9.6.6 0 0 1 .3.3ZM15.2 213a.7.7 0 0 1-1 .9.6.6 0 0 1-.2-.3.7.7 0 0 1 .9-.9.6.6 0 0 1 .3.3ZM22.3 231a.7.7 0 0 1-.9 1 .6.6 0 0 1-.3-.3.7.7 0 0 1 1-1 .6.6 0 0 1 .2.3ZM1.3 295.3a.7.7 0 0 1-1 1 .6.6 0 0 1-.2-.4.7.7 0 0 1 .9-.9.6.6 0 0 1 .3.3ZM10 316.9a.7.7 0 0 1-1 .9.6.6 0 0 1-.3-.3.7.7 0 0 1 1-1 .6.6 0 0 1 .2.4ZM85.1 193.3a.7.7 0 0 1-.9 1 .5.5 0 0 1-.3-.4.7.7 0 0 1 1-.9.6.6 0 0 1 .2.3ZM90.7 232.7a.7.7 0 0 1-1 1 .6.6 0 0 1-.2-.4.7.7 0 0 1 .9-.9.6.6 0 0 1 .3.3ZM119 133.8a.7.7 0 0 1-.8 1 .6.6 0 0 1-.3-.4.7.7 0 0 1 .9-.9.6.6 0 0 1 .3.3ZM196.4 71.7a.7.7 0 0 1-.9 1 .6.6 0 0 1-.3-.4.7.7 0 0 1 1.2-.6ZM305 48a.7.7 0 0 1-.9.9.6.6 0 0 1-.3-.3.7.7 0 0 1 1-1 .6.6 0 0 1 .2.4ZM297.6 64.4a.7.7 0 0 1-1 .9.6.6 0 0 1-.2-.3.7.7 0 0 1 .9-1 .6.6 0 0 1 .3.4ZM318.1 114.1a.7.7 0 0 1-.9 1 .6.6 0 0 1-.3-.4.7.7 0 0 1 1-.9.6.6 0 0 1 .2.3ZM297.5 94.3a.7.7 0 0 1-.9.9.6.6 0 0 1-.3-.3.7.7 0 0 1 1-1 .6.6 0 0 1 .2.4ZM319.2 74.8a.7.7 0 0 1-1 1 .6.6 0 0 1-.2-.4.7.7 0 0 1 .9-.9.6.6 0 0 1 .3.3ZM424.5 51.2a.7.7 0 0 1-.9.9.6.6 0 0 1-.3-.3.7.7 0 0 1 1.2-.6ZM371.1 80.6a.7.7 0 0 1-.9.9.6.6 0 0 1-.3-.3.7.7 0 1 1 1.2-.6ZM474 98.4a.7.7 0 0 1-1 1 .6.6 0 0 1-.2-.4.7.7 0 0 1 .9-.9.6.6 0 0 1 .3.3ZM468.8 137a.7.7 0 0 1-1 1 .6.6 0 0 1-.2-.3.7.7 0 0 1 .9-1 .6.6 0 0 1 .3.3ZM559.5 123.4a.7.7 0 0 1-.9 1 .6.6 0 0 1-.3-.4.7.7 0 0 1 1-.9.6.6 0 0 1 .2.3ZM503.3 49.8a.7.7 0 0 1-.9 1 .6.6 0 0 1-.3-.4.7.7 0 0 1 1-.9.6.6 0 0 1 .2.3ZM547.3 98a.7.7 0 0 1-1 .8.6.6 0 0 1-.2-.3.7.7 0 0 1 .9-.9.6.6 0 0 1 .3.3ZM536.4 110.8a.7.7 0 0 1-.9 1 .6.6 0 0 1-.3-.4.7.7 0 0 1 1-.9.6.6 0 0 1 .2.3ZM520.7 127a.7.7 0 1 1-.3-.4.6.6 0 0 1 .3.3ZM507 86a.7.7 0 0 1-.9 1 .6.6 0 0 1-.3-.3.7.7 0 0 1 1-1 .6.6 0 0 1 .2.4ZM545.2 33.1a.7.7 0 0 1-1 1 .6.6 0 0 1-.2-.4.7.7 0 0 1 1.2-.6ZM628.5 56.1a.7.7 0 0 1-1 1 .6.6 0 0 1-.2-.4.7.7 0 0 1 .9-.9.6.6 0 0 1 .3.3ZM625.3 60.7a.7.7 0 0 1-.9.9.6.6 0 0 1-.3-.3.7.7 0 0 1 1-1 .6.6 0 0 1 .2.4ZM665.4 41.8a.7.7 0 0 1-1 1 .6.6 0 0 1-.2-.4.7.7 0 0 1 1.2-.6ZM728.9 102a.7.7 0 0 1-1 1 .6.6 0 0 1-.2-.4.7.7 0 0 1 1-.9.5.5 0 0 1 .2.3ZM672.1 125.1a.7.7 0 0 1-.9 1 .6.6 0 0 1-.3-.4.7.7 0 0 1 1-.9.6.6 0 0 1 .2.3ZM752 152.2a.7.7 0 0 1-.9 1 .6.6 0 0 1-.3-.4.7.7 0 0 1 1-.9.6.6 0 0 1 .2.3ZM756.8 178.8a.7.7 0 1 1-.3-.3.6.6 0 0 1 .3.3ZM707.5 38.3a.7.7 0 0 1-1 1 .6.6 0 0 1-.2-.4.7.7 0 0 1 .9-.9.6.6 0 0 1 .3.3ZM734.6 115a.7.7 0 0 1-1 1 .6.6 0 0 1-.2-.3.7.7 0 0 1 .9-1 .6.6 0 0 1 .3.3ZM729.1 134.5a.7.7 0 0 1-.9 1 .6.6 0 0 1-.2-.3.7.7 0 0 1 .9-1 .6.6 0 0 1 .3.3ZM753.7 214.2a.7.7 0 0 1-1 .9.5.5 0 0 1-.2-.3.7.7 0 0 1 .9-.9.6.6 0 0 1 .3.3ZM786.1 178.6a.7.7 0 0 1-.9.9.6.6 0 0 1-.3-.3.7.7 0 0 1 1-1 .6.6 0 0 1 .3.4ZM797.6.4a.7.7 0 0 1-.9.9.6.6 0 0 1-.3-.3.7.7 0 0 1 1-1 .7.7 0 0 1 .2.4ZM819.1 43.6a.7.7 0 0 1-.9.9.6.6 0 0 1-.3-.3.7.7 0 0 1 1-1 .6.6 0 0 1 .3.4ZM823.6 77.5a.7.7 0 0 1-.9.9.6.6 0 0 1-.3-.3.7.7 0 0 1 1-1 .6.6 0 0 1 .3.4ZM830.5 56.4a.7.7 0 0 1-1 1 .6.6 0 0 1-.2-.4.7.7 0 0 1 .9-.9.6.6 0 0 1 .3.3Z" />
          <ellipse cx="778.2" cy="157.2" rx=".7" ry=".6" transform="rotate(-45 826.2 101.7)" />
          <path
            d="M829.9 166a.7.7 0 0 1-1 .9.6.6 0 0 1-.2-.3.7.7 0 0 1 .9-1 .6.6 0 0 1 .3.4ZM807.5 313.6a.7.7 0 0 1-.9 1 .6.6 0 0 1-.3-.4.7.7 0 0 1 1-.9.6.6 0 0 1 .2.3ZM795.6 275a.7.7 0 0 1-1 1 .6.6 0 0 1-.2-.3.7.7 0 0 1 .9-1 .6.6 0 0 1 .3.4ZM809.6 292.3a.7.7 0 0 1-1 .9.6.6 0 0 1-.2-.3.7.7 0 0 1 .9-1 .6.6 0 0 1 .3.4ZM857.2 352.7a.7.7 0 0 1-.9 1 .6.6 0 0 1-.3-.3.7.7 0 0 1 1-1 .6.6 0 0 1 .2.3ZM856.7 258.7a.7.7 0 0 1-.9.9.6.6 0 0 1-.3-.3.7.7 0 1 1 1.2-.6ZM852 419.5a.7.7 0 0 1-.9.9.6.6 0 0 1-.3-.3.7.7 0 0 1 1-1 .6.6 0 0 1 .2.4Z" />
          <ellipse cx="798.4" cy="330.3" rx=".7" ry=".6" transform="rotate(-45 846.4 274.8)" />
          <path
            d="M822.1 463.8a.7.7 0 0 1-.9 1 .6.6 0 0 1-.3-.4.7.7 0 0 1 1-.9.6.6 0 0 1 .2.3ZM780 443a.7.7 0 0 1-.8.8.6.6 0 0 1-.3-.3.7.7 0 0 1 1.2-.6ZM728.5 339.3a.7.7 0 0 1-1 1 .6.6 0 0 1-.2-.4.7.7 0 0 1 .9-.9.6.6 0 0 1 .3.3Z" />
          <ellipse cx="688.5" cy="308.9" rx=".7" ry=".6" transform="rotate(-45 736.5 253.5)" />
          <path
            d="M777.3 353a.7.7 0 0 1-.9.8.5.5 0 0 1-.3-.2.7.7 0 0 1 1.2-.7ZM739 422a.7.7 0 0 1-.8 1 .6.6 0 0 1-.3-.3.7.7 0 0 1 .9-1 .6.6 0 0 1 .3.4ZM753.7 409.7a.7.7 0 0 1-1 1 .6.6 0 0 1-.2-.3.7.7 0 0 1 .9-1 .6.6 0 0 1 .3.3ZM760.1 355.4a.7.7 0 1 1-.2-.3.6.6 0 0 1 .3.3ZM625.5 199.5a.7.7 0 0 1-.9 1 .6.6 0 0 1-.3-.4.7.7 0 0 1 1-.9.6.6 0 0 1 .2.3ZM634.7 210.8a.7.7 0 0 1-1 1 .6.6 0 0 1-.2-.3.7.7 0 0 1 .9-1 .6.6 0 0 1 .3.3ZM604.8 176.6a.7.7 0 0 1-.9.9.6.6 0 0 1-.3-.3.7.7 0 0 1 1-.9.6.6 0 0 1 .2.3ZM564 196.7a.7.7 0 0 1-1 1 .6.6 0 0 1-.3-.4.7.7 0 0 1 1-.9.6.6 0 0 1 .2.3ZM606.4 272.7a.7.7 0 0 1-.9 1 .6.6 0 0 1-.3-.3.7.7 0 0 1 1-1 .6.6 0 0 1 .2.3ZM558.9 227a.7.7 0 0 1-1 .8.6.6 0 0 1-.2-.2.7.7 0 0 1 .9-1 .5.5 0 0 1 .3.3ZM588.7 224.5a.7.7 0 0 1-1 1 .6.6 0 0 1-.2-.4.7.7 0 0 1 .9-.9.6.6 0 0 1 .3.3ZM376 155.9a.7.7 0 0 1-.8.9.6.6 0 0 1-.3-.3.7.7 0 0 1 .9-1 .6.6 0 0 1 .3.4ZM439.9 185.6a.7.7 0 1 1-.3-.3.6.6 0 0 1 .3.3ZM330.4 178a.7.7 0 0 1-1 .9.6.6 0 0 1-.2-.3.7.7 0 0 1 .9-.9.6.6 0 0 1 .3.3ZM407.9 182.3a.7.7 0 1 1-.3-.3.6.6 0 0 1 .3.3ZM195.7 231.7a.7.7 0 0 1-.9 1 .6.6 0 0 1-.3-.4.7.7 0 0 1 1-.9.6.6 0 0 1 .2.3ZM227.9 242.2a.7.7 0 1 1-.3-.3.6.6 0 0 1 .3.3ZM159.5 254.4a.7.7 0 0 1-1 1 .6.6 0 0 1-.2-.3.7.7 0 0 1 .9-1 .6.6 0 0 1 .3.3ZM148.8 250.1a.7.7 0 0 1-.9 1 .6.6 0 0 1-.3-.4.7.7 0 0 1 1-.9.6.6 0 0 1 .3.3ZM110 300.4a.7.7 0 0 1-.8.9.6.6 0 0 1-.3-.3.7.7 0 0 1 .9-1 .6.6 0 0 1 .3.4ZM105.3 387a.7.7 0 0 1-1 1 .6.6 0 0 1-.2-.4.7.7 0 0 1 .9-.9.6.6 0 0 1 .3.3ZM98.2 361.3a.7.7 0 0 1-1 .9.6.6 0 0 1-.2-.3.7.7 0 0 1 .9-1 .6.6 0 0 1 .3.4ZM49 449.4a.7.7 0 0 1-1 .9.6.6 0 0 1-.2-.3.7.7 0 0 1 .9-1 .7.7 0 0 1 .3.4ZM58.1 415a.7.7 0 0 1-.9 1 .6.6 0 0 1-.3-.3.7.7 0 0 1 1-1 .6.6 0 0 1 .2.3ZM56.8 463a.7.7 0 0 1-.9 1 .6.6 0 0 1-.3-.3.7.7 0 0 1 1-1 .6.6 0 0 1 .2.3ZM60.7 462.2a.7.7 0 0 1-1 1 .6.6 0 0 1-.2-.3.7.7 0 0 1 .9-1 .6.6 0 0 1 .3.3ZM211 436.5a.7.7 0 0 1-.9.9.6.6 0 0 1-.3-.3.7.7 0 0 1 1-1 .6.6 0 0 1 .2.4ZM211.8 430.1a.7.7 0 0 1-.9 1 .6.6 0 0 1-.3-.3.7.7 0 0 1 1-1 .6.6 0 0 1 .2.3ZM300.9 428.2a.7.7 0 0 1-1 .9.6.6 0 0 1-.2-.3.7.7 0 0 1 .9-.9.6.6 0 0 1 .3.3ZM325.8 468.4a.7.7 0 0 1-.9 1 .5.5 0 0 1-.3-.4.7.7 0 0 1 1-.9.5.5 0 0 1 .2.3ZM231.8 473.9a.7.7 0 0 1-1 .9.6.6 0 0 1-.2-.3.7.7 0 0 1 .9-1 .6.6 0 0 1 .3.4ZM193 458.6a.7.7 0 0 1-.8.9.6.6 0 0 1-.3-.3.7.7 0 0 1 .9-1 .6.6 0 0 1 .3.4ZM238.6 416.7a.7.7 0 0 1-1 1 .6.6 0 0 1-.2-.3.7.7 0 0 1 1-1 .6.6 0 0 1 .2.3ZM229.3 378.5a.7.7 0 0 1-.9.9.6.6 0 0 1-.3-.3.7.7 0 0 1 1-1 .6.6 0 0 1 .2.4ZM276.8 385a.7.7 0 0 1-1 1 .6.6 0 0 1-.2-.3.7.7 0 0 1 .9-1 .6.6 0 0 1 .3.4ZM220 430a.7.7 0 0 1-1 1 .6.6 0 0 1-.2-.3.7.7 0 0 1 .9-1 .6.6 0 0 1 .3.3ZM165.7 399.8a.7.7 0 0 1-.9 1 .6.6 0 0 1-.3-.3.7.7 0 0 1 1.2-.7ZM225.7 410a.7.7 0 0 1-.9 1 .6.6 0 0 1-.3-.3.7.7 0 0 1 1-1 .6.6 0 0 1 .2.3ZM167.7 374.3a.7.7 0 0 1-.9 1 .5.5 0 0 1-.3-.4.7.7 0 0 1 1-.9.6.6 0 0 1 .2.3ZM216 311.5a.7.7 0 0 1-.8.9.5.5 0 0 1-.3-.3.7.7 0 0 1 .9-1 .6.6 0 0 1 .3.4ZM236.2 346a.7.7 0 0 1-1 .9.6.6 0 0 1-.2-.3.7.7 0 0 1 1.2-.6ZM217.3 297.5a.7.7 0 0 1-1 1 .6.6 0 0 1-.2-.3.7.7 0 0 1 .9-1 .5.5 0 0 1 .3.3ZM175 370.7a.7.7 0 0 1-.8 1 .6.6 0 0 1-.3-.3.7.7 0 0 1 .9-1 .6.6 0 0 1 .3.3ZM176.6 382.7a.7.7 0 0 1-1 .9.6.6 0 0 1-.2-.3.7.7 0 0 1 .9-1 .6.6 0 0 1 .3.4ZM183.3 352a.7.7 0 0 1-1 1 .6.6 0 0 1-.2-.3.7.7 0 0 1 .9-1 .6.6 0 0 1 .3.3ZM187.2 351.9a.7.7 0 0 1-1 .9.6.6 0 0 1-.2-.3.7.7 0 0 1 1.2-.6ZM182.4 336.2a.7.7 0 0 1-1 .9.6.6 0 0 1-.2-.3.7.7 0 0 1 .9-1 .6.6 0 0 1 .3.4ZM214 349.4a.7.7 0 0 1-.8 1 .6.6 0 0 1-.3-.4.7.7 0 0 1 .9-.9.6.6 0 0 1 .3.3ZM203.2 335a.7.7 0 0 1-.9 1 .6.6 0 0 1-.3-.4.7.7 0 0 1 1-.9.6.6 0 0 1 .2.3ZM177.2 342.3a.7.7 0 1 1-.3-.3.6.6 0 0 1 .3.3ZM134.3 363.7a.7.7 0 0 1-1 1 .6.6 0 0 1-.2-.3.7.7 0 0 1 .9-1 .6.6 0 0 1 .3.3ZM113.6 352a.7.7 0 0 1-.9 1 .6.6 0 0 1-.3-.4.7.7 0 0 1 1-.9.6.6 0 0 1 .2.3ZM112.3 332a.7.7 0 0 1-1 .9.6.6 0 0 1-.2-.3.7.7 0 0 1 .9-1 .6.6 0 0 1 .3.4ZM120 333.5a.7.7 0 1 1-.3-.3.6.6 0 0 1 .3.3ZM100.7 332.4a.7.7 0 0 1-1 1 .6.6 0 0 1-.2-.3.7.7 0 0 1 1-1 .6.6 0 0 1 .2.3ZM63.5 301a.7.7 0 0 1-.9 1 .6.6 0 0 1-.3-.3.7.7 0 0 1 1-1 .6.6 0 0 1 .2.3ZM59.9 295.6a.7.7 0 1 1-.3-.3.6.6 0 0 1 .3.3ZM42.6 325.6a.7.7 0 0 1-1 1 .6.6 0 0 1-.2-.4.7.7 0 0 1 1-.9.5.5 0 0 1 .2.3ZM48 364a.7.7 0 0 1-1 1 .6.6 0 0 1-.2-.3.7.7 0 0 1 .9-.9.7.7 0 0 1 .3.3ZM39.4 387.3a.7.7 0 0 1-1 .9.5.5 0 0 1-.2-.3.7.7 0 0 1 .9-.9.6.6 0 0 1 .3.3ZM130 443.1a.7.7 0 0 1-1 1 .6.6 0 0 1-.3-.3.7.7 0 0 1 1.2-.7ZM320.3 386.5a.7.7 0 0 1-1 .9.5.5 0 0 1-.2-.3.7.7 0 0 1 .9-1 .6.6 0 0 1 .3.4ZM376.8 339.6a.7.7 0 0 1-.9.9.6.6 0 0 1-.3-.3.7.7 0 1 1 1.2-.6ZM415.5 320a.7.7 0 0 1-.9.8.6.6 0 0 1-.3-.3.7.7 0 0 1 1-.9.6.6 0 0 1 .2.3ZM430.7 281.9a.7.7 0 0 1-.9.9.6.6 0 0 1-.3-.3.7.7 0 0 1 1-1 .6.6 0 0 1 .2.4ZM432 252.3a.7.7 0 1 1-.2-.3.6.6 0 0 1 .3.3ZM451.2 273.1a.7.7 0 0 1-1 1 .6.6 0 0 1-.2-.4.7.7 0 0 1 .9-.9.6.6 0 0 1 .3.3ZM376.7 260.9a.7.7 0 0 1-1 .9.6.6 0 0 1-.2-.3.7.7 0 0 1 .9-1 .6.6 0 0 1 .3.4ZM301.9 251.8a.7.7 0 0 1-1 1 .6.6 0 0 1-.2-.4.7.7 0 0 1 .9-.9.6.6 0 0 1 .3.3ZM284.6 240.8a.7.7 0 0 1-.9 1 .6.6 0 0 1-.3-.3.7.7 0 0 1 1-1 .5.5 0 0 1 .2.3ZM266.6 198.9a.7.7 0 0 1-.9.9.6.6 0 0 1-.3-.3.7.7 0 0 1 1-.9.6.6 0 0 1 .2.3ZM294 243.6a.7.7 0 0 1-.9 1 .6.6 0 0 1-.3-.4.7.7 0 0 1 1-.9.6.6 0 0 1 .2.3ZM319.3 291.6a.7.7 0 0 1-.9.9.6.6 0 0 1-.3-.3.7.7 0 1 1 1.2-.6ZM395 266.4a.7.7 0 0 1-1 1 .6.6 0 0 1-.3-.3.7.7 0 0 1 1-1 .6.6 0 0 1 .2.3ZM463.8 233.3a.7.7 0 0 1-1 .9.6.6 0 0 1-.2-.3.7.7 0 0 1 .9-.9.6.6 0 0 1 .3.3ZM514.6 254.8a.7.7 0 0 1-1 1 .6.6 0 0 1-.2-.3.7.7 0 0 1 .9-1 .6.6 0 0 1 .3.3ZM516.2 248a.7.7 0 0 1-1 .9.5.5 0 0 1-.2-.3.7.7 0 0 1 .9-1 .6.6 0 0 1 .3.4ZM480.4 173.7a.7.7 0 0 1-1 1 .6.6 0 0 1-.2-.4.7.7 0 0 1 1-.9.6.6 0 0 1 .2.3ZM497.2 153.9a.7.7 0 0 1-1 .9.6.6 0 0 1-.2-.3.7.7 0 0 1 .9-1 .6.6 0 0 1 .3.4ZM596.4 228.5a.7.7 0 0 1-1 1 .6.6 0 0 1-.2-.4.7.7 0 0 1 1-.9.6.6 0 0 1 .2.3ZM554.8 301.9a.7.7 0 0 1-1 1 .6.6 0 0 1-.2-.4.7.7 0 0 1 .9-.9.6.6 0 0 1 .3.3ZM485.6 341a.7.7 0 0 1-1 1 .6.6 0 0 1-.2-.4.7.7 0 1 1 1.2-.6ZM498.6 301a.7.7 0 0 1-1 .8.6.6 0 0 1-.2-.3.7.7 0 0 1 1-.9.6.6 0 0 1 .2.3ZM541.7 322.7a.7.7 0 0 1-.9 1 .6.6 0 0 1-.3-.3.7.7 0 0 1 1-1 .6.6 0 0 1 .2.3ZM543 361.9a.7.7 0 1 1-.3-.3.6.6 0 0 1 .3.3ZM522.3 379.4a.7.7 0 0 1-1 1 .6.6 0 0 1-.2-.3.7.7 0 0 1 .9-1 .6.6 0 0 1 .3.3ZM512.6 405.4a.7.7 0 0 1-.9 1 .6.6 0 0 1-.3-.4.7.7 0 0 1 1-.9.6.6 0 0 1 .2.3ZM551 423.1a.7.7 0 0 1-1 1 .6.6 0 0 1-.3-.3.7.7 0 0 1 1-1 .6.6 0 0 1 .2.3ZM587.6 343.2a.7.7 0 0 1-1 .9.6.6 0 0 1-.2-.3.7.7 0 0 1 1-.9.6.6 0 0 1 .2.3ZM602.6 347a.7.7 0 0 1-.9 1 .6.6 0 0 1-.3-.4.7.7 0 0 1 1-.9.6.6 0 0 1 .2.3ZM654.7 370a.7.7 0 0 1-1 .8.6.6 0 0 1-.2-.3.7.7 0 0 1 1.2-.6ZM678.7 383.4a.7.7 0 0 1-.9 1 .6.6 0 0 1-.3-.4.7.7 0 0 1 1-.9.6.6 0 0 1 .2.3ZM641 395a.7.7 0 0 1-.8.8.6.6 0 0 1-.3-.3.7.7 0 0 1 .9-.9.6.6 0 0 1 .3.3ZM525 413.2a.7.7 0 0 1-1 .9.6.6 0 0 1-.2-.3.7.7 0 0 1 .9-1 .6.6 0 0 1 .3.4ZM540.4 420.6a.7.7 0 0 1-1 .9.6.6 0 0 1-.2-.3.7.7 0 0 1 .9-1 .6.6 0 0 1 .3.4ZM607 372.5a.7.7 0 1 1-.3-.3.6.6 0 0 1 .3.3ZM646 336.3a.7.7 0 1 1-.3-.2.6.6 0 0 1 .3.2ZM657 321.4a.7.7 0 0 1-1 .9.6.6 0 0 1-.2-.3.7.7 0 0 1 .9-.9.6.6 0 0 1 .3.3ZM623 259.4a.7.7 0 0 1-1 .9.6.6 0 0 1-.3-.3.7.7 0 0 1 1-1 .6.6 0 0 1 .2.4ZM609.5 316.6a.7.7 0 0 1-1 1 .6.6 0 0 1-.2-.4.7.7 0 1 1 1.2-.6ZM664.8 243a.7.7 0 0 1-1 .9.6.6 0 0 1-.2-.3.7.7 0 0 1 .9-1 .6.6 0 0 1 .3.4ZM669.4 249.3a.7.7 0 0 1-1 1 .6.6 0 0 1-.2-.4.7.7 0 0 1 .9-.9.6.6 0 0 1 .3.3ZM706.1 324.9a.7.7 0 0 1-.9 1 .6.6 0 0 1-.3-.4.7.7 0 0 1 1-.9.6.6 0 0 1 .2.3Z" />
          <ellipse cx="635.3" cy="312.5" rx=".7" ry=".6" transform="rotate(-45 683.3 257)" />
          <path
            d="M675 304.5a.7.7 0 0 1-1 .9.6.6 0 0 1-.3-.3.7.7 0 0 1 1-1 .6.6 0 0 1 .2.4ZM676 289.2a.7.7 0 0 1-.9 1 .6.6 0 0 1-.3-.3.7.7 0 0 1 1-1 .6.6 0 0 1 .2.3Z" />
          <ellipse cx="647.5" cy="266.2" rx=".7" ry=".6" transform="rotate(-45 695.5 210.7)" />
          <path
            d="M726.2 364.4a.7.7 0 0 1-1 .9.6.6 0 0 1-.2-.3.7.7 0 0 1 .9-1 .6.6 0 0 1 .3.4ZM708.5 414.2a.7.7 0 0 1-1 1 .6.6 0 0 1-.2-.3.7.7 0 0 1 1-1 .6.6 0 0 1 .2.3ZM694.9 423a.7.7 0 0 1-1 1 .6.6 0 0 1-.2-.3.7.7 0 0 1 .9-1 .6.6 0 0 1 .3.4ZM668.9 444.7a.7.7 0 0 1-1 1 .6.6 0 0 1-.2-.3.7.7 0 0 1 .9-1 .6.6 0 0 1 .3.3ZM645.3 448a.7.7 0 0 1-1 1 .6.6 0 0 1-.2-.3.7.7 0 0 1 .9-1 .6.6 0 0 1 .3.4ZM638.2 453.9a.7.7 0 0 1-.9.9.6.6 0 0 1-.3-.3.7.7 0 0 1 1-1 .6.6 0 0 1 .2.4ZM630.4 474.5a.7.7 0 0 1-1 .9.6.6 0 0 1-.2-.3.7.7 0 0 1 1-1 .6.6 0 0 1 .2.4ZM601 489.5a.7.7 0 0 1-1 .9.6.6 0 0 1-.2-.3.7.7 0 0 1 .9-.9.6.6 0 0 1 .3.3ZM587.4 501.5a.7.7 0 0 1-.9 1 .6.6 0 0 1-.3-.3.7.7 0 0 1 1-1 .6.6 0 0 1 .2.3ZM518 498.2a.7.7 0 0 1-1 1 .6.6 0 0 1-.3-.4.7.7 0 0 1 1-.9.6.6 0 0 1 .2.3ZM449.4 499.6a.7.7 0 0 1-1 1 .6.6 0 0 1-.2-.4.7.7 0 0 1 .9-.9.6.6 0 0 1 .3.3ZM399.7 509.1a.7.7 0 0 1-1 1 .6.6 0 0 1-.2-.4.7.7 0 0 1 1-.9.6.6 0 0 1 .2.3ZM361.5 514a.7.7 0 0 1-.9 1 .6.6 0 0 1-.3-.4.7.7 0 0 1 1-.9.6.6 0 0 1 .2.3ZM314 516.4a.7.7 0 0 1-1 1 .6.6 0 0 1-.3-.4.7.7 0 0 1 1-.9.6.6 0 0 1 .2.3ZM254.5 516.4a.7.7 0 0 1-1 .9.6.6 0 0 1-.2-.3.7.7 0 0 1 .9-.9.6.6 0 0 1 .3.3ZM209 518.6a.7.7 0 0 1-.8 1 .6.6 0 0 1-.3-.4.7.7 0 0 1 .9-.9.5.5 0 0 1 .3.3ZM120 515.6a.7.7 0 0 1-1 .9.6.6 0 0 1-.2-.3.7.7 0 0 1 .9-1 .6.6 0 0 1 .3.4ZM81.1 516.1a.7.7 0 0 1-.9 1 .6.6 0 0 1-.2-.3.7.7 0 0 1 .9-1 .6.6 0 0 1 .2.4ZM53.6 515.9a.7.7 0 0 1-1 .9.6.6 0 0 1-.2-.3.7.7 0 0 1 .9-1 .6.6 0 0 1 .3.4ZM31.6 501a.7.7 0 0 1-.9 1 .7.7 0 0 1-.3-.3.7.7 0 0 1 1-1 .6.6 0 0 1 .2.3ZM8 438.7a.7.7 0 0 1-.8 1 .6.6 0 0 1-.3-.3.7.7 0 0 1 .9-1 .6.6 0 0 1 .3.3Z" />
          <ellipse cx="-46.2" cy="396.8" rx=".7" ry=".6" transform="rotate(-45 1.9 341.4)" />
          <path
            d="M119 378.6a.7.7 0 0 1-.8 1 .6.6 0 0 1-.3-.4.7.7 0 1 1 1.2-.6ZM307.7 435.2a.7.7 0 0 1-.9 1 .6.6 0 0 1-.3-.4.7.7 0 0 1 1-.9.6.6 0 0 1 .2.3ZM368.7 452.7a.7.7 0 1 1-.3-.3.6.6 0 0 1 .3.3ZM402.7 421.6a.7.7 0 0 1-.9 1 .6.6 0 0 1-.3-.3.7.7 0 0 1 1-1 .5.5 0 0 1 .2.3ZM295 480.8a.7.7 0 0 1-1 .9.6.6 0 0 1-.2-.3.7.7 0 0 1 .9-1 .6.6 0 0 1 .3.4Z" />
          <ellipse cx="216.3" cy="402.9" rx=".7" ry=".6" transform="rotate(-45 264.3 347.4)" />
          <path
            d="M380.6 352.6a.7.7 0 0 1-1 1 .6.6 0 0 1-.2-.3.7.7 0 0 1 .9-1 .6.6 0 0 1 .3.3ZM419.8 408a.7.7 0 0 1-1 1 .6.6 0 0 1-.2-.3.7.7 0 1 1 1.2-.6ZM317.3 330.9a.7.7 0 0 1-.9.9.6.6 0 0 1-.3-.3.7.7 0 0 1 1-1 .6.6 0 0 1 .2.4ZM303.4 362a.7.7 0 1 1-.3-.3.6.6 0 0 1 .3.3ZM270.3 345.8a.7.7 0 0 1-1 1 .6.6 0 0 1-.2-.4.7.7 0 0 1 .9-.9.6.6 0 0 1 .3.3ZM333.8 303.7a.7.7 0 0 1-1 1 .6.6 0 0 1-.3-.3.7.7 0 0 1 1-1 .6.6 0 0 1 .3.3ZM387.3 259.2a.7.7 0 0 1-1 1 .6.6 0 0 1-.2-.4.7.7 0 0 1 .9-.9.6.6 0 0 1 .3.3ZM403.8 202.6a.7.7 0 0 1-1 .9.6.6 0 0 1-.2-.3.7.7 0 0 1 .9-1 .6.6 0 0 1 .3.4ZM387.3 213.7a.7.7 0 0 1-1 1 .6.6 0 0 1-.2-.4.7.7 0 0 1 .9-.9.6.6 0 0 1 .3.3ZM351 230.4a.7.7 0 0 1-.8.9.6.6 0 0 1-.3-.3.7.7 0 0 1 .9-.9.6.6 0 0 1 .3.3ZM347.2 246.3a.7.7 0 0 1-1 1 .6.6 0 0 1-.2-.3.7.7 0 0 1 .9-1 .6.6 0 0 1 .3.3ZM341 260.1a.7.7 0 0 1-1 1 .6.6 0 0 1-.3-.4.7.7 0 0 1 1-.9.6.6 0 0 1 .2.3ZM341.3 217.1a.7.7 0 1 1-.3-.3.6.6 0 0 1 .3.3ZM349.3 196a.7.7 0 0 1-.9.9.6.6 0 0 1-.3-.3.7.7 0 0 1 1-1 .6.6 0 0 1 .2.4ZM365 184a.7.7 0 0 1-1 .9.6.6 0 0 1-.3-.3.7.7 0 0 1 1-1 .6.6 0 0 1 .2.4ZM376.9 165a.7.7 0 0 1-1 1 .6.6 0 0 1-.2-.3.7.7 0 0 1 .9-1 .6.6 0 0 1 .3.4ZM320 145.6a.7.7 0 1 1-.3-.3.6.6 0 0 1 .3.3ZM399.3 143a.7.7 0 0 1-.9.8.6.6 0 0 1-.2-.3.7.7 0 0 1 .9-.9.6.6 0 0 1 .2.3ZM411.2 139.2a.7.7 0 0 1-.9 1 .6.6 0 0 1-.3-.4.7.7 0 0 1 1-.9.6.6 0 0 1 .2.3ZM470.6 156.4a.7.7 0 0 1-.9.9.6.6 0 0 1-.2-.3.7.7 0 0 1 .9-1 .6.6 0 0 1 .3.4ZM501.4 205.4a.7.7 0 0 1-1 1 .5.5 0 0 1-.2-.3.7.7 0 0 1 .9-1 .6.6 0 0 1 .3.3ZM510.4 197.4a.7.7 0 0 1-1 1 .6.6 0 0 1-.2-.4.7.7 0 0 1 .9-.9.6.6 0 0 1 .3.3ZM560 158.9a.7.7 0 0 1-1 .9.6.6 0 0 1-.3-.3.7.7 0 0 1 1-.9.6.6 0 0 1 .2.3ZM620 127.9a.7.7 0 0 1-.9 1 .6.6 0 0 1-.3-.4.7.7 0 0 1 1-.9.6.6 0 0 1 .3.3ZM618.6 96.3a.7.7 0 0 1-.9 1 .6.6 0 0 1-.3-.4.7.7 0 0 1 1-.9.6.6 0 0 1 .2.3ZM680.4 165a.7.7 0 0 1-1 .9.6.6 0 0 1-.2-.3.7.7 0 0 1 .9-1 .6.6 0 0 1 .3.4ZM693.4 174.6a.7.7 0 0 1-1 .9.6.6 0 0 1-.2-.3.7.7 0 0 1 .9-1 .6.6 0 0 1 .3.4ZM717 148.7a.7.7 0 0 1-1 .9.6.6 0 0 1-.3-.3.7.7 0 0 1 1-1 .6.6 0 0 1 .2.4ZM689 125.7a.7.7 0 0 1-1 1 .6.6 0 0 1-.3-.4.7.7 0 0 1 1-.9.6.6 0 0 1 .2.3ZM711 80.6a.7.7 0 0 1-1 1 .6.6 0 0 1-.2-.4.7.7 0 0 1 1.2-.6ZM785.3 100.3a.7.7 0 0 1-1 .9.6.6 0 0 1-.2-.3.7.7 0 0 1 .9-1 .6.6 0 0 1 .3.4Z" />
          <ellipse cx="730.3" cy="98.9" rx=".7" ry=".6" transform="rotate(-45 778.3 43.5)" />
          <path
            d="M848.6 220.8a.7.7 0 0 1-.9 1 .6.6 0 0 1-.3-.3.7.7 0 0 1 1-1 .6.6 0 0 1 .2.3ZM829.9 260.8a.7.7 0 0 1-1 .9.6.6 0 0 1-.2-.3.7.7 0 0 1 .9-.9.6.6 0 0 1 .3.3ZM813.2 240a.7.7 0 0 1-1 .8.6.6 0 0 1-.2-.3.7.7 0 0 1 .9-.9.6.6 0 0 1 .3.3ZM833.4 317.2a.7.7 0 0 1-1 1 .6.6 0 0 1-.2-.4.7.7 0 0 1 1-.9.6.6 0 0 1 .2.3ZM843.4 369.6a.7.7 0 0 1-.9.9.6.6 0 0 1-.2-.3.7.7 0 0 1 .9-1 .6.6 0 0 1 .2.4ZM826.7 391.4a.7.7 0 0 1-1 1 .6.6 0 0 1-.2-.3.7.7 0 0 1 1-1 .6.6 0 0 1 .2.3ZM807.6 359.1a.7.7 0 0 1-1 1 .6.6 0 0 1-.2-.4.7.7 0 0 1 1-.9.5.5 0 0 1 .2.3ZM807.8 354.5a.7.7 0 0 1-1 1 .6.6 0 0 1-.2-.3.7.7 0 0 1 1-1 .5.5 0 0 1 .2.3ZM765.6 442.1a.7.7 0 0 1-1 1 .6.6 0 0 1-.2-.4.7.7 0 0 1 .9-.9.6.6 0 0 1 .3.3ZM800.6 458.8a.7.7 0 1 1-.3-.3.6.6 0 0 1 .3.3ZM807 435.4a.7.7 0 0 1-.9 1 .6.6 0 0 1-.2-.3.7.7 0 0 1 .9-1 .6.6 0 0 1 .3.3ZM676.3 469.6a.7.7 0 0 1-1 1 .6.6 0 0 1-.2-.4.7.7 0 0 1 .9-.9.6.6 0 0 1 .3.3ZM690.6 451.2a.7.7 0 0 1-1 .9.6.6 0 0 1-.2-.3.7.7 0 0 1 1-1 .6.6 0 0 1 .2.4ZM732.1 450.4a.7.7 0 0 1-.9.9.6.6 0 0 1-.3-.3.7.7 0 0 1 1-1 .6.6 0 0 1 .2.4ZM727.3 452.9a.7.7 0 1 1-.3-.3.6.6 0 0 1 .3.3ZM595 423.5a.7.7 0 0 1-.8 1 .6.6 0 0 1-.3-.3.7.7 0 0 1 .9-1 .5.5 0 0 1 .3.3ZM559.4 393.5a.7.7 0 0 1-1 1 .6.6 0 0 1-.2-.3.7.7 0 0 1 .9-1 .6.6 0 0 1 .3.3ZM545 386.4a.7.7 0 0 1-1 .9.6.6 0 0 1-.2-.3.7.7 0 0 1 1-1 .6.6 0 0 1 .2.4ZM549.6 378.8a.7.7 0 0 1-1 1 .6.6 0 0 1-.2-.4.7.7 0 0 1 1-.9.5.5 0 0 1 .2.3ZM480 394.5a.7.7 0 0 1-.8.9.6.6 0 0 1-.3-.3.7.7 0 0 1 .9-1 .6.6 0 0 1 .3.4ZM474.4 428.4a.7.7 0 0 1-.9 1 .6.6 0 0 1-.3-.4.7.7 0 1 1 1.2-.6ZM473.3 450.9a.7.7 0 0 1-1 .9.6.6 0 0 1-.2-.3.7.7 0 0 1 1.2-.6ZM450.6 439.5a.7.7 0 0 1-1 1 .6.6 0 0 1-.2-.4.7.7 0 0 1 .9-.9.6.6 0 0 1 .3.3ZM418.1 351.1a.7.7 0 0 1-.9 1 .6.6 0 0 1-.3-.4.7.7 0 0 1 1-.9.6.6 0 0 1 .2.3ZM414.2 335a.7.7 0 0 1-.9.9.6.6 0 0 1-.3-.3.7.7 0 0 1 1-1 .6.6 0 0 1 .2.4Z" />
        </g>
      </g>
    </g>
  </g>
</svg>