<svg xmlns="http://www.w3.org/2000/svg" xmlns:xlink="http://www.w3.org/1999/xlink" viewBox="60 40 737.3 453.9">
  <defs>
    <radialGradient id="radial-gradient" cx="16.7" cy="16.5" r="14.8" gradientTransform="matrix(.14 .99 -1 .14 31 -2)"
      gradientUnits="userSpaceOnUse">
      <stop offset=".1" stop-color="#fff" />
      <stop offset=".1" stop-color="#ebebeb" />
      <stop offset=".1" stop-color="#bbb" />
      <stop offset=".2" stop-color="#8e8e8e" />
      <stop offset=".2" stop-color="#686868" />
      <stop offset=".2" stop-color="#484848" />
      <stop offset=".3" stop-color="#2e2e2e" />
      <stop offset=".3" stop-color="#1a1a1a" />
      <stop offset=".4" stop-color="#0c0c0c" />
      <stop offset=".4" stop-color="#030303" />
      <stop offset=".5" stop-color="#010101" />
      <stop offset="1" />
    </radialGradient>
    <radialGradient xlink:href="#radial-gradient" id="radial-gradient-2" cx="37" cy="36.5" r="32.7"
      gradientTransform="rotate(76 37 37) scale(1 1.01)" />
    <radialGradient id="radial-gradient-3" cx="152.3" cy="-353.7" r="14.7"
      gradientTransform="matrix(0 -1.83 .1 0 234 431)" gradientUnits="userSpaceOnUse">
      <stop offset="0" stop-color="#fff" />
      <stop offset="1" />
    </radialGradient>
    <clipPath id="clip-path" transform="translate(53 18)">
      <path fill="none" d="M750 500H0V0h750z" />
    </clipPath>
  </defs>
  <g style="isolation:isolate">
    <g id="BACKGROUND">
      <g clip-path="url(#clip-path)">
        <g fill="#fff">
          <ellipse cx="718.2" cy="43.4" rx=".6" ry=".7" transform="rotate(-45 766 -12)" />
          <path
            d="M638 64a1 1 0 0 0 1 1 1 1 0 1 0-1-1ZM617 77a1 1 0 0 0 1 1 1 1 0 0 0-1-1ZM614 63a1 1 0 0 0 1 1 1 1 0 0 0 0-1 1 1 0 0 0-1-1 1 1 0 0 0 0 1ZM587 32a1 1 0 0 0 1 1 1 1 0 0 0 0-1 1 1 0 0 0-1 0ZM518 35a1 1 0 0 0 1 1 1 1 0 1 0-1-1ZM506 94a1 1 0 0 0 1 1 1 1 0 0 0-1-1ZM567 122a1 1 0 0 0 1 1 1 1 0 0 0-1-1ZM699 140a1 1 0 0 0 1 1 1 1 0 0 0-1-1ZM718 124a1 1 0 0 0 1 1 1 1 0 0 0 1-1 1 1 0 1 0-2 0ZM755 85ZM767 70a1 1 0 0 0 1 1 1 1 0 0 0-1-1ZM795 145a1 1 0 0 0 1 1 1 1 0 0 0-1-1ZM789 150a1 1 0 0 0 0 1 1 1 0 0 0 1 0 1 1 0 0 0-1-1ZM806 139a1 1 0 0 0 1 1 1 1 0 0 0-1-1ZM739 277a1 1 0 0 0 0 1 1 1 0 0 0 1 0 1 1 0 0 0-1-1Z" />
          <ellipse cx="681.9" cy="234" rx=".6" ry=".7" transform="rotate(-45 730 179)" />
          <path
            d="M706 260a1 1 0 0 0 1 0 1 1 0 0 0 1 0 1 1 0 0 0-1-1 1 1 0 0 0-1 1ZM634 217a1 1 0 0 0 1 1 1 1 0 0 0-1-1ZM664 186a1 1 0 0 0 1 1 1 1 0 0 0 0-1 1 1 0 0 0-1-1 1 1 0 0 0 0 1ZM660 183a1 1 0 0 0 1 1 1 1 0 0 0-1-1ZM388 74a1 1 0 0 0 0 1 1 1 0 0 0 1 0 1 1 0 0 0-1-1ZM272 66a1 1 0 0 0 1 1 1 1 0 0 0-1-1ZM202 87a1 1 0 0 0 1 1 1 1 0 0 0 0-1 1 1 0 0 0-1-1 1 1 0 0 0 0 1ZM204 118a1 1 0 0 0 1 1 1 1 0 0 0-1-1ZM183 117a1 1 0 0 0 1 0 1 1 0 0 0-1-1 1 1 0 0 0 0 1Z" />
          <ellipse cx="130.2" cy="90.6" rx=".6" ry=".7" transform="rotate(-45 178 35)" />
          <path
            d="M171 61a1 1 0 1 0 1 0 1 1 0 0 0-1 0ZM145 52a1 1 0 1 0 1 0 1 1 0 0 0-1 0ZM86 85a1 1 0 0 0 1 1 1 1 0 0 0 0-1 1 1 0 0 0-1 0ZM72 137a1 1 0 0 0 1 1 1 1 0 0 0 1 0 1 1 0 0 0-2-1ZM86 182a1 1 0 0 0 1 1 1 1 0 0 0 1-1 1 1 0 0 0-1-1 1 1 0 0 0-1 1ZM142 201a1 1 0 0 0 1 1 1 1 0 0 0 1 0 1 1 0 0 0-1-1 1 1 0 0 0-1 0ZM148 217a1 1 0 0 0 0 1 1 1 0 0 0 1 0 1 1 0 0 0-1-1ZM80 260ZM70 265a1 1 0 0 0 1 1 1 1 0 0 0 0-1 1 1 0 0 0 0-1 1 1 0 0 0-1 1ZM167 204a1 1 0 0 0 1 1 1 1 0 0 0-1-1ZM153 239ZM145 253a1 1 0 1 0 1-1 1 1 0 0 0-1 1ZM120 277a1 1 0 0 0 1 1 1 1 0 0 0-1-1ZM112 279a1 1 0 0 0 1 1 1 1 0 0 0 0-1 1 1 0 0 0-1-1 1 1 0 0 0 0 1ZM96 265a1 1 0 0 0 1 1 1 1 0 0 0 1 0 1 1 0 0 0-1-1 1 1 0 0 0-1 0ZM66 231a1 1 0 0 0 1 1 1 1 0 0 0 0-1 1 1 0 0 0 0-1 1 1 0 0 0-1 1ZM56 211a1 1 0 0 0 1 1 1 1 0 0 0 0-1 1 1 0 0 0-1 0ZM93 285a1 1 0 0 0 1 1 1 1 0 0 0 0-1 1 1 0 0 0-1 0ZM102 304a1 1 0 0 0 1 1 1 1 0 0 0 0-1 1 1 0 0 0-1-1 1 1 0 0 0 0 1ZM122 324a1 1 0 0 0 1 1 1 1 0 0 0-1-1ZM91 344a1 1 0 0 0 1 1 1 1 0 0 0 0-1 1 1 0 0 0-1 0ZM69 321a1 1 0 0 0 0 1 1 1 0 0 0 1 0 1 1 0 0 0-1-1ZM71 251a1 1 0 0 0 0 1 1 1 0 0 0 1 0 1 1 0 0 0-1-1ZM61 199a1 1 0 0 0 1 1 1 1 0 0 0 1 0 1 1 0 0 0-1-1 1 1 0 0 0-1 0ZM53 145a1 1 0 0 0 1 1 1 1 0 0 0-1-1ZM47 99a1 1 0 0 0 1 1 1 1 0 0 0 0-1 1 1 0 0 0-1-1 1 1 0 0 0 0 1ZM81 55a1 1 0 1 0 0-1 1 1 0 0 0 0 1ZM222 60a1 1 0 0 0 0 1 1 1 0 0 0 1-1 1 1 0 0 0-1-1 1 1 0 0 0 0 1ZM269 81a1 1 0 0 0 1 1 1 1 0 0 0 1 0 1 1 0 0 0-1-1 1 1 0 0 0-1 0ZM351 62a1 1 0 1 0 1 0 1 1 0 0 0-1 0ZM408 50a1 1 0 1 0 0-1 1 1 0 0 0 0 1ZM437 49a1 1 0 0 0 1 1 1 1 0 0 0 0-1 1 1 0 0 0-1-1 1 1 0 0 0 0 1ZM482 72a1 1 0 0 0 1 1 1 1 0 0 0-1-1ZM449 113a1 1 0 0 0 1 1 1 1 0 0 0 0-1 1 1 0 0 0-1 0ZM454 118a1 1 0 0 0 1 1 1 1 0 0 0 0-1 1 1 0 0 0-1 0ZM548 115a1 1 0 0 0 1 1 1 1 0 0 0 0-1 1 1 0 0 0 0-1 1 1 0 0 0-1 1ZM571 125a1 1 0 0 0 1 1 1 1 0 0 0-1-1ZM735 205a1 1 0 0 0 1 0 1 1 0 0 0-1-1 1 1 0 0 0 0 1ZM765 199a1 1 0 0 0 1 1 1 1 0 0 0-1-1ZM799 181a1 1 0 0 0 1 1 1 1 0 0 0-1-1ZM803 127a1 1 0 0 0 0 1 1 1 0 0 0 1-1 1 1 0 0 0-1 0ZM803 79a1 1 0 0 0 1 1 1 1 0 0 0-1-1ZM807 71a1 1 0 0 0 1 1 1 1 0 0 0-1-1ZM683 181a1 1 0 0 0 1 1 1 1 0 0 0 0-1 1 1 0 0 0-1-1 1 1 0 0 0 0 1ZM524 211a1 1 0 0 0 1 1 1 1 0 0 0-1-1ZM457 215a1 1 0 0 0 1 1 1 1 0 0 0 1 0 1 1 0 0 0-1-1 1 1 0 0 0-1 0ZM385 219a1 1 0 0 0 1 1 1 1 0 0 0-1-1ZM312 212a1 1 0 0 0 1 1 1 1 0 0 0 1 0 1 1 0 0 0-1-1 1 1 0 0 0-1 0Z" />
          <ellipse cx="234.9" cy="218.3" rx=".6" ry=".7" transform="rotate(-45 283 163)" />
          <path
            d="M266 283a1 1 0 0 0 1 1 1 1 0 0 0-1-1ZM269 298a1 1 0 1 0 1 0 1 1 0 0 0-1 0ZM474 306a1 1 0 0 0 1 1 1 1 0 0 0 0-1 1 1 0 0 0-1 0ZM537 308a1 1 0 0 0 1 1 1 1 0 0 0-1-1ZM567 310a1 1 0 0 0 1 1 1 1 0 0 0-1-1ZM671 217ZM656 255a1 1 0 0 0 1 0 1 1 0 0 0 1 0 1 1 0 0 0-1-1 1 1 0 0 0-1 1ZM612 279a1 1 0 0 0 1 1 1 1 0 0 0-1-1ZM565 290a1 1 0 0 0 1 1 1 1 0 0 0 1 0 1 1 0 0 0-1-1 1 1 0 0 0-1 0ZM530 303a1 1 0 0 0 1 1 1 1 0 0 0-1-1ZM521 345a1 1 0 0 0 1 1 1 1 0 0 0-1-1ZM495 368a1 1 0 0 0 1 1 1 1 0 0 0-1-1ZM439 384a1 1 0 0 0 1 1 1 1 0 0 0 0-1 1 1 0 0 0-1-1 1 1 0 0 0 0 1ZM418 394a1 1 0 0 0 1 1 1 1 0 0 0-1-1ZM376 359a1 1 0 0 0 1 1 1 1 0 0 0 1 0 1 1 0 0 0-2-1ZM385 334a1 1 0 0 0 1 0 1 1 0 0 0 1 0 1 1 0 0 0-1-1 1 1 0 0 0-1 1ZM381 314a1 1 0 0 0 1 1 1 1 0 0 0 1-1 1 1 0 0 0-1-1 1 1 0 0 0-1 1ZM374 282a1 1 0 0 0 1 1 1 1 0 0 0 0-1 1 1 0 0 0 0-1 1 1 0 0 0-1 1ZM490 277a1 1 0 0 0 0 1 1 1 0 0 0 1 0 1 1 0 0 0-1-1ZM455 363a1 1 0 0 0 1 1 1 1 0 0 0 0-1 1 1 0 0 0-1-1 1 1 0 0 0 0 1ZM578 390a1 1 0 0 0 1 1 1 1 0 0 0-1-1ZM694 379a1 1 0 0 0 1 1 1 1 0 0 0-1-1ZM640 269a1 1 0 0 0 1 1 1 1 0 0 0 0-1 1 1 0 0 0-1 0ZM706 304a1 1 0 1 0 0-1 1 1 0 0 0 0 1ZM706 384ZM737 373a1 1 0 0 0 1 1 1 1 0 0 0-1-1ZM734 382a1 1 0 0 0 1 1 1 1 0 0 0 1 0 1 1 0 0 0-1-1 1 1 0 0 0-1 0ZM704 320a1 1 0 0 0 1 1 1 1 0 0 0 1 0 1 1 0 0 0-1-1 1 1 0 0 0-1 0ZM749 403a1 1 0 1 0 1 0 1 1 0 0 0-1 0ZM739 413a1 1 0 0 0 1 1 1 1 0 0 0 0-1 1 1 0 0 0-1-1 1 1 0 0 0 0 1Z" />
          <ellipse cx="722.9" cy="235.8" rx=".6" ry=".7" transform="rotate(-45 771 180)" />
          <ellipse cx="711.9" cy="204" rx=".6" ry=".7" transform="rotate(-45 760 149)" />
          <path
            d="M773 327a1 1 0 0 0 1 1 1 1 0 0 0-1-1ZM766 426a1 1 0 0 0 1 1 1 1 0 0 0 0-1 1 1 0 0 0-1 0ZM735 462a1 1 0 1 0 1 0 1 1 0 0 0-1 0ZM624 369a1 1 0 0 0 0 1 1 1 0 0 0 1 0 1 1 0 0 0-1-1ZM616 350a1 1 0 0 0 1 1 1 1 0 0 0 0-1 1 1 0 0 0-1 0ZM658 443a1 1 0 0 0 1 1 1 1 0 0 0 1 0 1 1 0 0 0-1-1 1 1 0 0 0-1 0ZM714 467a1 1 0 0 0 0 1 1 1 0 0 0 1 0 1 1 0 1 0-2-1ZM751 484a1 1 0 0 0 1 1 1 1 0 0 0-1-1Z" />
          <ellipse cx="634.6" cy="459" rx=".6" ry=".7" transform="rotate(-45 683 404)" />
          <path
            d="M584 446a1 1 0 0 0 1 1 1 1 0 0 0-1-1ZM593 469a1 1 0 0 0 0 1 1 1 0 0 0 1 0 1 1 0 0 0-1-1ZM665 279a1 1 0 0 0 1 1 1 1 0 0 0-1-1ZM607 305a1 1 0 0 0 0 1 1 1 0 0 0 1-1 1 1 0 0 0-1-1 1 1 0 0 0 0 1ZM674 290a1 1 0 0 0 1 1 1 1 0 0 0 1 0 1 1 0 0 0-1-1 1 1 0 0 0-1 0ZM783 268a1 1 0 0 0 1 0 1 1 0 0 0-1-1 1 1 0 0 0 0 1ZM825 364a1 1 0 1 0 1 0 1 1 0 0 0-1 0ZM802 421a1 1 0 0 0 1 1 1 1 0 0 0 0-1 1 1 0 0 0-1-1 1 1 0 0 0 0 1ZM741 430a1 1 0 0 0 1 1 1 1 0 0 0-1-1Z" />
          <ellipse cx="677.3" cy="362.5" rx=".6" ry=".7" transform="rotate(-45 725 307)" />
          <path
            d="M757 533a1 1 0 0 0 1 1 1 1 0 0 0-1-1ZM479 478ZM434 436a1 1 0 0 0 1 1 1 1 0 0 0 0-1 1 1 0 0 0-1-1 1 1 0 0 0 0 1ZM514 478a1 1 0 0 0 1 1 1 1 0 0 0-1-1ZM484 405a1 1 0 0 0 1 1 1 1 0 0 0-1-1ZM418 459a1 1 0 0 0 1 1 1 1 0 0 0 0-1 1 1 0 0 0-1 0ZM499 418a1 1 0 0 0 0 1 1 1 0 0 0 1-1 1 1 0 0 0-1-1 1 1 0 0 0 0 1ZM271 453a1 1 0 0 0 1 1 1 1 0 0 0 0-1 1 1 0 0 0-1 0ZM271 521a1 1 0 0 0 1 1 1 1 0 0 0-1-1ZM350 453a1 1 0 0 0 1 1 1 1 0 0 0 0-1 1 1 0 0 0-1 0ZM195 482a1 1 0 0 0 1 0 1 1 0 0 0 1 0 1 1 0 0 0-1-1 1 1 0 0 0-1 1ZM236 398a1 1 0 1 0 0-1 1 1 0 0 0 0 1ZM218 301a1 1 0 0 0 1 1 1 1 0 0 0-1-1ZM104 393Z" />
          <ellipse cx="32.4" cy="454.4" rx=".6" ry=".7" transform="rotate(-45 80 399)" />
          <path
            d="M64 494a1 1 0 0 0 1 1 1 1 0 0 0-1-1ZM49 392a1 1 0 0 0 1 1 1 1 0 0 0-1-1ZM77 373a1 1 0 0 0 1 1 1 1 0 0 0-1-1ZM125 476a1 1 0 1 0 1 0 1 1 0 0 0-1 0ZM222 402a1 1 0 0 0 0 1 1 1 0 0 0 1 0 1 1 0 0 0-1-1ZM173 347a1 1 0 0 0 1 0 1 1 0 0 0-1-1 1 1 0 0 0 0 1ZM169 186a1 1 0 1 0 1 0 1 1 0 0 0-1 0ZM268 138a1 1 0 0 0 1 1 1 1 0 0 0 0-1 1 1 0 0 0 0-1 1 1 0 0 0-1 1ZM321 154a1 1 0 0 0 1 1 1 1 0 0 0 0-1 1 1 0 0 0-1-1 1 1 0 0 0 0 1ZM288 192a1 1 0 0 0 1 1 1 1 0 0 0 1-1 1 1 0 0 0-1-1 1 1 0 0 0-1 1ZM490 116a1 1 0 0 0 1 1 1 1 0 0 0-1-1ZM574 191a1 1 0 0 0 1 1 1 1 0 0 0 0-1 1 1 0 0 0-1-1 1 1 0 0 0 0 1ZM553 235a1 1 0 1 0 0-1 1 1 0 0 0 0 1ZM420 112a1 1 0 0 0 0 1 1 1 0 0 0 1 0 1 1 0 0 0-1-1ZM446 188a1 1 0 0 0 1 1 1 1 0 0 0 1 0 1 1 0 0 0-1-1 1 1 0 0 0-1 0ZM560 147a1 1 0 0 0 1 1 1 1 0 0 0-1-1ZM598 164a1 1 0 1 0 1 0 1 1 0 0 0-1 0ZM643 76a1 1 0 0 0 1 1 1 1 0 0 0 0-1 1 1 0 0 0 0-1 1 1 0 0 0-1 1ZM611 92a1 1 0 0 0 1 1 1 1 0 0 0 1-1 1 1 0 0 0-1 0 1 1 0 0 0-1 0ZM654 134a1 1 0 0 0 0 1 1 1 0 0 0 1 0 1 1 0 0 0-1-1ZM662 133a1 1 0 0 0 1 1 1 1 0 0 0 1 0 1 1 0 0 0-1-1 1 1 0 0 0-1 0ZM685 83a1 1 0 0 0 1 1 1 1 0 0 0 0-1 1 1 0 0 0-1 0ZM634 135a1 1 0 0 0 1 1 1 1 0 0 0-1-1ZM654 128a1 1 0 0 0 1 0 1 1 0 0 0-1-1 1 1 0 0 0 0 1ZM636 126a1 1 0 0 0 1 1 1 1 0 0 0-1-1ZM698 68a1 1 0 0 0 1 1 1 1 0 0 0-1-1ZM695 85a1 1 0 0 0 1 1 1 1 0 0 0 0-1 1 1 0 0 0-1 0ZM769 131a1 1 0 0 0 1 1 1 1 0 1 0-1-1Z" />
          <ellipse cx="668.6" cy="150.7" rx=".6" ry=".7" transform="rotate(-45 717 95)" />
          <path
            d="M711 130a1 1 0 0 0 1 1 1 1 0 0 0 0-1 1 1 0 1 0-1 0ZM721 119a1 1 0 0 0 1 0 1 1 0 0 0 1 0 1 1 0 0 0-1-1 1 1 0 0 0-1 1ZM723 157a1 1 0 0 0 1 1 1 1 0 0 0 0-1 1 1 0 0 0-1 0ZM773 143a1 1 0 0 0 0 1 1 1 0 0 0 1 0 1 1 0 0 0-1-1ZM762 86a1 1 0 0 0 1 0 1 1 0 1 0-1-1Z" />
          <ellipse cx="695.4" cy="101.2" rx=".6" ry=".7" transform="rotate(-45 743 46)" />
          <path
            d="M802 88a1 1 0 0 0 1 1 1 1 0 0 0-1-1ZM789 58a1 1 0 0 0 1 1 1 1 0 0 0 0-1 1 1 0 0 0-1 0ZM794 92a1 1 0 0 0 1 1 1 1 0 0 0 1-1 1 1 0 0 0-1 0 1 1 0 0 0-1 0Z" />
          <ellipse cx="760.5" cy="142" rx=".6" ry=".7" transform="rotate(-45 808 87)" />
          <path
            d="M728 134a1 1 0 0 0 1 1 1 1 0 0 0 0-1 1 1 0 0 0-1 0ZM733 21a1 1 0 0 0 1 1 1 1 0 0 0 0-1 1 1 0 0 0-1 0ZM683 36a1 1 0 0 0 1 0 1 1 0 0 0-1-1 1 1 0 0 0 0 1ZM685 47a1 1 0 0 0 1 1 1 1 0 0 0-1-1ZM715 31a1 1 0 0 0 1 1 1 1 0 0 0-1-1ZM721 88a1 1 0 0 0 1 1 1 1 0 0 0 0-1 1 1 0 0 0-1 0ZM803 106a1 1 0 1 0 1 0 1 1 0 0 0-1 0ZM798 46a1 1 0 0 0 1 1 1 1 0 0 0-1-1ZM836 51a1 1 0 0 0 1 0 1 1 0 0 0-1-1 1 1 0 0 0 0 1ZM803 41a1 1 0 0 0 1 1 1 1 0 0 0-1-1ZM822 85a1 1 0 0 0 1 0 1 1 0 0 0-1-1 1 1 0 0 0 0 1ZM842 213a1 1 0 0 0 1 1 1 1 0 0 0-1-1ZM835 231a1 1 0 0 0 1 1 1 1 0 0 0-1-1ZM856 295a1 1 0 0 0 1 1 1 1 0 0 0-1-1ZM847 317a1 1 0 0 0 1 1 1 1 0 0 0 1-1 1 1 0 0 0-1 0 1 1 0 0 0-1 0ZM772 193a1 1 0 0 0 1 1 1 1 0 0 0-1-1ZM767 233a1 1 0 0 0 1 1 1 1 0 0 0 0-1 1 1 0 0 0-1-1 1 1 0 0 0 0 1ZM738 134a1 1 0 0 0 1 1 1 1 0 0 0 0-1 1 1 0 0 0-1 0ZM661 72a1 1 0 0 0 1 1 1 1 0 0 0 0-1 1 1 0 0 0-1 0ZM552 48a1 1 0 0 0 1 1 1 1 0 0 0 0-1 1 1 0 0 0-1 0ZM560 64a1 1 0 0 0 1 1 1 1 0 0 0-1-1ZM539 114a1 1 0 0 0 1 1 1 1 0 0 0-1-1ZM560 94a1 1 0 0 0 1 1 1 1 0 0 0-1-1ZM538 75a1 1 0 0 0 1 1 1 1 0 0 0 0-1 1 1 0 0 0-1 0ZM433 51a1 1 0 0 0 1 1 1 1 0 0 0-1-1ZM486 81a1 1 0 0 0 1 1 1 1 0 0 0 0-1 1 1 0 1 0-1 0ZM383 98a1 1 0 0 0 1 1 1 1 0 0 0 1 0 1 1 0 0 0-1-1 1 1 0 0 0-1 0ZM388 137a1 1 0 0 0 1 1 1 1 0 0 0 1 0 1 1 0 0 0-1-1 1 1 0 0 0-1 0ZM298 123a1 1 0 0 0 1 1 1 1 0 0 0-1-1ZM354 50a1 1 0 0 0 1 1 1 1 0 0 0 0-1 1 1 0 0 0-1 0Z" />
          <ellipse cx="257.4" cy="80.5" rx=".6" ry=".7" transform="rotate(-45 305 25)" />
          <path
            d="M321 111a1 1 0 0 0 1 1 1 1 0 0 0 0-1 1 1 0 0 0-1 0ZM337 127ZM350 86a1 1 0 0 0 1 1 1 1 0 0 0 0-1 1 1 0 0 0-1 0ZM312 33a1 1 0 0 0 1 1 1 1 0 0 0-1-1ZM229 56a1 1 0 0 0 1 1 1 1 0 0 0-1-1ZM232 61a1 1 0 0 0 1 1 1 1 0 0 0 0-1 1 1 0 0 0-1-1 1 1 0 0 0 0 1ZM192 42a1 1 0 0 0 1 1 1 1 0 0 0 0-1 1 1 0 1 0-1 0ZM128 102a1 1 0 0 0 1 1 1 1 0 0 0 1 0 1 1 0 0 0-1-1 1 1 0 0 0-1 0ZM185 125a1 1 0 0 0 1 1 1 1 0 0 0-1-1ZM105 152a1 1 0 0 0 1 1 1 1 0 0 0 0-1 1 1 0 0 0-1 0ZM101 179ZM150 38a1 1 0 0 0 1 1 1 1 0 0 0-1-1ZM123 115a1 1 0 0 0 1 1 1 1 0 0 0-1-1ZM128 135a1 1 0 0 0 1 0 1 1 0 0 0-1-1 1 1 0 0 0 0 1ZM104 214a1 1 0 0 0 0 1 1 1 0 0 0 1 0 1 1 0 0 0-1-1ZM71 179a1 1 0 0 0 1 0 1 1 0 0 0-1-1 1 1 0 0 0 0 1ZM60 0a1 1 0 0 0 1 1 1 1 0 0 0-1-1ZM38 44a1 1 0 0 0 1 0 1 1 0 0 0-1-1 1 1 0 0 0 0 1ZM34 77a1 1 0 0 0 1 1 1 1 0 0 0-1-1ZM27 56a1 1 0 0 0 1 1 1 1 0 0 0-1-1ZM25 175a1 1 0 0 0 1 0 1 1 0 0 0-1-1 1 1 0 0 0 0 1ZM27 166a1 1 0 0 0 1 1 1 1 0 0 0 1 0 1 1 0 0 0-1-1 1 1 0 0 0-1 0ZM50 314a1 1 0 0 0 1 1 1 1 0 0 0 0-1 1 1 0 0 0-1-1 1 1 0 0 0 0 1ZM62 275a1 1 0 0 0 1 1 1 1 0 0 0-1-1ZM48 292a1 1 0 0 0 1 1 1 1 0 0 0-1-1ZM0 353a1 1 0 0 0 1 1 1 1 0 0 0 0-1 1 1 0 0 0-1-1 1 1 0 0 0 0 1ZM1 259a1 1 0 0 0 0 1 1 1 0 0 0 1-1 1 1 0 0 0-1-1 1 1 0 0 0 0 1ZM5 419a1 1 0 0 0 1 1 1 1 0 0 0 0-1 1 1 0 0 0-1 0ZM5 348a1 1 0 0 0 1 1 1 1 0 0 0 0-1 1 1 0 0 0-1-1 1 1 0 0 0 0 1ZM35 464a1 1 0 0 0 1 1 1 1 0 0 0 0-1 1 1 0 0 0-1 0ZM77 443a1 1 0 0 0 1 1 1 1 0 0 0-1-1ZM129 339a1 1 0 0 0 1 1 1 1 0 0 0-1-1ZM115 326a1 1 0 0 0 1 1 1 1 0 0 0-1-1ZM80 353a1 1 0 0 0 1 1 1 1 0 1 0-1-1ZM118 422a1 1 0 0 0 1 1 1 1 0 0 0-1-1ZM104 410a1 1 0 0 0 1 1 1 1 0 0 0 0-1 1 1 0 0 0-1-1 1 1 0 0 0 0 1ZM97 355ZM232 200a1 1 0 0 0 1 0 1 1 0 0 0-1-1 1 1 0 0 0 0 1ZM223 211a1 1 0 0 0 1 1 1 1 0 0 0 0-1 1 1 0 0 0-1 0ZM252 177a1 1 0 0 0 1 1 1 1 0 0 0 1-1 1 1 0 0 0-1-1 1 1 0 0 0-1 1ZM293 197a1 1 0 0 0 1 1 1 1 0 0 0 1-1 1 1 0 0 0-1-1 1 1 0 0 0-1 1ZM251 273a1 1 0 0 0 1 1 1 1 0 0 0 0-1 1 1 0 0 0-1-1 1 1 0 0 0 0 1ZM298 227a1 1 0 0 0 1 1 1 1 0 0 0 1 0 1 1 0 0 0-1-1 1 1 0 0 0-1 0Z" />
          <ellipse cx="215.9" cy="207.1" rx=".6" ry=".7" transform="rotate(-45 264 152)" />
          <path
            d="M481 156a1 1 0 0 0 1 1 1 1 0 0 0 0-1 1 1 0 0 0-1 0ZM417 186a1 1 0 1 0 1-1 1 1 0 0 0-1 1ZM527 178a1 1 0 0 0 1 1 1 1 0 0 0-1-1ZM449 182a1 1 0 1 0 1 0 1 1 0 0 0-1 0ZM662 232a1 1 0 0 0 0 1 1 1 0 0 0 1-1 1 1 0 0 0-1-1 1 1 0 0 0 0 1ZM629 242a1 1 0 1 0 1 0 1 1 0 0 0-1 0ZM698 254a1 1 0 0 0 1 1 1 1 0 0 0-1-1ZM708 250a1 1 0 0 0 1 1 1 1 0 0 0 1 0 1 1 0 0 0-1-1 1 1 0 0 0-1 0ZM747 300a1 1 0 0 0 1 1 1 1 0 0 0 0-1 1 1 0 0 0-1 0ZM752 387a1 1 0 0 0 1 1 1 1 0 0 0-1-1ZM759 361a1 1 0 0 0 1 1 1 1 0 0 0-1-1ZM808 449a1 1 0 0 0 1 1 1 1 0 0 0-1-1ZM799 415a1 1 0 0 0 1 1 1 1 0 0 0-1-1ZM800 463a1 1 0 0 0 1 1 1 1 0 0 0 1 0 1 1 0 0 0-1-1 1 1 0 0 0-1 0ZM797 462a1 1 0 0 0 1 1 1 1 0 0 0-1-1ZM646 436a1 1 0 0 0 1 1 1 1 0 0 0 0-1 1 1 0 0 0-1 0ZM645 430a1 1 0 0 0 1 1 1 1 0 0 0 1 0 1 1 0 0 0-1-1 1 1 0 0 0-1 0ZM556 428a1 1 0 0 0 1 1 1 1 0 0 0 1 0 1 1 0 0 0-1-1 1 1 0 0 0-1 0ZM531 468a1 1 0 0 0 1 1 1 1 0 0 0 1 0 1 1 0 0 0-1-1 1 1 0 0 0-1 0ZM626 474a1 1 0 0 0 0 1 1 1 0 0 0 1-1 1 1 0 0 0-1 0ZM664 459a1 1 0 0 0 1 0 1 1 0 0 0-1-1 1 1 0 0 0 0 1ZM619 417a1 1 0 0 0 1 1 1 1 0 0 0 0-1 1 1 0 0 0-1-1 1 1 0 0 0 0 1ZM628 378a1 1 0 0 0 1 1 1 1 0 0 0-1-1ZM581 385a1 1 0 0 0 0 1 1 1 0 0 0 1 0 1 1 0 0 0-1-1ZM637 430a1 1 0 0 0 1 1 1 1 0 0 0 0-1 1 1 0 0 0-1 0ZM692 400a1 1 0 0 0 0 1 1 1 0 0 0 1-1 1 1 0 1 0-1 0ZM632 410a1 1 0 0 0 0 1 1 1 0 0 0 1 0 1 1 0 0 0-1-1ZM690 374a1 1 0 0 0 0 1 1 1 0 0 0 1 0 1 1 0 0 0-1-1ZM641 311a1 1 0 0 0 1 1 1 1 0 0 0-1-1ZM621 346a1 1 0 0 0 1 1 1 1 0 0 0-1-1ZM640 298a1 1 0 0 0 1 0 1 1 0 0 0-1-1 1 1 0 0 0 0 1ZM682 371a1 1 0 0 0 1 1 1 1 0 0 0 0-1 1 1 0 0 0-1-1 1 1 0 0 0 0 1ZM681 383a1 1 0 0 0 1 1 1 1 0 0 0 0-1 1 1 0 0 0-1-1 1 1 0 0 0 0 1ZM674 352a1 1 0 0 0 1 1 1 1 0 0 0-1-1ZM670 352a1 1 0 0 0 1 1 1 1 0 0 0 0-1 1 1 0 0 0-1 0ZM675 336a1 1 0 0 0 1 1 1 1 0 0 0-1-1ZM643 349a1 1 0 0 0 1 1 1 1 0 0 0-1-1ZM654 335a1 1 0 0 0 1 1 1 1 0 0 0-1-1ZM680 342ZM723 364a1 1 0 0 0 1 1 1 1 0 0 0 0-1 1 1 0 0 0-1-1 1 1 0 0 0 0 1ZM744 352a1 1 0 0 0 1 1 1 1 0 0 0-1-1ZM745 332a1 1 0 0 0 1 1 1 1 0 0 0-1-1ZM737 334a1 1 0 0 0 1 0 1 1 0 0 0 0-1 1 1 0 0 0-1 1ZM757 332a1 1 0 0 0 0 1 1 1 0 0 0 1 0 1 1 0 0 0-1-1ZM794 301a1 1 0 0 0 1 1 1 1 0 0 0-1-1ZM797 296a1 1 0 1 0 1-1 1 1 0 0 0-1 1ZM815 326a1 1 0 0 0 1 1 1 1 0 0 0 0-1 1 1 0 0 0-1-1 1 1 0 0 0 0 1ZM809 364a1 1 0 0 0 1 1 1 1 0 0 0-1-1ZM818 387a1 1 0 0 0 1 1 1 1 0 0 0-1-1ZM727 443a1 1 0 0 0 1 1 1 1 0 0 0 1 0 1 1 0 1 0-2-1ZM537 386a1 1 0 0 0 1 1 1 1 0 0 0-1-1ZM480 340a1 1 0 0 0 1 0 1 1 0 0 0 1 0 1 1 0 0 0-2 0ZM442 320a1 1 0 0 0 1 1 1 1 0 0 0-1-1ZM427 282a1 1 0 0 0 0 1 1 1 0 0 0 1-1 1 1 0 0 0-1 0ZM425 252ZM406 273a1 1 0 0 0 1 1 1 1 0 0 0-1-1ZM481 261a1 1 0 0 0 0 1 1 1 0 0 0 1 0 1 1 0 0 0-1-1ZM555 252a1 1 0 0 0 1 1 1 1 0 0 0 1-1 1 1 0 0 0-1 0 1 1 0 0 0-1 0ZM573 241a1 1 0 0 0 1 1 1 1 0 0 0 0-1 1 1 0 0 0-1 0ZM591 199a1 1 0 0 0 1 1 1 1 0 0 0-1-1ZM563 244a1 1 0 0 0 1 1 1 1 0 0 0 0-1 1 1 0 0 0 0-1 1 1 0 0 0-1 1ZM538 292a1 1 0 0 0 1 0 1 1 0 1 0-1 0ZM462 266a1 1 0 0 0 1 1 1 1 0 0 0 1 0 1 1 0 0 0-1-1 1 1 0 0 0-1 0ZM393 233a1 1 0 0 0 1 1 1 1 0 0 0 1 0 1 1 0 0 0-1-1 1 1 0 0 0-1 0ZM343 255a1 1 0 0 0 1 1 1 1 0 0 0 0-1 1 1 0 0 0-1 0ZM341 248a1 1 0 0 0 1 1 1 1 0 0 0-1-1ZM377 174a1 1 0 0 0 1 1 1 1 0 0 0 0-1 1 1 0 0 0-1-1 1 1 0 0 0 0 1ZM360 154a1 1 0 0 0 1 1 1 1 0 0 0 0-1 1 1 0 0 0-1 0ZM261 229a1 1 0 0 0 1 0 1 1 0 0 0-1-1 1 1 0 0 0 0 1ZM303 302a1 1 0 0 0 0 1 1 1 0 0 0 1 0 1 1 0 0 0-1-1ZM372 341a1 1 0 0 0 1 1 1 1 0 1 0-1-1ZM359 301a1 1 0 0 0 1 1 1 1 0 0 0-1-1ZM316 323a1 1 0 0 0 0 1 1 1 0 0 0 1-1 1 1 0 0 0-1-1 1 1 0 0 0 0 1ZM314 362a1 1 0 1 0 1 0 1 1 0 0 0-1 0ZM335 379a1 1 0 0 0 1 1 1 1 0 0 0-1-1ZM345 405a1 1 0 0 0 1 1 1 1 0 0 0-1-1ZM306 423a1 1 0 0 0 1 1 1 1 0 0 0 1 0 1 1 0 0 0-1-1 1 1 0 0 0-1 0ZM270 343a1 1 0 0 0 1 1 1 1 0 0 0-1-1ZM255 347a1 1 0 0 0 1 1 1 1 0 0 0-1-1Z" />
          <ellipse cx="149.9" cy="352.5" rx=".6" ry=".7" transform="rotate(-45 198 297)" />
          <path
            d="M179 383ZM216 395a1 1 0 0 0 1 1 1 1 0 0 0-1-1ZM332 413a1 1 0 0 0 1 1 1 1 0 0 0 1 0 1 1 0 0 0-1-1 1 1 0 0 0-1 0ZM317 421a1 1 0 0 0 1 0 1 1 0 0 0-1-1 1 1 0 0 0 0 1ZM250 373a1 1 0 1 0 1-1 1 1 0 0 0-1 1ZM211 336a1 1 0 1 0 1 0 1 1 0 0 0-1 0ZM200 321a1 1 0 0 0 1 1 1 1 0 0 0 1 0 1 1 0 0 0-1-1 1 1 0 0 0-1 0ZM234 259a1 1 0 0 0 1 1 1 1 0 0 0 1 0 1 1 0 0 0-1-1 1 1 0 0 0-1 0ZM248 317a1 1 0 0 0 1 1 1 1 0 0 0 0-1 1 1 0 1 0-1 0ZM193 243a1 1 0 0 0 0 1 1 1 0 0 0 1 0 1 1 0 0 0-1-1ZM188 249a1 1 0 0 0 1 1 1 1 0 0 0-1-1ZM151 325a1 1 0 0 0 1 1 1 1 0 0 0-1-1Z" />
          <ellipse cx="115.5" cy="312.5" rx=".6" ry=".7" transform="rotate(-45 164 257)" />
          <path
            d="M182 304a1 1 0 0 0 1 1 1 1 0 0 0 1 0 1 1 0 0 0-1-1 1 1 0 0 0-1 0ZM181 289a1 1 0 0 0 1 1 1 1 0 0 0 0-1 1 1 0 0 0-1 0ZM156 284a1 1 0 0 0 1 1 1 1 0 0 0 0-1 1 1 0 0 0-1-1 1 1 0 0 0 0 1ZM131 364a1 1 0 0 0 1 1 1 1 0 0 0-1-1ZM149 414a1 1 0 0 0 1 1 1 1 0 0 0-1-1ZM162 423a1 1 0 0 0 1 1 1 1 0 0 0 1 0 1 1 0 0 0-1-1 1 1 0 0 0-1 0ZM188 445a1 1 0 0 0 1 1 1 1 0 0 0 1-1 1 1 0 0 0-1-1 1 1 0 0 0-1 1ZM212 448a1 1 0 0 0 1 1 1 1 0 0 0-1-1ZM219 454a1 1 0 0 0 1 1 1 1 0 0 0 0-1 1 1 0 0 0-1 0ZM227 474a1 1 0 0 0 1 1 1 1 0 0 0-1-1ZM256 489a1 1 0 0 0 1 1 1 1 0 0 0 0-1 1 1 0 0 0-1 0ZM270 502a1 1 0 0 0 1 0 1 1 0 0 0-1-1 1 1 0 0 0 0 1ZM339 498a1 1 0 0 0 1 1 1 1 0 0 0 1 0 1 1 0 0 0-1-1 1 1 0 0 0-1 0ZM408 500a1 1 0 0 0 1 1 1 1 0 0 0 0-1 1 1 0 0 0-1-1 1 1 0 0 0 0 1ZM458 509a1 1 0 0 0 0 1 1 1 0 0 0 1 0 1 1 0 0 0-1-1ZM496 514a1 1 0 0 0 1 1 1 1 0 0 0-1-1ZM543 516a1 1 0 0 0 1 1 1 1 0 0 0 1 0 1 1 0 0 0-1-1 1 1 0 0 0-1 0ZM603 516a1 1 0 0 0 1 1 1 1 0 0 0-1-1ZM648 519a1 1 0 0 0 1 1 1 1 0 0 0 0-1 1 1 0 0 0 0-1 1 1 0 0 0-1 1ZM737 516a1 1 0 0 0 1 0 1 1 0 0 0 1 0 1 1 0 0 0-1-1 1 1 0 0 0-1 1ZM776 516a1 1 0 0 0 1 1 1 1 0 0 0-1-1ZM804 516a1 1 0 0 0 1 1 1 1 0 0 0 0-1 1 1 0 0 0-1 0Z" />
          <ellipse cx="773" cy="483.6" rx=".6" ry=".7" transform="rotate(-45 821 428)" />
          <path
            d="M849 439a1 1 0 0 0 1 1 1 1 0 0 0 0-1 1 1 0 0 0-1-1 1 1 0 0 0 0 1ZM850 414a1 1 0 0 0 0 1 1 1 0 0 0 1 0 1 1 0 0 0-1-1ZM738 379a1 1 0 0 0 1 1 1 1 0 0 0 0-1 1 1 0 0 0-1 0ZM550 435a1 1 0 0 0 0 1 1 1 0 0 0 1 0 1 1 0 0 0-1-1ZM489 453a1 1 0 1 0 0-1 1 1 0 0 0 0 1ZM455 422a1 1 0 0 0 0 1 1 1 0 0 0 1-1 1 1 0 0 0-1-1 1 1 0 0 0 0 1ZM562 481a1 1 0 0 0 1 1 1 1 0 0 0 0-1 1 1 0 0 0 0-1 1 1 0 0 0-1 1ZM587 420a1 1 0 0 0 1 1 1 1 0 0 0-1-1ZM477 353a1 1 0 0 0 1 1 1 1 0 0 0 0-1 1 1 0 0 0-1-1 1 1 0 0 0 0 1ZM438 408a1 1 0 0 0 0 1 1 1 0 0 0 1 0 1 1 0 1 0-1-1ZM540 331a1 1 0 0 0 1 1 1 1 0 0 0 0-1 1 1 0 0 0-1 0ZM554 362ZM587 346a1 1 0 0 0 1 1 1 1 0 0 0 0-1 1 1 0 0 0-1 0ZM524 304a1 1 0 0 0 0 1 1 1 0 0 0 1-1 1 1 0 0 0-1-1 1 1 0 0 0 0 1ZM470 259a1 1 0 0 0 1 1 1 1 0 0 0-1-1ZM454 203a1 1 0 0 0 1 0 1 1 0 0 0-1-1 1 1 0 0 0 0 1ZM470 214a1 1 0 0 0 1 1 1 1 0 0 0 0-1 1 1 0 0 0-1-1 1 1 0 0 0 0 1ZM506 230a1 1 0 0 0 1 1 1 1 0 0 0 0-1 1 1 0 0 0-1 0ZM510 246a1 1 0 0 0 1 1 1 1 0 0 0-1-1ZM516 260a1 1 0 0 0 1 1 1 1 0 0 0 1 0 1 1 0 0 0-1-1 1 1 0 0 0-1 0ZM516 217ZM508 196a1 1 0 0 0 1 1 1 1 0 0 0-1-1ZM492 184a1 1 0 0 0 1 1 1 1 0 0 0 1 0 1 1 0 0 0-1-1 1 1 0 0 0-1 0ZM480 165a1 1 0 0 0 1 1 1 1 0 0 0 1 0 1 1 0 0 0-1-1 1 1 0 0 0-1 0ZM537 146a1 1 0 1 0 1-1 1 1 0 0 0-1 1ZM458 143a1 1 0 0 0 1 1 1 1 0 0 0-1-1ZM446 139a1 1 0 0 0 1 1 1 1 0 0 0-1-1ZM387 156a1 1 0 0 0 1 1 1 1 0 0 0-1-1ZM356 205a1 1 0 0 0 1 1 1 1 0 0 0-1-1ZM347 197a1 1 0 0 0 1 1 1 1 0 0 0-1-1ZM297 159a1 1 0 0 0 1 1 1 1 0 0 0 1 0 1 1 0 0 0-1-1 1 1 0 0 0-1 0ZM237 128a1 1 0 0 0 1 1 1 1 0 0 0 0-1 1 1 0 0 0-1 0Z" />
          <ellipse cx="186" cy="78.9" rx=".6" ry=".7" transform="rotate(-45 234 23)" />
          <path
            d="M177 165a1 1 0 0 0 1 1 1 1 0 0 0-1-1ZM164 175a1 1 0 0 0 1 0 1 1 0 0 0-1-1 1 1 0 0 0 0 1ZM140 149a1 1 0 0 0 1 1 1 1 0 0 0 1-1 1 1 0 0 0-1-1 1 1 0 0 0-1 1ZM168 126a1 1 0 0 0 1 1 1 1 0 0 0 1-1 1 1 0 0 0-1-1 1 1 0 0 0-1 1ZM146 81a1 1 0 0 0 1 1 1 1 0 0 0 0-1 1 1 0 1 0-1 0ZM72 100a1 1 0 0 0 1 1 1 1 0 0 0-1-1Z" />
          <ellipse cx="20.5" cy="98.9" rx=".6" ry=".7" transform="rotate(-45 69 43)" />
          <ellipse cx="-44" cy="203.4" rx=".6" ry=".7" transform="rotate(-45 4 148)" />
          <path
            d="M27 261a1 1 0 0 0 1 1 1 1 0 0 0 1-1 1 1 0 0 0-1 0 1 1 0 0 0-1 0ZM44 240a1 1 0 0 0 1 1 1 1 0 0 0-1-1ZM24 317a1 1 0 0 0 1 1 1 1 0 0 0-1-1ZM14 370a1 1 0 0 0 1 0 1 1 0 0 0-1-1 1 1 0 0 0 0 1ZM31 391a1 1 0 0 0 0 1 1 1 0 0 0 1 0 1 1 0 0 0-1-1ZM50 359a1 1 0 0 0 1 1 1 1 0 0 0-1-1ZM49 355a1 1 0 0 0 1 0 1 1 0 0 0 1 0 1 1 0 0 0-1-1 1 1 0 0 0-1 1ZM92 442a1 1 0 0 0 1 1 1 1 0 0 0-1-1ZM57 459ZM50 435a1 1 0 0 0 1 1 1 1 0 0 0 0-1 1 1 0 0 0-1 0ZM181 470a1 1 0 0 0 1 1 1 1 0 0 0 0-1 1 1 0 0 0-1-1 1 1 0 0 0 0 1ZM167 451a1 1 0 0 0 1 1 1 1 0 0 0-1-1ZM125 450a1 1 0 0 0 1 1 1 1 0 0 0-1-1ZM130 453ZM262 424a1 1 0 0 0 1 0 1 1 0 0 0-1-1 1 1 0 0 0 0 1ZM298 394a1 1 0 0 0 1 0 1 1 0 0 0-1-1 1 1 0 0 0 0 1ZM312 386a1 1 0 0 0 1 1 1 1 0 0 0 0-1 1 1 0 0 0-1 0Z" />
          <ellipse cx="255" cy="361.4" rx=".6" ry=".7" transform="rotate(-45 303 306)" />
          <path
            d="M377 394a1 1 0 0 0 1 1 1 1 0 0 0-1-1ZM383 428a1 1 0 0 0 1 1 1 1 0 0 0-1-1ZM384 451a1 1 0 0 0 1 1 1 1 0 0 0 0-1 1 1 0 1 0-1 0ZM407 440a1 1 0 0 0 1 0 1 1 0 0 0-1-1 1 1 0 0 0 0 1ZM439 351a1 1 0 0 0 1 1 1 1 0 0 0-1-1ZM443 335a1 1 0 0 0 1 1 1 1 0 0 0-1-1Z" />
        </g>
        <g fill="#fff" opacity=".3" style="mix-blend-mode:color-dodge">
          <path
            d="M86 61a1 1 0 0 1 0 1 1 1 0 0 1-1-1 1 1 0 0 1 1-1 1 1 0 0 1 0 1ZM219 64a1 1 0 0 1-1 1 1 1 0 0 1 1-1ZM240 77a1 1 0 0 1-1 1 1 1 0 0 1 1-1ZM244 63a1 1 0 0 1-1 1 1 1 0 0 1-1-1 1 1 0 0 1 1-1 1 1 0 0 1 1 1ZM270 32a1 1 0 0 1-1 1 1 1 0 0 1 0-1 1 1 0 0 1 1 0ZM340 35a1 1 0 0 1-1 1 1 1 0 0 1-1 0 1 1 0 1 1 2-1ZM352 94a1 1 0 0 1-1 1 1 1 0 0 1-1 0 1 1 0 0 1 1-1 1 1 0 0 1 1 0ZM291 122a1 1 0 0 1-1 1 1 1 0 0 1-1 0 1 1 0 0 1 1-1 1 1 0 0 1 1 0ZM159 140a1 1 0 0 1-1 1 1 1 0 0 1-1 0 1 1 0 0 1 1-1 1 1 0 0 1 1 0ZM139 124a1 1 0 0 1-1 1 1 1 0 0 1 0-1 1 1 0 1 1 1 0ZM102 85ZM90 70a1 1 0 0 1-1 1 1 1 0 1 1 1-1ZM62 145a1 1 0 0 1-1 1 1 1 0 0 1 1-1ZM69 150a1 1 0 0 1-1 1 1 1 0 0 1 0-1 1 1 0 0 1 1 0ZM51 139a1 1 0 0 1-1 1 1 1 0 0 1 1-1ZM119 277a1 1 0 0 1-1 1 1 1 0 0 1 0-1 1 1 0 0 1 1 0ZM123 251a1 1 0 0 1-1 1 1 1 0 0 1-1 0 1 1 0 0 1 1-1 1 1 0 0 1 1 0ZM151 260a1 1 0 0 1-1 0 1 1 0 0 1 1-1 1 1 0 0 1 0 1ZM223 217a1 1 0 0 1-1 1 1 1 0 0 1 1-1ZM193 186a1 1 0 0 1-1 1 1 1 0 0 1 0-1 1 1 0 0 1 1-1 1 1 0 0 1 0 1Z" />
          <ellipse cx="143.7" cy="165.9" rx=".7" ry=".6" transform="rotate(-45 192 110)" />
          <path
            d="M470 74a1 1 0 0 1-1 1 1 1 0 0 1-1 0 1 1 0 0 1 1-1 1 1 0 0 1 1 0ZM585 66a1 1 0 0 1-1 1 1 1 0 0 1 1-1ZM655 87a1 1 0 0 1 0 1 1 1 0 0 1-1-1 1 1 0 0 1 1-1 1 1 0 0 1 0 1ZM654 118a1 1 0 0 1-1 1 1 1 0 0 1-1 0 1 1 0 0 1 1-1 1 1 0 0 1 1 0ZM674 117a1 1 0 0 1-1 0 1 1 0 0 1 1-1 1 1 0 0 1 0 1Z" />
          <ellipse cx="620.6" cy="90.6" rx=".7" ry=".6" transform="rotate(-45 669 35)" />
          <ellipse cx="631.9" cy="43.5" rx=".7" ry=".6" transform="rotate(-45 680 -12)" />
          <path
            d="M712 52ZM771 85a1 1 0 0 1-1 1 1 1 0 0 1 0-1 1 1 0 0 1 1 0ZM785 137a1 1 0 0 1-1 1 1 1 0 0 1 1-1ZM771 182a1 1 0 0 1-1 1 1 1 0 0 1 0-1 1 1 0 0 1 1-1 1 1 0 0 1 0 1ZM715 201a1 1 0 0 1-1 1 1 1 0 0 1 1-1ZM710 217a1 1 0 0 1-1 1 1 1 0 0 1 0-1 1 1 0 0 1 1 0ZM777 260ZM787 265a1 1 0 0 1-1 1 1 1 0 0 1 0-1 1 1 0 0 1 1-1 1 1 0 0 1 0 1ZM690 204a1 1 0 0 1-1 1 1 1 0 0 1 1-1ZM705 239a1 1 0 1 1-1 0 1 1 0 0 1 1 0ZM712 253a1 1 0 1 1 0-1 1 1 0 0 1 0 1ZM738 277a1 1 0 0 1-1 1 1 1 0 0 1-1 0 1 1 0 0 1 1-1 1 1 0 0 1 1 0ZM745 279a1 1 0 0 1-1 1 1 1 0 0 1 0-1 1 1 0 0 1 1-1 1 1 0 0 1 0 1ZM761 265a1 1 0 0 1-1 1 1 1 0 0 1 1-1ZM791 231a1 1 0 0 1-1 1 1 1 0 0 1 0-1 1 1 0 0 1 1-1 1 1 0 0 1 0 1ZM801 211a1 1 0 0 1-1 1 1 1 0 0 1 1-1ZM764 285a1 1 0 0 1-1 1 1 1 0 0 1 0-1 1 1 0 0 1 1 0Z" />
          <ellipse cx="701.7" cy="286.3" rx=".7" ry=".6" transform="rotate(-45 750 231)" />
          <path
            d="M736 324a1 1 0 0 1-1 1 1 1 0 0 1-1 0 1 1 0 0 1 1-1 1 1 0 0 1 1 0ZM766 344a1 1 0 0 1-1 1 1 1 0 0 1 1-1ZM789 321a1 1 0 0 1-1 1 1 1 0 0 1 0-1 1 1 0 0 1 1 0ZM787 251a1 1 0 0 1-1 1 1 1 0 0 1 0-1 1 1 0 0 1 1 0ZM796 199a1 1 0 0 1-1 1 1 1 0 0 1 1-1ZM804 145a1 1 0 0 1-1 1 1 1 0 0 1 1-1ZM811 99a1 1 0 0 1-1 1 1 1 0 0 1-1-1 1 1 0 0 1 1-1 1 1 0 0 1 1 1ZM777 55a1 1 0 1 1-1-1 1 1 0 0 1 1 1ZM636 60a1 1 0 0 1-1 1 1 1 0 0 1 0-1 1 1 0 0 1 0-1 1 1 0 0 1 1 1ZM588 81a1 1 0 0 1-1 1 1 1 0 0 1 1-1ZM506 62ZM449 50a1 1 0 1 1 0-1 1 1 0 0 1 0 1ZM421 49a1 1 0 0 1-1 1 1 1 0 0 1-1-1 1 1 0 0 1 1-1 1 1 0 0 1 1 1ZM375 72a1 1 0 0 1-1 1 1 1 0 1 1 1-1ZM408 113a1 1 0 0 1-1 1 1 1 0 0 1 1-1ZM403 118a1 1 0 0 1-1 1 1 1 0 0 1 1-1ZM309 115a1 1 0 0 1-1 1 1 1 0 0 1 0-1 1 1 0 0 1 1-1 1 1 0 0 1 0 1ZM287 125a1 1 0 0 1-1 1 1 1 0 0 1-1 0 1 1 0 0 1 1-1 1 1 0 0 1 1 0ZM123 205a1 1 0 0 1-1 0 1 1 0 0 1 0-1 1 1 0 0 1 1 1ZM92 199a1 1 0 0 1-1 1 1 1 0 0 1 1-1ZM58 181a1 1 0 0 1-1 1 1 1 0 0 1 1-1ZM55 127a1 1 0 0 1-1 1 1 1 0 0 1 0-1 1 1 0 0 1 1 0ZM55 79a1 1 0 0 1-1 1 1 1 0 0 1-1 0 1 1 0 0 1 1-1 1 1 0 0 1 1 0ZM50 71a1 1 0 0 1-1 1 1 1 0 0 1 1-1ZM174 181a1 1 0 0 1-1 1 1 1 0 0 1 0-1 1 1 0 0 1 1-1 1 1 0 0 1 0 1ZM334 211a1 1 0 0 1-1 1 1 1 0 0 1-1 0 1 1 0 0 1 1-1 1 1 0 0 1 1 0ZM400 215a1 1 0 0 1-1 1 1 1 0 0 1 1-1ZM473 219a1 1 0 0 1-1 1 1 1 0 0 1-1 0 1 1 0 0 1 1-1 1 1 0 0 1 1 0ZM545 212a1 1 0 0 1-1 1 1 1 0 0 1 1-1ZM570 236a1 1 0 0 1-1 1 1 1 0 0 1 0-1 1 1 0 0 1 0-1 1 1 0 0 1 1 1ZM591 283ZM588 298ZM383 306a1 1 0 0 1-1 1 1 1 0 0 1 1-1ZM320 308a1 1 0 0 1-1 1 1 1 0 0 1 1-1ZM290 310a1 1 0 0 1-1 1 1 1 0 0 1 1-1ZM187 217a1 1 0 1 1-1 0 1 1 0 0 1 1 0ZM201 255a1 1 0 0 1-1 0 1 1 0 0 1 1-1 1 1 0 0 1 0 1ZM245 279a1 1 0 0 1-1 1 1 1 0 0 1 1-1ZM292 290a1 1 0 0 1-1 1 1 1 0 0 1 1-1ZM327 303a1 1 0 0 1 0 1 1 1 0 0 1-1 0 1 1 0 0 1 1-1ZM337 345a1 1 0 0 1-1 1 1 1 0 0 1-1 0 1 1 0 0 1 1-1 1 1 0 0 1 1 0ZM362 368a1 1 0 0 1-1 1 1 1 0 0 1 1-1ZM418 384a1 1 0 0 1-1 1 1 1 0 0 1 0-1 1 1 0 0 1 1-1 1 1 0 0 1 0 1ZM440 394a1 1 0 0 1-1 1 1 1 0 0 1-1 0 1 1 0 0 1 1-1 1 1 0 0 1 1 0ZM481 359a1 1 0 0 1-1 1 1 1 0 0 1 1-1ZM472 334a1 1 0 0 1-1 0 1 1 0 0 1 1-1 1 1 0 0 1 0 1ZM476 314a1 1 0 0 1-1 1 1 1 0 0 1 0-1 1 1 0 0 1 1-1 1 1 0 0 1 0 1ZM483 282a1 1 0 0 1-1 1 1 1 0 0 1 0-1 1 1 0 0 1 1-1 1 1 0 0 1 0 1ZM368 277a1 1 0 0 1-1 1 1 1 0 0 1 0-1 1 1 0 0 1 1 0ZM403 363a1 1 0 0 1-1 1 1 1 0 0 1-1-1 1 1 0 0 1 1-1 1 1 0 0 1 1 1ZM280 390a1 1 0 0 1-1 1 1 1 0 0 1-1 0 1 1 0 0 1 1-1 1 1 0 0 1 1 0ZM163 379a1 1 0 0 1-1 1 1 1 0 0 1 1-1ZM217 269a1 1 0 0 1-1 1 1 1 0 0 1 0-1 1 1 0 0 1 1 0ZM151 304a1 1 0 1 1 0-1 1 1 0 0 1 0 1ZM151 384ZM120 373a1 1 0 0 1 0 1 1 1 0 0 1-1 0 1 1 0 0 1 1-1ZM123 382a1 1 0 0 1-1 1 1 1 0 0 1 1-1ZM153 320a1 1 0 0 1-1 1 1 1 0 0 1 1-1ZM108 403ZM118 413a1 1 0 0 1-1 1 1 1 0 0 1 0-1 1 1 0 0 1 1-1 1 1 0 0 1 0 1ZM82 253a1 1 0 0 1-1 1 1 1 0 0 1 0-1 1 1 0 0 1 1 0ZM93 221a1 1 0 0 1-1 1 1 1 0 0 1 0-1 1 1 0 0 1 1 0ZM84 327a1 1 0 0 1-1 1 1 1 0 0 1 1-1ZM91 426a1 1 0 0 1-1 1 1 1 0 0 1 1-1ZM122 462ZM234 369a1 1 0 0 1-1 1 1 1 0 0 1 1-1ZM242 350a1 1 0 0 1-1 1 1 1 0 0 1-1-1 1 1 0 0 1 1 0 1 1 0 0 1 1 0ZM199 443a1 1 0 0 1-1 1 1 1 0 0 1 1-1ZM144 467a1 1 0 0 1-1 1 1 1 0 0 1 1-1ZM107 484a1 1 0 0 1-1 1 1 1 0 0 1-1 0 1 1 0 0 1 1-1 1 1 0 0 1 1 0ZM170 476a1 1 0 0 1-1 1 1 1 0 1 1 1-1ZM274 446a1 1 0 0 1-1 1 1 1 0 0 1-1 0 1 1 0 0 1 1-1 1 1 0 0 1 1 0ZM265 469a1 1 0 0 1-1 1 1 1 0 0 1 0-1 1 1 0 0 1 1 0ZM192 279a1 1 0 0 1-1 1 1 1 0 0 1 1-1ZM251 305a1 1 0 0 1-1 1 1 1 0 0 1 0-1 1 1 0 0 1 0-1 1 1 0 0 1 1 1ZM183 290a1 1 0 0 1-1 1 1 1 0 0 1 1-1ZM74 268a1 1 0 0 1-1 0 1 1 0 0 1 1-1 1 1 0 0 1 0 1ZM32 364a1 1 0 0 1-1 1 1 1 0 0 1 1-1ZM55 421a1 1 0 0 1 0 1 1 1 0 0 1-1-1 1 1 0 0 1 1-1 1 1 0 0 1 0 1ZM116 430a1 1 0 0 1-1 1 1 1 0 0 1 1-1Z" />
          <ellipse cx="73.5" cy="362.5" rx=".7" ry=".6" transform="rotate(-45 122 307)" />
          <path
            d="M100 533a1 1 0 0 1-1 1 1 1 0 0 1 1-1ZM378 478a1 1 0 0 1 0 1 1 1 0 0 1-1-1 1 1 0 0 1 1 0ZM423 436a1 1 0 0 1-1 1 1 1 0 0 1 0-1 1 1 0 0 1 1-1 1 1 0 0 1 0 1ZM344 478a1 1 0 0 1-1 1 1 1 0 0 1-1 0 1 1 0 0 1 1-1 1 1 0 0 1 1 0ZM373 405a1 1 0 0 1-1 1 1 1 0 0 1 1-1ZM439 459a1 1 0 0 1-1 1 1 1 0 0 1 1-1ZM359 418a1 1 0 0 1-1 1 1 1 0 0 1 0-1 1 1 0 0 1 0-1 1 1 0 0 1 1 1ZM587 453a1 1 0 0 1-1 1 1 1 0 0 1-1-1 1 1 0 0 1 1 0 1 1 0 0 1 1 0ZM587 521a1 1 0 0 1-1 1 1 1 0 0 1-1 0 1 1 0 0 1 1-1 1 1 0 0 1 1 0ZM507 453a1 1 0 0 1-1 1 1 1 0 0 1 1-1ZM662 482a1 1 0 0 1-1 0 1 1 0 0 1 1-1 1 1 0 0 1 0 1ZM621 398a1 1 0 1 1 0-1 1 1 0 0 1 0 1ZM639 301a1 1 0 0 1-1 1 1 1 0 0 1 1-1ZM753 393Z" />
          <ellipse cx="718.4" cy="454.4" rx=".7" ry=".6" transform="rotate(-45 766 399)" />
          <path d="M793 494a1 1 0 0 1-1 1 1 1 0 0 1 1-1Z" />
          <ellipse cx="754.3" cy="374.6" rx=".7" ry=".6" transform="rotate(-45 802 319)" />
          <path
            d="M780 373a1 1 0 0 1-1 1 1 1 0 0 1 1-1ZM732 476ZM636 402a1 1 0 0 1-1 1 1 1 0 0 1 0-1 1 1 0 0 1 1 0ZM685 347a1 1 0 0 1-1 0 1 1 0 0 1 0-1 1 1 0 0 1 1 1ZM688 186ZM589 138a1 1 0 0 1-1 1 1 1 0 0 1 0-1 1 1 0 0 1 1-1 1 1 0 0 1 0 1ZM537 154a1 1 0 0 1-1 1 1 1 0 0 1-1-1 1 1 0 0 1 1-1 1 1 0 0 1 1 1ZM569 192a1 1 0 0 1-1 1 1 1 0 0 1 0-1 1 1 0 0 1 1-1 1 1 0 0 1 0 1ZM368 116a1 1 0 0 1-1 1 1 1 0 0 1-1 0 1 1 0 0 1 1-1 1 1 0 0 1 1 0Z" />
          <ellipse cx="229.7" cy="173.3" rx=".7" ry=".6" transform="rotate(-45 278 118)" />
          <path
            d="M305 235a1 1 0 1 1-1-1 1 1 0 0 1 1 1ZM438 112a1 1 0 0 1-1 1 1 1 0 0 1 0-1 1 1 0 0 1 1 0ZM411 188a1 1 0 0 1-1 1 1 1 0 0 1 1-1ZM297 147a1 1 0 0 1-1 1 1 1 0 0 1 1-1ZM259 164ZM214 76a1 1 0 0 1-1 1 1 1 0 0 1 0-1 1 1 0 0 1 1-1 1 1 0 0 1 0 1ZM246 92a1 1 0 0 1-1 1 1 1 0 0 1 0-1 1 1 0 0 1 1 0ZM204 134a1 1 0 0 1-1 1 1 1 0 0 1 0-1 1 1 0 0 1 1 0Z" />
          <ellipse cx="140.9" cy="115.6" rx=".7" ry=".6" transform="rotate(-45 189 60)" />
          <path
            d="M173 83a1 1 0 0 1-1 1 1 1 0 0 1-1-1 1 1 0 0 1 2 0ZM224 135a1 1 0 0 1-1 1 1 1 0 0 1-1 0 1 1 0 0 1 1-1 1 1 0 0 1 1 0ZM203 128a1 1 0 0 1-1 0 1 1 0 0 1 1-1 1 1 0 0 1 0 1ZM222 126a1 1 0 0 1-1 1 1 1 0 0 1-1 0 1 1 0 0 1 1-1 1 1 0 0 1 1 0ZM159 68a1 1 0 0 1-1 1 1 1 0 0 1 1-1ZM163 85a1 1 0 0 1-1 1 1 1 0 0 1-1-1 1 1 0 0 1 1 0 1 1 0 0 1 1 0ZM88 131a1 1 0 0 1-1 1 1 1 0 1 1 1-1Z" />
          <ellipse cx="82.1" cy="150.7" rx=".7" ry=".6" transform="rotate(-45 130 95)" />
          <path
            d="M146 130a1 1 0 0 1-1 1 1 1 0 0 1 0-1 1 1 0 1 1 1 0ZM136 119a1 1 0 0 1-1 0 1 1 0 0 1 1-1 1 1 0 0 1 0 1ZM134 157a1 1 0 0 1-1 1 1 1 0 0 1 0-1 1 1 0 0 1 1 0ZM85 143a1 1 0 0 1-1 1 1 1 0 0 1 0-1 1 1 0 0 1 1 0ZM95 86a1 1 0 0 1-1 0 1 1 0 1 1 1-1ZM109 119a1 1 0 0 1-1 0 1 1 0 0 1 1-1 1 1 0 0 1 0 1ZM56 88a1 1 0 0 1-1 1 1 1 0 0 1-1 0 1 1 0 0 1 1-1 1 1 0 0 1 1 0ZM68 58a1 1 0 0 1-1 1 1 1 0 0 1 1-1ZM63 92a1 1 0 0 1-1 1 1 1 0 0 1 0-1 1 1 0 0 1 1 0ZM44 159a1 1 0 0 1-1 1 1 1 0 0 1 1-1ZM129 134a1 1 0 0 1-1 1 1 1 0 0 1 1-1ZM124 21a1 1 0 0 1 0 1 1 1 0 0 1-1-1 1 1 0 0 1 1 0ZM174 36a1 1 0 0 1-1 0 1 1 0 0 1 1-1 1 1 0 0 1 0 1ZM172 47a1 1 0 0 1-1 1 1 1 0 0 1 1-1ZM142 31a1 1 0 0 1-1 1 1 1 0 0 1 1-1ZM136 88a1 1 0 0 1 0 1 1 1 0 0 1-1-1 1 1 0 0 1 1 0ZM54 106a1 1 0 0 1-1 1 1 1 0 0 1 1-1ZM60 46a1 1 0 0 1-1 1 1 1 0 0 1-1 0 1 1 0 0 1 1-1 1 1 0 0 1 1 0ZM21 51a1 1 0 0 1-1 0 1 1 0 0 1 1-1 1 1 0 0 1 0 1ZM55 41a1 1 0 0 1-1 1 1 1 0 0 1-1 0 1 1 0 0 1 1-1 1 1 0 0 1 1 0ZM35 85a1 1 0 0 1-1 0 1 1 0 0 1 1-1 1 1 0 0 1 0 1ZM15 213a1 1 0 0 1-1 1 1 1 0 0 1 1-1ZM22 231a1 1 0 0 1-1 1 1 1 0 0 1 1-1ZM1 295a1 1 0 0 1-1 1 1 1 0 0 1 1-1ZM10 317a1 1 0 0 1-1 1 1 1 0 0 1 0-1 1 1 0 0 1 1 0ZM85 193a1 1 0 0 1-1 1 1 1 0 0 1 1-1ZM91 233a1 1 0 0 1-1 1 1 1 0 0 1-1-1 1 1 0 0 1 1-1 1 1 0 0 1 1 1ZM119 134a1 1 0 0 1-1 1 1 1 0 0 1 0-1 1 1 0 0 1 1 0ZM196 72a1 1 0 0 1-1 1 1 1 0 0 1 0-1 1 1 0 0 1 1 0ZM305 48a1 1 0 0 1-1 1 1 1 0 0 1 1-1ZM298 64a1 1 0 0 1-1 1 1 1 0 0 1-1 0 1 1 0 0 1 1-1 1 1 0 0 1 1 0ZM318 114a1 1 0 0 1-1 1 1 1 0 0 1 1-1ZM298 94a1 1 0 0 1-1 1 1 1 0 0 1-1 0 1 1 0 0 1 1-1 1 1 0 0 1 1 0ZM319 75a1 1 0 0 1-1 1 1 1 0 0 1 0-1 1 1 0 0 1 1 0ZM425 51a1 1 0 0 1-1 1 1 1 0 0 1-1 0 1 1 0 0 1 2-1ZM371 81a1 1 0 0 1-1 1 1 1 0 0 1 0-1 1 1 0 1 1 1 0ZM474 98a1 1 0 0 1-1 1 1 1 0 0 1 1-1ZM469 137a1 1 0 0 1-1 1 1 1 0 0 1 0-1 1 1 0 0 1 1 0ZM560 123a1 1 0 0 1-1 1 1 1 0 0 1-1 0 1 1 0 0 1 1-1 1 1 0 0 1 1 0ZM503 50a1 1 0 0 1-1 1 1 1 0 0 1 0-1 1 1 0 0 1 1 0ZM547 98a1 1 0 0 1-1 1 1 1 0 0 1 1-1ZM536 111a1 1 0 0 1 0 1 1 1 0 0 1-1-1 1 1 0 0 1 1 0ZM521 127a1 1 0 1 1-1 0 1 1 0 0 1 1 0ZM507 86a1 1 0 0 1-1 1 1 1 0 0 1 1-1ZM545 33a1 1 0 0 1-1 1 1 1 0 0 1 1-1ZM628 56a1 1 0 0 1 0 1 1 1 0 0 1-1 0 1 1 0 0 1 1-1ZM625 61a1 1 0 0 1-1 1 1 1 0 0 1 0-1 1 1 0 0 1 1-1 1 1 0 0 1 0 1ZM665 42a1 1 0 0 1-1 1 1 1 0 0 1 0-1 1 1 0 0 1 1 0ZM729 102a1 1 0 0 1-1 1 1 1 0 0 1 1-1ZM672 125a1 1 0 0 1-1 1 1 1 0 0 1 1-1ZM752 152a1 1 0 0 1-1 1 1 1 0 0 1 1-1ZM757 179a1 1 0 1 1-1 0 1 1 0 0 1 1 0ZM707 38a1 1 0 0 1 0 1 1 1 0 0 1-1 0 1 1 0 0 1 1-1ZM735 115a1 1 0 0 1-1 1 1 1 0 0 1-1 0 1 1 0 0 1 1-1 1 1 0 0 1 1 0ZM729 135a1 1 0 0 1-1 0 1 1 0 0 1 1-1 1 1 0 0 1 0 1ZM754 214a1 1 0 0 1-1 1 1 1 0 0 1-1 0 1 1 0 0 1 1-1 1 1 0 0 1 1 0ZM786 179a1 1 0 0 1-1 0 1 1 0 0 1 1-1 1 1 0 0 1 0 1ZM798 0a1 1 0 0 1-1 1 1 1 0 0 1-1 0 1 1 0 0 1 1-1 1 1 0 0 1 1 0ZM819 44a1 1 0 0 1-1 0 1 1 0 0 1 1-1 1 1 0 0 1 0 1ZM824 77a1 1 0 0 1-1 1 1 1 0 0 1-1 0 1 1 0 0 1 1-1 1 1 0 0 1 1 0ZM830 56a1 1 0 0 1 0 1 1 1 0 0 1-1 0 1 1 0 0 1 1-1Z" />
          <ellipse cx="778.2" cy="157.2" rx=".7" ry=".6" transform="rotate(-45 826 102)" />
          <path
            d="M830 166a1 1 0 0 1-1 1 1 1 0 0 1 1-1ZM808 314a1 1 0 0 1-1 1 1 1 0 0 1-1-1 1 1 0 0 1 1-1 1 1 0 0 1 1 1ZM796 275a1 1 0 0 1-1 1 1 1 0 0 1-1 0 1 1 0 0 1 1-1 1 1 0 0 1 1 0ZM810 292a1 1 0 0 1-1 1 1 1 0 0 1-1 0 1 1 0 0 1 1-1 1 1 0 0 1 1 0ZM857 353a1 1 0 0 1-1 1 1 1 0 0 1 0-1 1 1 0 0 1 1-1 1 1 0 0 1 0 1ZM857 259a1 1 0 0 1-1 1 1 1 0 0 1 0-1 1 1 0 1 1 1 0ZM852 419a1 1 0 0 1-1 1 1 1 0 0 1 1-1Z" />
          <ellipse cx="798.4" cy="330.3" rx=".7" ry=".6" transform="rotate(-45 846 275)" />
          <path
            d="M822 464a1 1 0 0 1-1 1 1 1 0 0 1 0-1 1 1 0 0 1 1 0ZM780 443a1 1 0 0 1-1 1 1 1 0 0 1 1-1ZM728 339a1 1 0 0 1 0 1 1 1 0 0 1-1 0 1 1 0 0 1 1-1Z" />
          <ellipse cx="688.5" cy="308.9" rx=".7" ry=".6" transform="rotate(-45 736 253)" />
          <path
            d="M777 353a1 1 0 0 1-1 1 1 1 0 0 1 1-1ZM739 422a1 1 0 0 1-1 1 1 1 0 0 1 1-1ZM754 410a1 1 0 0 1-1 1 1 1 0 0 1-1-1 1 1 0 0 1 1-1 1 1 0 0 1 1 1ZM760 355ZM626 200a1 1 0 0 1-1 0 1 1 0 0 1-1 0 1 1 0 0 1 1-1 1 1 0 0 1 1 1ZM635 211a1 1 0 0 1-1 1 1 1 0 0 1-1-1 1 1 0 0 1 1 0 1 1 0 0 1 1 0ZM605 177a1 1 0 0 1-1 1 1 1 0 0 1 0-1 1 1 0 0 1 1-1 1 1 0 0 1 0 1ZM564 197a1 1 0 0 1-1 1 1 1 0 0 1 0-1 1 1 0 0 1 1-1 1 1 0 0 1 0 1ZM606 273a1 1 0 0 1 0 1 1 1 0 0 1-1-1 1 1 0 0 1 1-1 1 1 0 0 1 0 1ZM559 227a1 1 0 0 1-1 1 1 1 0 0 1 1-1ZM589 225a1 1 0 0 1-1 0 1 1 0 0 1-1 0 1 1 0 0 1 1-1 1 1 0 0 1 1 1ZM376 156a1 1 0 0 1-1 1 1 1 0 0 1 0-1 1 1 0 0 1 1 0ZM440 186a1 1 0 1 1 0-1 1 1 0 0 1 0 1ZM330 178a1 1 0 0 1-1 1 1 1 0 0 1 1-1ZM408 182ZM196 232a1 1 0 0 1-1 1 1 1 0 0 1 0-1 1 1 0 0 1 0-1 1 1 0 0 1 1 1ZM228 242ZM159 254a1 1 0 0 1 0 1 1 1 0 0 1-1 0 1 1 0 0 1 1-1ZM149 250a1 1 0 0 1-1 1 1 1 0 0 1 1-1ZM110 300a1 1 0 0 1-1 1 1 1 0 0 1 1-1ZM105 387a1 1 0 0 1-1 1 1 1 0 0 1 1-1ZM98 361a1 1 0 0 1-1 1 1 1 0 0 1 1-1ZM49 449a1 1 0 0 1-1 1 1 1 0 0 1 1-1ZM58 415a1 1 0 0 1-1 1 1 1 0 0 1 1-1ZM57 463a1 1 0 0 1-1 1 1 1 0 0 1 1-1ZM61 462a1 1 0 0 1-1 1 1 1 0 0 1-1 0 1 1 0 0 1 1-1 1 1 0 0 1 1 0ZM211 436a1 1 0 0 1-1 1 1 1 0 0 1 1-1ZM212 430a1 1 0 0 1-1 1 1 1 0 0 1 1-1ZM301 428a1 1 0 0 1-1 1 1 1 0 0 1 1-1ZM326 468a1 1 0 0 1-1 1 1 1 0 0 1 1-1ZM232 474a1 1 0 0 1-1 1 1 1 0 0 1 0-1 1 1 0 0 1 1 0ZM193 459a1 1 0 0 1-1 0 1 1 0 0 1 1-1 1 1 0 0 1 0 1ZM239 417a1 1 0 0 1-1 1 1 1 0 0 1-1-1 1 1 0 0 1 1-1 1 1 0 0 1 1 1ZM229 378a1 1 0 0 1-1 1 1 1 0 0 1 1-1ZM277 385a1 1 0 0 1-1 1 1 1 0 0 1 0-1 1 1 0 0 1 1 0ZM220 430a1 1 0 0 1-1 1 1 1 0 0 1 1-1ZM166 400a1 1 0 0 1-1 1 1 1 0 0 1 0-1 1 1 0 0 1 1 0ZM226 410a1 1 0 0 1-1 1 1 1 0 0 1 0-1 1 1 0 0 1 1 0ZM168 374a1 1 0 0 1-1 1 1 1 0 0 1 0-1 1 1 0 0 1 1 0ZM216 311a1 1 0 0 1-1 1 1 1 0 0 1 1-1ZM236 346a1 1 0 0 1-1 1 1 1 0 0 1 1-1ZM217 298a1 1 0 0 1-1 0 1 1 0 0 1 1-1 1 1 0 0 1 0 1ZM175 371a1 1 0 0 1-1 1 1 1 0 0 1 0-1 1 1 0 0 1 1-1 1 1 0 0 1 0 1ZM177 383a1 1 0 0 1-1 1 1 1 0 0 1-1-1 1 1 0 0 1 1-1 1 1 0 0 1 1 1ZM183 352a1 1 0 0 1-1 1 1 1 0 0 1 1-1ZM187 352a1 1 0 0 1-1 1 1 1 0 0 1 0-1 1 1 0 0 1 1 0ZM182 336a1 1 0 0 1-1 1 1 1 0 0 1 1-1ZM214 349a1 1 0 0 1-1 1 1 1 0 0 1 1-1ZM203 335a1 1 0 0 1-1 1 1 1 0 0 1 1-1ZM177 342ZM134 364a1 1 0 0 1-1 1 1 1 0 0 1 0-1 1 1 0 0 1 1-1 1 1 0 0 1 0 1ZM114 352a1 1 0 0 1-1 1 1 1 0 0 1-1 0 1 1 0 0 1 1-1 1 1 0 0 1 1 0ZM112 332a1 1 0 0 1-1 1 1 1 0 0 1 1-1ZM120 334a1 1 0 1 1 0-1 1 1 0 0 1 0 1ZM101 332a1 1 0 0 1-1 1 1 1 0 0 1 0-1 1 1 0 0 1 1 0ZM64 301a1 1 0 0 1-1 1 1 1 0 0 1-1 0 1 1 0 0 1 1-1 1 1 0 0 1 1 0ZM60 296a1 1 0 1 1 0-1 1 1 0 0 1 0 1ZM43 326a1 1 0 0 1-1 1 1 1 0 0 1-1-1 1 1 0 0 1 1-1 1 1 0 0 1 1 1ZM48 364a1 1 0 0 1-1 1 1 1 0 0 1 1-1ZM39 387a1 1 0 0 1-1 1 1 1 0 0 1 1-1ZM130 443a1 1 0 0 1-1 1 1 1 0 0 1 1-1ZM320 386a1 1 0 0 1-1 1 1 1 0 0 1 1-1ZM377 340a1 1 0 0 1-1 0 1 1 0 1 1 1 0ZM416 320a1 1 0 0 1-1 1 1 1 0 0 1-1 0 1 1 0 0 1 1-1 1 1 0 0 1 1 0ZM431 282a1 1 0 0 1-1 1 1 1 0 0 1 0-1 1 1 0 0 1 1 0ZM432 252ZM451 273a1 1 0 0 1-1 1 1 1 0 0 1 1-1ZM377 261a1 1 0 0 1-1 1 1 1 0 0 1-1 0 1 1 0 0 1 1-1 1 1 0 0 1 1 0ZM302 252a1 1 0 0 1-1 1 1 1 0 0 1 0-1 1 1 0 0 1 1 0ZM285 241a1 1 0 0 1-1 1 1 1 0 0 1-1-1 1 1 0 0 1 1 0 1 1 0 0 1 1 0ZM267 199a1 1 0 0 1-1 1 1 1 0 0 1-1 0 1 1 0 0 1 1-1 1 1 0 0 1 1 0ZM294 244a1 1 0 0 1-1 1 1 1 0 0 1 0-1 1 1 0 0 1 1-1 1 1 0 0 1 0 1ZM319 292a1 1 0 0 1-1 0 1 1 0 1 1 1 0ZM395 266a1 1 0 0 1-1 1 1 1 0 0 1 1-1ZM464 233a1 1 0 0 1-1 1 1 1 0 0 1 0-1 1 1 0 0 1 1 0ZM515 255a1 1 0 0 1-1 1 1 1 0 0 1-1-1 1 1 0 0 1 1 0 1 1 0 0 1 1 0ZM516 248a1 1 0 0 1-1 1 1 1 0 0 1 1-1ZM480 174a1 1 0 0 1-1 1 1 1 0 0 1 0-1 1 1 0 0 1 1-1 1 1 0 0 1 0 1ZM497 154a1 1 0 0 1-1 1 1 1 0 0 1 0-1 1 1 0 0 1 1 0ZM596 229a1 1 0 0 1-1 0 1 1 0 0 1 1-1 1 1 0 0 1 0 1ZM555 302a1 1 0 0 1-1 1 1 1 0 0 1 0-1 1 1 0 0 1 1 0ZM486 341a1 1 0 0 1-1 1 1 1 0 0 1-1 0 1 1 0 1 1 2-1ZM499 301a1 1 0 0 1-1 1 1 1 0 0 1-1 0 1 1 0 0 1 1-1 1 1 0 0 1 1 0ZM542 323a1 1 0 0 1-1 1 1 1 0 0 1 0-1 1 1 0 0 1 0-1 1 1 0 0 1 1 1ZM543 362ZM522 379a1 1 0 0 1-1 1 1 1 0 0 1 1-1ZM513 405a1 1 0 0 1-1 1 1 1 0 0 1-1 0 1 1 0 0 1 1-1 1 1 0 0 1 1 0ZM551 423a1 1 0 0 1-1 1 1 1 0 0 1 1-1ZM588 343a1 1 0 0 1-1 1 1 1 0 0 1-1 0 1 1 0 0 1 1-1 1 1 0 0 1 1 0ZM603 347a1 1 0 0 1-1 1 1 1 0 0 1-1 0 1 1 0 0 1 1-1 1 1 0 0 1 1 0ZM655 370a1 1 0 0 1-1 1 1 1 0 0 1-1 0 1 1 0 0 1 2-1ZM679 383a1 1 0 0 1-1 1 1 1 0 0 1 0-1 1 1 0 0 1 1 0ZM641 395a1 1 0 0 1-1 1 1 1 0 0 1 1-1ZM525 413a1 1 0 0 1-1 1 1 1 0 0 1 1-1ZM540 421a1 1 0 0 1-1 0 1 1 0 0 1 1-1 1 1 0 0 1 0 1ZM607 373a1 1 0 1 1 0-1 1 1 0 0 1 0 1ZM646 336ZM657 321a1 1 0 0 1-1 1 1 1 0 0 1 1-1ZM623 259a1 1 0 0 1-1 1 1 1 0 0 1 1-1ZM610 317a1 1 0 0 1-1 1 1 1 0 0 1-1-1 1 1 0 1 1 2 0ZM665 243a1 1 0 0 1-1 1 1 1 0 0 1 0-1 1 1 0 0 1 1 0ZM669 249a1 1 0 0 1-1 1 1 1 0 0 1 1-1ZM706 325a1 1 0 0 1-1 1 1 1 0 0 1 1-1Z" />
          <ellipse cx="635.3" cy="312.5" rx=".7" ry=".6" transform="rotate(-45 683 257)" />
          <path d="M675 304a1 1 0 0 1-1 1 1 1 0 0 1 1-1ZM676 289a1 1 0 0 1-1 1 1 1 0 0 1 1-1Z" />
          <ellipse cx="647.5" cy="266.2" rx=".7" ry=".6" transform="rotate(-45 696 211)" />
          <path
            d="M726 364a1 1 0 0 1-1 1 1 1 0 0 1 1-1ZM709 414a1 1 0 0 1-1 1 1 1 0 0 1-1 0 1 1 0 0 1 1-1 1 1 0 0 1 1 0ZM695 423a1 1 0 0 1-1 1 1 1 0 0 1 1-1ZM669 445a1 1 0 0 1-1 1 1 1 0 0 1 0-1 1 1 0 0 1 1-1 1 1 0 0 1 0 1ZM645 448a1 1 0 0 1-1 1 1 1 0 0 1 1-1ZM638 454a1 1 0 0 1-1 1 1 1 0 0 1 0-1 1 1 0 0 1 1 0ZM630 474a1 1 0 0 1-1 1 1 1 0 0 1 1-1ZM601 489a1 1 0 0 1-1 1 1 1 0 0 1 1-1ZM587 502a1 1 0 0 1-1 0 1 1 0 0 1 1-1 1 1 0 0 1 0 1ZM518 498a1 1 0 0 1-1 1 1 1 0 0 1 1-1ZM449 500a1 1 0 0 1-1 1 1 1 0 0 1 0-1 1 1 0 0 1 1-1 1 1 0 0 1 0 1ZM400 509a1 1 0 0 1-1 1 1 1 0 0 1-1 0 1 1 0 0 1 1-1 1 1 0 0 1 1 0ZM362 514a1 1 0 0 1-1 1 1 1 0 0 1-1 0 1 1 0 0 1 1-1 1 1 0 0 1 1 0ZM314 516a1 1 0 0 1-1 1 1 1 0 0 1 1-1ZM254 516a1 1 0 0 1 0 1 1 1 0 0 1-1 0 1 1 0 0 1 1-1ZM209 519a1 1 0 0 1-1 1 1 1 0 0 1 0-1 1 1 0 0 1 1-1 1 1 0 0 1 0 1ZM120 516a1 1 0 0 1-1 0 1 1 0 0 1 1-1 1 1 0 0 1 0 1ZM81 516a1 1 0 0 1-1 1 1 1 0 0 1 1-1ZM54 516a1 1 0 0 1-1 1 1 1 0 0 1-1-1 1 1 0 0 1 1 0 1 1 0 0 1 1 0ZM32 501a1 1 0 0 1-1 1 1 1 0 0 1-1 0 1 1 0 0 1 1-1 1 1 0 0 1 1 0ZM8 439a1 1 0 0 1-1 1 1 1 0 0 1 0-1 1 1 0 0 1 1-1 1 1 0 0 1 0 1Z" />
          <ellipse cx="-46.2" cy="396.8" rx=".7" ry=".6" transform="rotate(-45 2 341)" />
          <path
            d="M119 379a1 1 0 0 1-1 1 1 1 0 0 1 0-1 1 1 0 1 1 1 0ZM308 435a1 1 0 0 1-1 1 1 1 0 0 1 0-1 1 1 0 0 1 1 0ZM369 453a1 1 0 1 1-1-1 1 1 0 0 1 1 1ZM403 422a1 1 0 0 1-1 1 1 1 0 0 1 0-1 1 1 0 0 1 0-1 1 1 0 0 1 1 1ZM295 481a1 1 0 0 1-1 1 1 1 0 0 1 0-1 1 1 0 0 1 1-1 1 1 0 0 1 0 1Z" />
          <ellipse cx="216.3" cy="402.9" rx=".7" ry=".6" transform="rotate(-45 264 347)" />
          <path
            d="M381 353a1 1 0 0 1-1 1 1 1 0 0 1-1-1 1 1 0 0 1 1-1 1 1 0 0 1 1 1ZM420 408a1 1 0 0 1-1 1 1 1 0 1 1 1-1ZM317 331a1 1 0 0 1-1 1 1 1 0 0 1 0-1 1 1 0 0 1 1 0ZM303 362ZM270 346a1 1 0 0 1-1 1 1 1 0 0 1 0-1 1 1 0 0 1 1 0ZM334 304a1 1 0 0 1-1 1 1 1 0 0 1 0-1 1 1 0 0 1 0-1 1 1 0 0 1 1 1ZM387 259a1 1 0 0 1-1 1 1 1 0 0 1 1-1ZM404 203a1 1 0 0 1-1 0 1 1 0 0 1 0-1 1 1 0 0 1 1 1ZM387 214a1 1 0 0 1-1 1 1 1 0 0 1 0-1 1 1 0 0 1 1-1 1 1 0 0 1 0 1ZM351 230a1 1 0 0 1-1 1 1 1 0 0 1 1-1ZM347 246a1 1 0 0 1-1 1 1 1 0 0 1 1-1ZM341 260a1 1 0 0 1-1 1 1 1 0 0 1 1-1ZM341 217ZM349 196a1 1 0 0 1-1 1 1 1 0 0 1 1-1ZM365 184a1 1 0 0 1-1 1 1 1 0 0 1 1-1ZM377 165a1 1 0 0 1-1 1 1 1 0 0 1 1-1ZM320 146a1 1 0 1 1 0-1 1 1 0 0 1 0 1ZM399 143a1 1 0 0 1-1 1 1 1 0 0 1 1-1ZM411 139a1 1 0 0 1-1 1 1 1 0 0 1 1-1ZM471 156a1 1 0 0 1-1 1 1 1 0 0 1-1 0 1 1 0 0 1 1-1 1 1 0 0 1 1 0ZM501 205a1 1 0 0 1-1 1 1 1 0 0 1 1-1ZM510 197a1 1 0 0 1-1 1 1 1 0 0 1 1-1ZM560 159a1 1 0 0 1-1 1 1 1 0 0 1 1-1ZM620 128a1 1 0 0 1-1 1 1 1 0 0 1 1-1ZM619 96a1 1 0 0 1-1 1 1 1 0 0 1-1 0 1 1 0 0 1 1-1 1 1 0 0 1 1 0ZM680 165a1 1 0 0 1-1 1 1 1 0 0 1 1-1ZM693 175a1 1 0 0 1-1 0 1 1 0 0 1 1-1 1 1 0 0 1 0 1ZM717 149a1 1 0 0 1-1 1 1 1 0 0 1 0-1 1 1 0 0 1 1-1 1 1 0 0 1 0 1ZM689 126a1 1 0 0 1-1 1 1 1 0 0 1 0-1 1 1 0 0 1 1-1 1 1 0 0 1 0 1ZM711 81a1 1 0 0 1-1 1 1 1 0 0 1 0-1 1 1 0 0 1 1 0ZM785 100a1 1 0 0 1-1 1 1 1 0 0 1 1-1Z" />
          <ellipse cx="730.3" cy="98.9" rx=".7" ry=".6" transform="rotate(-45 778 43)" />
          <path
            d="M849 221a1 1 0 0 1-1 1 1 1 0 0 1-1-1 1 1 0 0 1 1 0 1 1 0 0 1 1 0ZM830 261a1 1 0 0 1-1 1 1 1 0 0 1 0-1 1 1 0 0 1 1 0ZM813 240a1 1 0 0 1-1 1 1 1 0 0 1 1-1ZM833 317a1 1 0 0 1-1 1 1 1 0 0 1 1-1ZM843 370a1 1 0 0 1-1 0 1 1 0 0 1 1-1 1 1 0 0 1 0 1ZM827 391a1 1 0 0 1-1 1 1 1 0 0 1-1 0 1 1 0 0 1 1-1 1 1 0 0 1 1 0ZM808 359a1 1 0 0 1-1 1 1 1 0 0 1-1 0 1 1 0 0 1 1-1 1 1 0 0 1 1 0ZM808 355a1 1 0 0 1-1 0 1 1 0 0 1 1-1 1 1 0 0 1 0 1ZM766 442a1 1 0 0 1-1 1 1 1 0 0 1-1 0 1 1 0 0 1 1-1 1 1 0 0 1 1 0ZM801 459a1 1 0 1 1-1 0 1 1 0 0 1 1 0ZM807 435a1 1 0 0 1-1 1 1 1 0 0 1 1-1ZM676 470a1 1 0 0 1-1 1 1 1 0 0 1 0-1 1 1 0 0 1 1-1 1 1 0 0 1 0 1ZM691 451a1 1 0 0 1-1 1 1 1 0 0 1-1 0 1 1 0 0 1 1-1 1 1 0 0 1 1 0ZM732 450a1 1 0 0 1-1 1 1 1 0 0 1 1-1ZM727 453ZM595 424a1 1 0 0 1-1 0 1 1 0 0 1 1-1 1 1 0 0 1 0 1ZM559 394a1 1 0 0 1-1 0 1 1 0 0 1 1-1 1 1 0 0 1 0 1ZM545 386a1 1 0 0 1-1 1 1 1 0 0 1 1-1ZM550 379a1 1 0 0 1-1 1 1 1 0 0 1-1-1 1 1 0 0 1 1 0 1 1 0 0 1 1 0ZM480 394a1 1 0 0 1-1 1 1 1 0 0 1 1-1ZM474 428a1 1 0 0 1 0 1 1 1 0 0 1-1 0 1 1 0 1 1 1-1ZM473 451a1 1 0 0 1-1 1 1 1 0 0 1 0-1 1 1 0 0 1 1 0ZM451 440a1 1 0 0 1-1 0 1 1 0 0 1-1 0 1 1 0 0 1 1-1 1 1 0 0 1 1 1ZM418 351a1 1 0 0 1-1 1 1 1 0 0 1 1-1ZM414 335a1 1 0 0 1-1 1 1 1 0 0 1 1-1Z" />
        </g>
      </g>
    </g>
  </g>
</svg>