<svg width="513" height="513" viewBox="0 0 513 513" fill="none" xmlns="http://www.w3.org/2000/svg">
  <rect x="0.119873" y="0.356934" width="512" height="512" fill="#111827" />
  <path
    d="M211.215 442.098C193.456 459.856 164.664 459.856 146.906 442.098C129.148 424.34 129.148 395.548 146.906 377.789C164.664 360.031 193.456 360.031 211.215 377.789C228.973 395.548 228.973 424.34 211.215 442.098Z"
    fill="#1E3A8A" />
  <path
    d="M365.301 442.353C347.543 460.111 318.751 460.111 300.992 442.353L146.652 288.012C128.893 270.253 128.893 241.461 146.652 223.703C164.41 205.945 193.202 205.945 210.96 223.703L365.301 378.044C383.059 395.802 383.059 424.594 365.301 442.353Z"
    fill="#1D4ED8" />
  <path
    d="M332.825 256.179C315.067 273.938 286.275 273.938 268.516 256.179L146.973 134.636C129.215 116.877 129.215 88.0855 146.973 70.3271C164.731 52.5687 193.523 52.5687 211.282 70.3271L332.825 191.87C350.584 209.629 350.584 238.421 332.825 256.179Z"
    fill="#93C5FD" />
  <mask id="mask0_207_18" style="mask-type:alpha" maskUnits="userSpaceOnUse" x="146" y="69" width="221" height="374">
    <path
      d="M356.763 432.884C344.155 445.493 323.568 445.349 310.782 432.563L155.798 278.865C143.012 266.079 143.012 245.349 155.798 232.563C168.584 219.777 189.315 219.777 202.101 232.563L356.441 386.904C369.227 399.69 369.371 420.276 356.763 432.884Z"
      fill="#3B82F6" />
    <path
      d="M323.644 247.354C310.858 260.14 290.128 260.14 277.342 247.354L155.798 125.81C143.012 113.024 143.012 92.2941 155.798 79.5081C168.584 66.722 189.315 66.722 202.101 79.5081L323.644 201.051C336.43 213.838 336.43 234.568 323.644 247.354Z"
      fill="#3B82F6" />
  </mask>
  <g mask="url(#mask0_207_18)">
    <path
      d="M147.324 264.188C142.644 246.722 153.009 228.769 170.475 224.089L292.019 192.578C309.485 187.897 327.438 198.263 332.118 215.729C336.798 233.195 326.432 251.148 308.966 255.828L187.423 287.339C169.957 292.019 152.004 281.654 147.324 264.188Z"
      fill="#3B82F6" />
  </g>
</svg>