<svg viewBox="0 0 513 513" fill="none" xmlns="http://www.w3.org/2000/svg">
  <path
    d="M198.788 494.106C176.057 516.836 139.204 516.836 116.473 494.106C93.7422 471.375 93.7422 434.521 116.473 411.79C139.204 389.06 176.057 389.06 198.788 411.79C221.519 434.521 221.519 471.375 198.788 494.106Z"
    fill="#1E3A8A" />
  <path
    d="M396.019 494.431C373.288 517.162 336.434 517.162 313.704 494.431L116.147 296.875C93.4167 274.144 93.4167 237.291 116.147 214.56C138.878 191.829 175.732 191.829 198.463 214.56L396.019 412.116C418.749 434.847 418.749 471.701 396.019 494.431Z"
    fill="#1D4ED8" />
  <path
    d="M354.45 256.129C331.719 278.86 294.865 278.86 272.134 256.129L116.559 100.554C93.8282 77.8228 93.8282 40.9692 116.559 18.2385C139.29 -4.49226 176.143 -4.49225 198.874 18.2385L354.45 173.814C377.18 196.545 377.18 233.398 354.45 256.129Z"
    fill="#93C5FD" />
  <mask id="mask0_207_7" style="mask-type:alpha" maskUnits="userSpaceOnUse" x="115" y="17" width="283" height="478">
    <path
      d="M385.09 482.312C368.951 498.451 342.601 498.266 326.235 481.9L127.855 285.167C111.489 268.801 111.489 242.266 127.855 225.9C144.221 209.534 170.756 209.534 187.122 225.9L384.678 423.457C401.045 439.823 401.229 466.173 385.09 482.312Z"
      fill="#3B82F6" />
    <path
      d="M342.698 244.833C326.332 261.199 299.797 261.199 283.431 244.833L127.855 89.2572C111.489 72.8911 111.489 46.3565 127.855 29.9904C144.221 13.6242 170.756 13.6243 187.122 29.9904L342.698 185.566C359.064 201.932 359.064 228.467 342.698 244.833Z"
      fill="#3B82F6" />
  </mask>
  <g mask="url(#mask0_207_7)">
    <path
      d="M117.008 266.38C111.018 244.024 124.285 221.044 146.642 215.054L302.217 174.719C324.574 168.729 347.553 181.996 353.544 204.353C359.534 226.709 346.267 249.689 323.91 255.679L168.335 296.014C145.978 302.004 122.999 288.737 117.008 266.38Z"
      fill="#3B82F6" />
  </g>
</svg>