<svg xmlns="http://www.w3.org/2000/svg" width="280" height="120" fill="none">
  <g id="CSS">
    <g id="S">
      <path id="line-3" stroke="#fff" d="m267.3 74.4-54 33" />
      <path id="line-2" stroke="#fff" d="m219.2 45.5 48 20" />
      <path id="line-1" stroke="#fff" d="m218.7 36.6 39-24" />
      <path id="star-4" fill="#bae6fd"
        d="M207.8 104.2c0-.3.4-.3.4 0l.3 2.1a6 6 0 0 0 5.2 5.2l2.1.3c.3 0 .3.4 0 .4l-2.1.3a6 6 0 0 0-5.2 5.2l-.3 2.1c0 .3-.4.3-.4 0l-.3-2.1a6 6 0 0 0-5.2-5.2l-2.1-.3c-.3 0-.3-.4 0-.4l2.1-.3a6 6 0 0 0 5.2-5.2l.3-2.1Z" />
      <path id="star-3" fill="#bae6fd"
        d="M271.8 62.2c0-.3.4-.3.4 0l.3 2.1a6 6 0 0 0 5.2 5.2l2.1.3c.3 0 .3.4 0 .4l-2.1.3a6 6 0 0 0-5.2 5.2l-.3 2.1c0 .3-.4.3-.4 0l-.3-2.1a6 6 0 0 0-5.2-5.2l-2.1-.3c-.3 0-.3-.4 0-.4l2.1-.3a6 6 0 0 0 5.2-5.2l.3-2.1Z" />
      <path id="star-2" fill="#bae6fd"
        d="M213.8 33.2c0-.3.4-.3.4 0l.3 2.1a6 6 0 0 0 5.2 5.2l2.1.3c.3 0 .3.4 0 .4l-2.1.3a6 6 0 0 0-5.2 5.2l-.3 2.1c0 .3-.4.3-.4 0l-.3-2.1a6 6 0 0 0-5.2-5.2l-2.1-.3c-.3 0-.3-.4 0-.4l2.1-.3a6 6 0 0 0 5.2-5.2l.3-2.1Z" />
      <path id="star-1" fill="#bae6fd"
        d="M263.8.2c0-.3.4-.3.4 0l.3 2.1a6 6 0 0 0 5.2 5.2l2.1.3c.3 0 .3.4 0 .4l-2.1.3a6 6 0 0 0-5.2 5.2l-.3 2.1c0 .3-.4.3-.4 0l-.3-2.1a6 6 0 0 0-5.2-5.2l-2.1-.3c-.3 0-.3-.4 0-.4l2.1-.3a6 6 0 0 0 5.2-5.2l.3-2.1Z" />
    </g>
    <g id="S_2">
      <path id="line-3_2" stroke="#fff" d="m157.2 83.4-44 23" />
      <path id="line-2_2" stroke="#fff" d="m121.3 45.6 37 27" />
      <path id="line-1_2" stroke="#fff" d="m120.8 35.6 46-23" />
      <path id="star-4_2" fill="#bae6fd"
        d="M107.8 104.2c0-.3.4-.3.4 0l.3 2.1a6 6 0 0 0 5.2 5.2l2.1.3c.3 0 .3.4 0 .4l-2.1.3a6 6 0 0 0-5.2 5.2l-.3 2.1c0 .3-.4.3-.4 0l-.3-2.1a6 6 0 0 0-5.2-5.2l-2.1-.3c-.3 0-.3-.4 0-.4l2.1-.3a6 6 0 0 0 5.2-5.2l.3-2.1Z" />
      <path id="star-3_2" fill="#bae6fd"
        d="M163.8 71.2c0-.3.4-.3.4 0l.3 2.1a6 6 0 0 0 5.2 5.2l2.1.3c.3 0 .3.4 0 .4l-2.1.3a6 6 0 0 0-5.2 5.2l-.3 2.1c0 .3-.4.3-.4 0l-.3-2.1a6 6 0 0 0-5.2-5.2l-2.1-.3c-.3 0-.3-.4 0-.4l2.1-.3a6 6 0 0 0 5.2-5.2l.3-2.1Z" />
      <path id="star-2_2" fill="#bae6fd"
        d="M115.8 33.2c0-.3.4-.3.4 0l.3 2.1a6 6 0 0 0 5.2 5.2l2.1.3c.3 0 .3.4 0 .4l-2.1.3a6 6 0 0 0-5.2 5.2l-.3 2.1c0 .3-.4.3-.4 0l-.3-2.1a6 6 0 0 0-5.2-5.2l-2.1-.3c-.3 0-.3-.4 0-.4l2.1-.3a6 6 0 0 0 5.2-5.2l.3-2.1Z" />
      <path id="star-1_2" fill="#bae6fd"
        d="M171.8.2c0-.3.4-.3.4 0l.3 2.1a6 6 0 0 0 5.2 5.2l2.1.3c.3 0 .3.4 0 .4l-2.1.3a6 6 0 0 0-5.2 5.2l-.3 2.1c0 .3-.4.3-.4 0l-.3-2.1a6 6 0 0 0-5.2-5.2l-2.1-.3c-.3 0-.3-.4 0-.4l2.1-.3a6 6 0 0 0 5.2-5.2l.3-2.1Z" />
    </g>
    <g id="C">
      <path id="line-2_3" stroke="#fff" d="m12.3 64.6 55 43" />
      <path id="line-1_3" stroke="#fff" d="m12.7 54.6 47-42" />
      <path id="star-3_3" fill="#bae6fd"
        d="M71.8 104.2c0-.3.4-.3.4 0l.3 2.1a6 6 0 0 0 5.2 5.2l2.1.3c.3 0 .3.4 0 .4l-2.1.3a6 6 0 0 0-5.2 5.2l-.3 2.1c0 .3-.4.3-.4 0l-.3-2.1a6 6 0 0 0-5.2-5.2l-2.1-.3c-.3 0-.3-.4 0-.4l2.1-.3a6 6 0 0 0 5.2-5.2l.3-2.1Z" />
      <path id="star-2_3" fill="#bae6fd"
        d="M7.8 52.2c0-.3.4-.3.4 0l.3 2.1a6 6 0 0 0 5.2 5.2l2.1.3c.3 0 .3.4 0 .4l-2.1.3a6 6 0 0 0-5.2 5.2l-.3 2.1c0 .3-.4.3-.4 0l-.3-2.1a6 6 0 0 0-5.2-5.2l-2.1-.3c-.3 0-.3-.4 0-.4l2.1-.3a6 6 0 0 0 5.2-5.2l.3-2.1Z" />
      <path id="star-1_3" fill="#bae6fd"
        d="M63.8.2c0-.3.4-.3.4 0l.3 2.1a6 6 0 0 0 5.2 5.2l2.1.3c.3 0 .3.4 0 .4l-2.1.3a6 6 0 0 0-5.2 5.2l-.3 2.1c0 .3-.4.3-.4 0l-.3-2.1a6 6 0 0 0-5.2-5.2l-2.1-.3c-.3 0-.3-.4 0-.4l2.1-.3a6 6 0 0 0 5.2-5.2l.3-2.1Z" />
    </g>
  </g>
</svg>